<?xml version="1.0" encoding="utf-8"?>
<!-- Generator: Adobe Illustrator 25.2.1, SVG Export Plug-In . SVG Version: 6.00 Build 0)  -->
<svg version="1.1" id="logo" xmlns="http://www.w3.org/2000/svg" xmlns:xlink="http://www.w3.org/1999/xlink" x="0px" y="0px"
	 viewBox="0 0 706.8 706.8" style="enable-background:new 0 0 706.8 706.8;" xml:space="preserve">
<style type="text/css">
	.st0{opacity:0;fill:#FFFFFF;}
	.st1{fill:#FFFFFF;}
	.st2{fill:#94A6C3;}
	.st3{fill:#1B314F;}
	.st4{fill:#FFD923;}
	.st5{fill:#D82122;}
</style>
<circle class="st0" cx="353.4" cy="353.4" r="353.4"/>
<g>
	<path class="st1" d="M198.6,413.8l16.1-120.6L75.4,196.4l127.2,43.1l30.1-46.1l109.7-68.1l241.8,133.2l12.7,203.4L489,611.6
		l-85.2,13l44.1-80.6v-77.6l-32-60.6l-32.5-21.5l-50,51.6v54.6l-39,36.6l-49.6,6l-22,12.5l-36-11.5l-15-54.1l27.1-38.1v-28.2H198.6z
		"/>
	<path class="st2" d="M421,195.5c-26.6-5.5-55.6-4-55.6-4s-9.5,44.1-68.6,55.7C297.3,247.1,374.8,273.6,421,195.5z"/>
	<path class="st2" d="M445,595.1c32-25.1,56.1-59.6,67.2-98.7c0.5-1.5,5-4,8-6c5-3,10-5.5,11-9.5c1.9-11.5,3-23.6,3-35.5
		c0-4.5-4.6-9.1-9.1-13.4c-3.5-3-7-6.5-7-9.1c-5-45.5-26-88.2-59.6-119.1l-3.5,3.5c32.5,30.6,53.5,72.1,58.1,116.2
		c0.5,4,4.5,8,8.5,12.1c3.5,3,7.6,7.6,7.6,9.5c0,11.5-1.1,23-3,34.5c-0.5,1.9-5,4-8.5,6c-5,2.5-9.5,5-10.5,9.1
		c-12.1,42.6-39.6,79.7-76.1,103.7c6.5-14,27.1-59.6,38.1-82.7l-1.9-74.1l-63.6-61.5l-36,5l-39.6,64.1c0,0,18.6,23.6-7.6,51.1
		c-25.5,27.1-45.5,33.1-45.5,33.1l-18.6-10c5.5-7,16.5-17.5,25.1-24.5c14.5-12.1,29-13,29-26c0.6-27.2-28.5-19.7-28.5-19.7
		l-10.6,9.7l-4.5,37.1l-22,27.5l-2.5-0.5l-36-8c0,0,22.1-11.5,25.6-24.5c3.5-12.6-7-54.1-7.6-56.5c0.5,0.5,10.6,9.1,15,23
		c8-22.1,18.6-43.1,21.5-45.1c3-1.9,43.5-23.6,43.5-23.6l-13.3,35.5l10-5.5l24-59.1c0,0,23.6-11.5,41.1-11.5
		c31.5-0.5,78.1-39,57.1-108.1c6,2.5,110.2,54.6,128.2,156.8C564.7,479,520.1,552.5,445,595.1z"/>
	<path class="st3" d="M325.9,206.5c11.5-13.5,7-33.6,7-33.6l-33.6,49.6C298.8,222.5,311.3,223,325.9,206.5z"/>
	<path class="st3" d="M213.1,477.4l4-20c0,0-16.5,29-18,33.1c-1.6,4.6,1.1,12.6,7.5,12.1c6.5-0.5,14.5-10,14.5-17
		C221.1,476.4,213.1,477.4,213.1,477.4z"/>
	<path class="st3" d="M510.6,158.9c0,0,25.1,1.1,51.1,4c-58.7-46.1-114.2-59.6-159.2-59.6c-62.1,0-104.1,25.6-106.8,27.1l19.6-31
		c0,0-78.1-7.6-105.7,75.1c-7-17.5-13.4-43.1-13.4-43.1S155.6,167,174.6,226C128,209,61.4,185.4,58.9,185c-3.5-0.5-4.6,1.1-4.6,1.1
		s-1.1,1.5,1.9,4c5.5,4.4,110.8,82,133.8,97.1c-5,18-5,26.6,0,35c7,11.5,7.5,17.5,6.5,26c-1.1,8.5-10,82.1-12,91.2
		c-1.9,9.1-23,41.1-22.1,50.6c1.1,9.5,14,50,25.6,54.6c8.5,3,29.5,9.5,43.5,9.5c5,0,9.5-1.1,11.5-3c8.5-7.5,11-9.1,17-9.1
		c0.5,0,1.1,0,1.5,0c2.5,0,5.5,0.5,9.1,0.5c8,0,18.6-1.6,26-8.5c11-11,30.1-26,36-33.1c7.6-9.5,11.5-22.5,9.5-35.5
		c-1.6-12.1,5-22.6,12.6-33.1c9.5-12.6,27.1-35,27.1-35c34.5,26,56.2,65.6,56.2,109.6c0,78.1-68.1,141.2-152.2,141.2
		c-13,0-25.5-1.5-38.1-4.5c38.5,13.4,71,18,97.7,18c56.5,0,86.6-20.5,86.6-20.5s-10.5,13.5-27.5,29c0.5,0,0.5,0,0.5,0
		c93.6-13,139.3-90.1,139.3-90.1s-3.5,25.1-8,42c124.6-93.6,103.6-210.9,103.1-214.8c1.1,1.5,13.5,16.4,20,24.5
		C679.3,225.5,510.6,158.9,510.6,158.9z M318.8,488.5c-1.9,2.5-10.5,10-16.4,15.6c-6,5.5-12.6,11-17.5,16.1c-1.9,1.9-6,3-12.1,3
		c-1.9,0-4,0-5.5,0c-1.1,0-1.9,0-3,0s-1.6,0-1.9,0c-1.6,0-3,0-4.6,0c7.6-10,29.5-33.1,37.1-38.1c9.1-6,13.5-12,8-22.5
		c-5.5-10.6-20-8-20-8s8.5-3.5,16.1-3.5c-9.5-2.5-21.5,0-27.1,5.5c-6,5.5-5,25.1-7.5,37.5c-2.5,13-11,19.6-24,31.6
		c-7,6.5-12,8.5-16.1,8.5c-8.5-1.5-18.6-4-25.6-6.5c-5-6.5-12.6-28-14.5-37.1c1.5-5,7.5-15.6,10.5-21.5c6-11.5,9.5-18,10.6-24
		c1.9-8.5,8.5-61.1,11-83.1c6.5,8.5,15.6,22.6,13.4,31.6c14.5-20.5,4-40.6-1.1-48.6c-4.5-8-10.5-24-5.5-41.1c5-17,23-64.1,23-64.1
		s6,10.6,14.5,8.5c8.5-1.9,77.1-105.2,77.1-105.2s18.6,40.5-1.1,70.2c-20,29.5-39.6,35-39.6,35s27.5,5,53-13.5
		c10.5,24.5,20.5,50,21,53.5c-1.6,3.5-21.5,51.6-23.6,54.6c-1.1,1.1-8,3-13,4c-8.5,2.5-13.4,4-15.6,5.5c-3.5,3-19.6,47-27.1,68.6
		c-9.1,2.5-18,7.6-24.5,17.5c3.5-2.5,14.5-4,22.6-5c7-0.5,28.5,11,34.1,32.5c0,0.5,0,0.5,0,1.1C325.3,474.9,322.9,482.5,318.8,488.5
		z M271.8,494.4c4.6-6.5,4-17.5,4.6-21c0.5-3.5,1.5-10,5.5-11c4-1.1,13.5,0.5,13.5,7.5c0,6.5-7,8-12.1,12.6
		C279.7,485.9,272.6,493.5,271.8,494.4z M471.6,398.8c5-25.5,5.5-47.6,4-65.6c19.5,26,31.5,57.6,35,90.1c0.5,4,4.5,8,8.5,12
		c3.5,3,7.6,7,7.6,9.5c0,11.5-1.1,23-3,34.6c-0.5,1.5-5,4-8.5,6c-5,2.5-9.5,5-10.5,9.1c-11,38.5-34.6,72.6-66.1,96.6
		C485.1,542.5,507.6,462.3,471.6,398.8z M440,595.6c32.5-25.1,57.6-60.1,68.6-99.7c0.5-1.5,5-4,8-6c5-2.5,10-5.5,11-9.5
		c1.9-11.5,3-23.6,3-35.5c0-4.5-4.6-9.1-9.1-13.4c-2.5-3-6.5-6.5-6.5-9.1c-4-36.6-18.6-71-41.1-99.7c-10-60-50-78.6-51.1-79.1
		c1.1,1.6,27.1,39,9.1,83.1c-18.6,44.6-66.1,37.6-70.2,38.1c-4,0-19.5,20-39,57.1c-2.5-1.1-13-3.5-25.1-1.5
		c9.1-25.1,22.6-60.6,25.1-63.6c1.1-1.1,8.5-3,13.5-4.5c9.5-2.5,14-4,15.6-6c1.1-1.6,6-13,11-25.1c4.6,0,16.1-1.1,17-1.6
		c1.1-1.1,10.6-25.5,10.6-28.5c0-2.5-19.6-51.1-27.1-69.6c3.5-4,7-9.1,10.5-14.5c102.6,11.1,182.8,98.2,182.8,203.8
		C556.7,491.9,509.1,562.6,440,595.6z"/>
	<path class="st3" d="M306.8,325.2c9.5-11,4.6-31.5-13-35c4.6-10.5,11-31.5,11-31.5s-51.1,80.1-55.6,81.7
		c-4.6,1.6-9.1-16.1-9.1-16.1c-9.5,36.6,16.1,41.6,19.1,30.1C273.2,350.7,297.3,335.6,306.8,325.2z"/>
	<path class="st4" d="M263.2,344.7l26-44.6c0,0,15,7.6,7.5,19.6C287.2,333.7,263.2,344.7,263.2,344.7z"/>
	<path class="st5" d="M585.1,551.1c-7.6,10-16.1,20.5-26,30.6c64.5-124.2,3-237.9,0.5-242.3c4.6,4.6,9.1,9.5,13,14
		C622.3,408.3,628.2,490.9,585.1,551.1z"/>
	<path class="st5" d="M645.3,391.3c-22.6-60.6-54.6-112.2-125.2-158.7C452,187.5,378.9,191,374.8,191.5c-0.5,0-1.1,0-1.1,0
		c2.5-1.1,5-1.6,7.5-1.9c15.6-5,35.5-9.1,55.7-11.5c53.1-7.7,106.8,10.4,143.3,49.1c0.5,0.5,0.5,0.5,1.1,1.1
		C622.8,272.2,644.3,327.2,645.3,391.3z"/>
	<path class="st5" d="M504.1,143.3c-74.6-14-122.7-7-157.3,6c-1.1-4-4.6-12-7.6-18.6c-10.4,12.6-21.5,27.5-28.4,37.1
		c-19.1,13-27.1,25.6-27.1,25.6c11-37.6,43.1-65.6,82.1-72.6c11-1.9,23-3,36-3C436.5,118.4,471,126.9,504.1,143.3z"/>
	<path class="st5" d="M228.2,239.5c-58.6-1.9-39-70.2-38.1-74.1C190.1,165.9,194,218.9,228.2,239.5z"/>
	<path class="st5" d="M285.8,116.8c-45.1,27.1-36.1,91.6-36.1,91.6C206.6,142.9,282.2,118.4,285.8,116.8z"/>
	<path class="st1" d="M211.6,257.6c3,2.5,6,7,2.5,13.5c-1.9,3.5-5,3-9.5,1.1c-6-3-42-24-74.6-45.5c37.1,13,74.6,27.1,80.6,30.1
		C210.6,256.6,211.1,257.1,211.6,257.6z"/>
</g>
</svg>
