<?xml version="1.0" encoding="utf-8"?>
<!-- Generator: Adobe Illustrator 25.2.1, SVG Export Plug-In . SVG Version: 6.00 Build 0)  -->
<svg version="1.1" id="Layer_1" xmlns="http://www.w3.org/2000/svg" xmlns:xlink="http://www.w3.org/1999/xlink" x="0px" y="0px"
	 viewBox="0 0 2500 2498.9" style="enable-background:new 0 0 2500 2498.9;" xml:space="preserve">
<style type="text/css">
	.st0{fill:#2A71D0;}
	.st1{fill:#FFFFFF;}
</style>
<circle class="st0" cx="1250" cy="1250" r="1250"/>
<path class="st1" d="M1224.4,293.3c45.4-23.7,100.8,31.2,76.7,76.6c-14,37-67.1,46.8-94.3,18.6
	C1178.1,361.5,1187.5,308.1,1224.4,293.3 M736.1,346c27.6-11.4,62.5,13.9,59.7,44c2.9,32.6-37,56.7-65.1,41.1
	C693.5,416.7,697.7,356.2,736.1,346 M1736.2,432c-43.1-5.2-49.9-73-8.4-86.7c32.2-15.7,61.7,13.7,66.4,44.2
	C1787.5,415.6,1765.7,439.5,1736.2,432 M847.2,553.8c46.1-29.2,111.9,14.3,104.8,67.8c-2.4,54.1-74.2,85.4-114.7,48.8
	C798.1,641.7,804.1,575.8,847.2,553.8 M1551.1,584.7c20.6-53,103.9-54.6,127.4-3c23.1,40.2-5.3,89.9-46.6,103.5
	C1577.3,695.5,1525.4,636.5,1551.1,584.7 M1165.6,682.3c-0.4-45.6,41.1-79.5,84.4-82.6c28.7,5.8,60,18,72.4,47
	c23,40,2.6,95-38.9,113.4c-19,10.6-41.4,6.7-62.1,5.4C1189.8,749.9,1163.2,719.5,1165.6,682.3 M439.5,748.7
	c42.1-25.9,98.9,21.4,83,67.1c-8.8,39.6-62,55.7-92.4,30.4C397.6,822.5,402.7,765.6,439.5,748.7 M1998.8,748.6
	c35.7-27.7,94.7,4.1,90.4,49.2c2.4,41.1-48.6,72.2-84.1,51C1966.1,831.2,1962.2,771.1,1998.8,748.6 M1369.9,830.4
	c59-21.2,129,4.2,162.6,56.7c44.3,64.3,20.7,162.1-48.1,199c-71.3,43.6-175.4,6.7-201.7-73C1252.8,942,1296.4,852.8,1369.9,830.4
	 M1023.9,837.5c65.4-30.8,153.3-5,184.9,61.9c37.2,65.1,8.4,155.7-58,189.3c-66.5,37.8-160.3,9.2-192.5-60.7
	C922.2,960.4,954.2,868.6,1023.9,837.5 M677.4,955.9c5-42.1,44.7-69.5,84.8-72.3c43.2,5.2,77.7,38.7,82.4,82.5
	c-2.8,43.3-36.3,85.6-82.1,85.3C712,1055.7,667.8,1005.5,677.4,955.9 M1700.7,892.8c51.8-30.1,123.7,13.7,121.4,73.2
	c3.5,63-76,107.5-127.6,70.5C1640.9,1005.7,1645.1,919,1700.7,892.8 M883.1,1114.9c60.6-16.7,129.8,11.9,159.5,67.5
	c32.5,56,19.2,133.9-31.3,175c-64.8,60.3-184.3,36.1-218.8-46.2C752.8,1235.8,801,1134.8,883.1,1114.9 M1539.3,1114.6
	c58.9-16.8,128,5.8,159.7,59.5c41.9,61.3,21.9,152.8-40.4,192.4c-65.3,45.9-166.3,21.8-202.3-50
	C1412.8,1242.2,1456.6,1137.2,1539.3,1114.6 M493.5,1184.6c52.3-19.8,110.3,37.9,89.1,89.8c-12.9,47.2-79.5,64.7-113.9,29.9
	C428.5,1271.6,443.4,1198.8,493.5,1184.6 M1911.6,1259.8c-1.5-43.3,30.2-81.7,74.7-84.2c35.8,5.7,70.7,34.6,67.8,73.6
	c3.3,51.5-58.8,86.5-102.7,62.3C1930.8,1301.1,1920.2,1280,1911.6,1259.8 M236.3,1210c31.5-13.7,70.4,13.5,63.2,48.5
	c-1.7,39.6-60.1,54.8-81.6,21.7C199,1257.3,210.3,1221.9,236.3,1210z M2220.8,1209.1c22.2-15.8,57.7-4.4,66.5,21.5
	c14.9,28.3-12.4,67-44.2,62.2C2198.4,1296.9,2183.9,1228.8,2220.8,1209.1 M1054,1399.1c82.8-21.5,171.8,47.5,172.4,132.8
	c5.4,86.2-82.3,162.6-167.1,142.7c-65.5-10.5-116.9-73.7-114.8-139.9C944.4,1471.4,992.1,1412.5,1054,1399.1 M1382,1398.9
	c84.1-23.5,175.7,46.8,174.4,134.1c4.4,84.6-80.5,158.4-163.5,141.6c-78.1-10.1-135.7-95.9-113.9-171.7
	C1290,1452.4,1332.2,1411.3,1382,1398.9 M749.6,1451.4c58.2-9.9,112.7,55,89.1,110.2c-17.2,58.9-102.9,74.8-140.7,26.7
	C653.6,1542.2,686.8,1457.8,749.6,1451.4 M1711.5,1454.1c51.9-21.7,115.5,23.1,111.5,79.4c2.1,62-76.5,104.7-127.2,68.5
	C1638.3,1569.6,1648.8,1474,1711.5,1454.1 M1980.3,1723.8c-20.3-37.9,16.6-88,58.6-81c20.9-0.3,35.6,16.1,48.9,30
	c2.7,22.4,7.4,49.2-11.3,66.5C2051.4,1771.2,1994.1,1762.1,1980.3,1723.8 M439.3,1653.3c39.3-26.2,95.8,12.8,87,58.8
	c-4.7,40.6-55.8,63.8-89.6,40.8C400.6,1732,401.9,1672.4,439.3,1653.3 M1215.4,1738.4c51.4-22.7,116.9,22.1,112.1,78.7
	c3.8,62.6-77.2,105.9-127.5,68.3C1144.2,1853.1,1153.5,1758.2,1215.4,1738.4 M855.9,1822.2c43.8-23,102.6,16.8,98.6,65.8
	c1.3,40.3-38,74.6-77.7,68.6c-32.9-0.7-54.4-30.2-64.9-58.2C812.5,1867.8,825,1833.7,855.9,1822.2 M1584.1,1822.9
	c45-27.8,109.1,12.1,104.8,64.6c1.2,54.8-71.2,89.9-113.1,53.9C1535.1,1913.2,1540.1,1845.4,1584.1,1822.9 M1710.7,2136
	c-20-30.3,3.5-66.8,36.1-73.8c26.2,5.3,53.8,25,48.3,55.3C1791.3,2158.6,1731.3,2171.2,1710.7,2136 M705.5,2109.6
	c8-24,27.3-47.9,55.6-41.7c41.2,2.9,53.5,65.1,17.4,84.2C746.1,2174.1,708.4,2144.1,705.5,2109.6 M1190.5,2137.2
	c7.9-35.5,53.9-52.8,84.2-34c20,8.6,25.9,31,31,50.1c-2.7,9.9-5.2,19.9-7.6,29.8c-12.4,14.7-28.3,29.4-49,28.9
	C1210.7,2216.5,1176,2173.1,1190.5,2137.2"/>
</svg>
