<?xml version="1.0" encoding="utf-8"?>
<!-- Generator: Adobe Illustrator 25.2.1, SVG Export Plug-In . SVG Version: 6.00 Build 0)  -->
<svg version="1.1" id="Layer_1" xmlns="http://www.w3.org/2000/svg" xmlns:xlink="http://www.w3.org/1999/xlink" x="0px" y="0px"
	 viewBox="0 0 113 113.4" style="enable-background:new 0 0 113 113.4;" xml:space="preserve">
<style type="text/css">
	.st0{fill:#FFFFFF;}
</style>
<g>
	<circle class="st0" cx="56.7" cy="56.7" r="56.7"/>
	<polygon points="31.5,89.8 42.6,70.6 53.7,51.4 64.8,32.2 66.6,29.1 67.4,32.2 70.8,44.8 67,51.4 55.9,70.6 44.9,89.8 58.1,89.8 
		69.2,70.6 75,60.6 77.7,70.6 82.8,89.8 94.8,89.8 89.6,70.6 84.5,51.4 83.1,46.5 91.4,32.2 79.3,32.2 78.9,30.7 74.7,15 74.2,13 
		62.6,13 62.3,13.4 51.5,32.2 40.4,51.4 29.3,70.6 18.2,89.8 	"/>
</g>
</svg>
