<?xml version="1.0" encoding="utf-8"?>
<!-- Generator: Adobe Illustrator 25.2.1, SVG Export Plug-In . SVG Version: 6.00 Build 0)  -->
<svg version="1.1" id="Layer_1" xmlns="http://www.w3.org/2000/svg" xmlns:xlink="http://www.w3.org/1999/xlink" x="0px" y="0px"
	 viewBox="0 0 40 40" style="enable-background:new 0 0 40 40;" xml:space="preserve">
<style type="text/css">
	.st0{fill:#FFFFFF;fill-opacity:0.9;}
	.st1{fill-rule:evenodd;clip-rule:evenodd;fill:#245AE5;fill-opacity:0.9;}
</style>
<circle class="st0" cx="20" cy="20" r="20"/>
<path class="st1" d="M22.2,3.8l11,5.6c1.6,0.8,2.6,2.4,2.6,4.3v2.6h-4v-2.6c0-0.3-0.2-0.5-0.4-0.7l-11-5.6c-0.2-0.1-0.4-0.1-0.7,0
	L8.7,13c-0.3,0.1-0.4,0.3-0.4,0.7v2.6h-4v-2.6c0-1.8,1-3.4,2.6-4.3l11-5.6C19.2,3.1,20.8,3.1,22.2,3.8z M23.5,19.8
	c0-1.9-1.6-3.4-3.4-3.4c-1.9,0-3.4,1.5-3.4,3.4s1.6,3.4,3.4,3.4S23.5,21.8,23.5,19.8z M31.3,27c0.3-0.1,0.4-0.3,0.4-0.7v-2.6h4v2.6
	c0,1.8-1,3.4-2.6,4.3l-11,5.6c-0.7,0.3-1.4,0.5-2.2,0.5c-0.8,0-1.5-0.2-2.2-0.5L6.9,30.6c-1.6-0.8-2.6-2.4-2.6-4.3v-2.6h4v2.6
	c0,0.3,0.2,0.5,0.4,0.7l9.3,4.7V27c-3.2-0.9-5.4-3.8-5.4-7.2c0-4.1,3.3-7.5,7.5-7.5c4.1,0,7.5,3.3,7.5,7.5c0,3.4-2.3,6.4-5.4,7.2
	v4.7L31.3,27z"/>
</svg>
