<?xml version="1.0" encoding="utf-8"?>
<!-- Generator: Adobe Illustrator 25.2.1, SVG Export Plug-In . SVG Version: 6.00 Build 0)  -->
<svg version="1.1" id="Celo_Rings" xmlns="http://www.w3.org/2000/svg" xmlns:xlink="http://www.w3.org/1999/xlink" x="0px" y="0px"
	 viewBox="0 0 950 950" style="enable-background:new 0 0 950 950;" xml:space="preserve">
<style type="text/css">
	.st0{fill:#205AD7;}
</style>
<path class="st0" d="M920.6,434.9C812.1,275.6,674.4,137.8,515.1,29.3c-24.2-16.5-56-16.5-80.2,0
	c-159.3,108.5-297,246.3-405.5,405.6c-16.5,24.2-16.5,56,0,80.2c108.5,159.3,246.2,297.1,405.5,405.6c24.2,16.5,56,16.5,80.2,0
	c159.3-108.5,297-246.3,405.5-405.6C937.1,490.9,937.1,459.1,920.6,434.9z M717.3,628.9c-4.2,7.3-11.8,8.9-21.4,7.2
	c-27.4-4.9-51-18.8-75.4-30.8c-38-18.7-71.6-44.4-106.5-68.1c-13.5-9.2-14-17.2-2.7-28.8c3-3.1,5.8-6.3,8.9-9.3
	c11.4-11,14.6-11.1,27.1-1.8c18.9,14.1,37.2,29.1,56.8,42.1c12.3,8.2,26.4,13.9,40.1,19.6c9.3,3.8,14.9,0.5,17.9-8.9
	c4.1-13,10-46,6.3-89.4c-3.3-38.6-9.6-63.9-14.8-78.3c-5.5-15.4-16.8-18.1-27.7-11.3c-17.8,11.2-34.7,24.3-50.6,38.2
	c-26,22.7-51,46.7-76.2,70.3c-16.7,15.6-33.2,31.5-49.8,47.2c-27.5,26-54.4,52.6-82.7,77.7c-18.6,16.6-61.5,53.4-86.5,61.6
	c-10.3,3.4-25-3.3-28.8-13.3c-6.2-16.5-10.7-33.9-14.4-51.2c-3.8-17.6-11.1-48.1-14.3-108c-4.2-76.4-2-107.2-0.6-126.8
	c0.9-11.7,1.6-23.8,5.6-34.6c7.7-21,17.1-24.9,40.4-16.1c23,8.7,45.5,19.3,67.1,31.3c32.1,17.7,61.9,38.3,92.3,58.3
	c5,3.3,9.7,7.1,14.5,10.9c7.2,5.6,8,13.2,0.9,21.2c-6.5,7.3-14.2,13.6-21.6,20c-5,4.4-10,3.1-14.7-1.1c-5.6-5-11.3-9.9-17-14.7
	c-11.2-9.5-13.5-5.5-21.4,2.8c-14.8,15.5-30.3,30.4-45.5,45.6c-4.9,4.9-11.4,11.2-16.8,15.3c-7.5,5.7-14,5.8-16.4-3.4
	c-2.3-8.8-4.6-17.6-4.3-24c0.2-5.4,1-8.8,7-14.9c14.1-14.2,34.1-33.9,48.4-47.4c3.5-3.3,3.1-6.7-1.3-9.1
	c-11.7-6.5-23.5-11.8-36-16.7c-7.9-3-13.2-0.8-15.9,7.1c-2.7,7.8-4.8,16.1-5.3,24.3c-1.2,20.4-3,40.9-1.6,61.2
	c2.1,29.8,6.4,59.4,18.4,87.3c7.7,17.9,16.3,16.5,30.4,6.3c20.5-14.8,39.5-31.5,58.9-47.8c24.3-20.5,48.6-41.1,72.4-62.2
	c13.9-12.3,26.9-25.7,40.5-38.4c14.8-13.9,29.8-27.4,44.5-41.3c12.3-11.6,24.2-23.7,36.5-35.4c20.8-19.7,65.5-62.1,87.1-66.9
	c8.8-2,16.7-2.2,24.2,4.9c8.6,8.2,11.9,18.9,14.4,30.8c4,19.3,14.3,85.4,19.1,149.7C731.1,525.5,732.9,601.8,717.3,628.9z"/>
</svg>
