<?xml version="1.0" encoding="utf-8"?>
<!-- Generator: Adobe Illustrator 25.2.1, SVG Export Plug-In . SVG Version: 6.00 Build 0)  -->
<svg version="1.1" id="Layer_1" xmlns="http://www.w3.org/2000/svg" xmlns:xlink="http://www.w3.org/1999/xlink" x="0px" y="0px"
	 viewBox="0 0 24 24" style="enable-background:new 0 0 24 24;" xml:space="preserve">
<style type="text/css">
	.st0{fill:#FFFFFF;}
	.st1{fill:#F6F7F8;}
	.st2{fill-rule:evenodd;clip-rule:evenodd;fill:#FF4724;}
	.st3{fill-rule:evenodd;clip-rule:evenodd;fill:#9E1F63;}
	.st4{fill-rule:evenodd;clip-rule:evenodd;fill:#662D91;}
	.st5{fill-rule:evenodd;clip-rule:evenodd;fill:#FFFFFF;}
</style>
<circle class="st0" cx="12" cy="12" r="12"/>
<circle id="Layer_1_1_" class="st1" cx="12.2" cy="16.2" r="0.2"/>
<g>
	<path class="st2" d="M3.9,16.9l4.8-2.8L12,8.4V2.8c-0.1,0-0.2,0.1-0.2,0.2L7.8,9.8l-3.9,6.8C3.8,16.8,3.8,16.9,3.9,16.9"/>
	<path class="st3" d="M12,2.8v5.5l3.3,5.8l4.8,2.8c0-0.1,0-0.2,0-0.3l-3.9-6.8L12.2,3C12.2,2.9,12.1,2.8,12,2.8"/>
	<path class="st4" d="M20.1,16.9l-4.8-2.8H8.7l-4.8,2.8c0,0.1,0.1,0.1,0.3,0.1h15.7C20,17.1,20.1,17,20.1,16.9"/>
	<path class="st5" d="M8.7,14.1h6.6L12,8.4L8.7,14.1L8.7,14.1z"/>
</g>
</svg>
