<?xml version="1.0" encoding="utf-8"?>
<!-- Generator: Adobe Illustrator 25.2.1, SVG Export Plug-In . SVG Version: 6.00 Build 0)  -->
<svg version="1.1" id="Layer_1" xmlns="http://www.w3.org/2000/svg" xmlns:xlink="http://www.w3.org/1999/xlink" x="0px" y="0px"
	 viewBox="0 0 2500 2500" style="enable-background:new 0 0 2500 2500;" xml:space="preserve">
<style type="text/css">
	.st0{fill:#F3BA2F;}
	.st1{fill:#FFFFFF;}
</style>
<circle class="st0" cx="1250" cy="1250" r="1250"/>
<g>
	<path class="st1" d="M874.6,1095.8L1250,720.4l375.5,375.5l218.4-218.4l-593.9-594L656.2,877.4L874.6,1095.8 M283.6,1250
		L502,1031.6L720.4,1250L502,1468.4L283.6,1250z M874.6,1404.2l375.3,375.3l375.5-375.5l218.5,218.3l-0.1,0.1l-593.9,594
		l-593.8-593.8l-0.3-0.3L874.6,1404.2 M1779.6,1250.1l218.4-218.4l218.4,218.4L1998,1468.5L1779.6,1250.1z"/>
	<path class="st1" d="M1471.5,1249.9L1471.5,1249.9L1250,1028.3L1086.2,1192h0l-18.8,18.8l-38.8,38.8l-0.3,0.3l0.3,0.3l221.4,221.4
		l221.6-221.6l0.1-0.1L1471.5,1249.9"/>
</g>
</svg>
