<?xml version="1.0" encoding="utf-8"?>
<!-- Generator: Adobe Illustrator 25.2.1, SVG Export Plug-In . SVG Version: 6.00 Build 0)  -->
<svg version="1.1" id="Layer_1" xmlns="http://www.w3.org/2000/svg" xmlns:xlink="http://www.w3.org/1999/xlink" x="0px" y="0px"
	 viewBox="0 0 1875 1875" style="enable-background:new 0 0 1875 1875;" xml:space="preserve">
<style type="text/css">
	.st0{fill:#CCCCCC;}
	.st1{fill:#FEDC90;}
	.st2{fill-rule:evenodd;clip-rule:evenodd;fill:#D1884F;}
	.st3{fill:#633001;}
	.st4{fill-rule:evenodd;clip-rule:evenodd;fill:#633001;}
</style>
<circle class="st0" cx="937.5" cy="937.5" r="937.5"/>
<g>
	<path class="st1" d="M1526.6,1172.3c0,198.4-263.2,380.3-587.1,380.3s-597.1-182-597.1-380.3v-93.1h1184.3L1526.6,1172.3z"/>
	<path class="st2" d="M579.2,484c-16.2-72.9,40.5-141.7,113.4-141.7c64.8,0,117.4,52.6,117.4,117.4v250.8c40.5-4,81-8.1,125.5-8.1
		c40.5,0,71,4,111.5,8.1V449.7c0-64.8,62.6-117.4,127.4-117.4c72.9,0,139.6,68.8,127.4,141.7l-52.6,291.5
		c170.1,64.8,277.5,188.1,277.5,317.7c0,198.4-263.2,360.3-587.1,360.3s-597.1-162-597.1-360.3c0-129.6,113.4-242.9,283.4-307.7
		L579.2,484z"/>
	<path class="st3" d="M773.5,1054.9c0,52.6-28.3,97.2-64.8,97.2c-36.4,0-64.8-44.5-64.8-97.2c0-52.6,28.3-97.2,64.8-97.2
		S773.5,1002.3,773.5,1054.9z"/>
	<path class="st3" d="M1222.9,1054.9c0,52.6-28.3,97.2-64.8,97.2c-36.4,0-64.8-44.5-64.8-97.2c0-52.6,28.3-97.2,64.8-97.2
		S1222.9,1002.3,1222.9,1054.9z"/>
	<path class="st4" d="M526.5,492.1c-20.2-105.3,60.7-202.4,166-202.4c93.1,0,170.1,76.9,170.1,170.1v210.5c24.3,0,48.6-4,72.9-4
		c24.3,0,44.5,0,68.8,4V459.7c0-93.1,76.9-170.1,170.1-170.1c105.3,0,186.2,97.2,170.1,202.4L1300,739
		c157.9,68.8,279.4,190.3,279.4,340.1v93.1c0,125.5-81,230.8-198.4,299.6c-117.4,72.9-271.3,113.4-445.4,113.4
		s-328-40.5-445.4-113.4c-113.4-68.8-194.3-174.1-194.3-299.6v-93.1c0-149.8,117.4-271.3,275.3-340.1L526.5,492.1z M1239.1,771.5
		l52.6-291.5c12.1-72.9-40.5-141.7-117.4-141.7c-64.8,0-117.4,52.6-117.4,117.4v267.2c-16.2-4-36.4-4-52.6-4c-24.3,0-44.5-4-68.8-4
		s-48.6,0-72.9,4c-16.2,0-36.4,4-52.6,4V459.7c0-64.8-52.6-117.4-117.4-117.4c-72.9,0-129.6,68.8-113.4,141.7l52.6,291.5
		c-170.1,64.8-283.4,178.1-283.4,307.7v93.1c0,198.4,263.2,360.3,587.1,360.3s587.1-162,587.1-360.3v-93.1
		C1526.6,949.6,1413.2,836.3,1239.1,771.5z"/>
</g>
</svg>
