<?xml version="1.0" encoding="utf-8"?>
<!-- Generator: Adobe Illustrator 25.2.1, SVG Export Plug-In . SVG Version: 6.00 Build 0)  -->
<svg version="1.1" id="Celo_Rings" xmlns="http://www.w3.org/2000/svg" xmlns:xlink="http://www.w3.org/1999/xlink" x="0px" y="0px"
	 viewBox="0 0 950 950" style="enable-background:new 0 0 950 950;" xml:space="preserve">
<style type="text/css">
	.st0{opacity:0;fill:#FFFFFF;}
	.st1{fill:#FBCC5C;}
	.st2{fill:#35D07F;}
	.st3{fill:#5EA33B;}
</style>
<circle class="st0" cx="475" cy="475" r="475"/>
<path id="Bottom_Ring" class="st1" d="M390.5,791.8c128.3,0,232.3-104,232.3-232.3s-104-232.3-232.3-232.3s-232.3,104-232.3,232.3
	S262.2,791.8,390.5,791.8z M390.5,876.3c-174.9,0-316.8-141.8-316.8-316.8s141.8-316.8,316.8-316.8s316.8,141.8,316.8,316.8
	S565.5,876.3,390.5,876.3z"/>
<path id="Top_Ring" class="st2" d="M559.5,622.8c128.3,0,232.3-104,232.3-232.3s-104-232.3-232.3-232.3s-232.3,104-232.3,232.3
	S431.2,622.8,559.5,622.8z M559.5,707.3c-174.9,0-316.8-141.8-316.8-316.8S384.5,73.7,559.5,73.7s316.8,141.8,316.8,316.8
	S734.4,707.3,559.5,707.3z"/>
<path id="Rings_Overlap" class="st3" d="M569.9,707.3c22-26.6,37.7-57.8,46-91.3c33.5-8.4,64.6-24.1,91.3-46
	c-1.2,38.8-9.5,77-24.7,112.8C646.9,697.8,608.7,706.1,569.9,707.3z M334,334c-33.5,8.4-64.6,24.1-91.3,46
	c1.2-38.8,9.5-77,24.7-112.7c35.7-15,74-23.4,112.7-24.7C358.1,269.3,342.4,300.5,334,334z"/>
</svg>
