<?xml version="1.0" encoding="utf-8"?>
<!-- Generator: Adobe Illustrator 25.2.1, SVG Export Plug-In . SVG Version: 6.00 Build 0)  -->
<svg version="1.1" id="Layer_1" xmlns="http://www.w3.org/2000/svg" xmlns:xlink="http://www.w3.org/1999/xlink" x="0px" y="0px"
	 viewBox="0 0 1875 1875" style="enable-background:new 0 0 1875 1875;" xml:space="preserve">
<style type="text/css">
	.st0{fill:#555658;}
	.st1{fill-rule:evenodd;clip-rule:evenodd;fill:#FFFFFF;}
	.st2{fill:#FFFFFF;}
</style>
<circle class="st0" cx="937.5" cy="937.5" r="937.5"/>
<g id="Symbols">
	<g>
		<path id="Combined-Shape" class="st1" d="M1489.5,890.2c10.4-28.4,53.9-41.9,80.2-41.9h11.9v63c-15,0-30.2-0.8-44.6,4.1
			c-10,3.2-18.9,9.2-25.5,17.3c-12.2,16.5-11.2,26.7-12.2,42.1c-0.9,15-0.5,25.3-0.5,40.3v111.7H1430V851.1h59.7L1489.5,890.2z
			 M652.5,1061.6c-49.3,48.3-91.9,71.6-161.9,71.6c-116.6,0-197.2-81.5-197.2-196.2c0-117.8,91.3-195.1,198.3-195.1
			c62.4,0.1,121.7,27.4,162.4,74.7l-49.9,47.8c-33.7-35.8-70.6-54.5-114.2-54.5c-70,0-127.1,54-127.1,127.2
			c0,76.8,55,128.2,128.7,128.2c46.2,0,77.3-18.7,112.6-54L652.5,1061.6z M947.9,1071.9c-29.6,42.1-68.6,60.8-126.6,60.8
			c-87.7,0-144.2-64.3-144.2-145.3c0-75.3,54.5-144.8,143.2-144.8c87.2,0,146.3,62.3,146.3,149.5c0,6.2-0.5,9.3-0.5,15.6H744
			c6.7,41,37.9,63.8,77.3,63.8c29.6,0,49.3-8.3,68.5-27L947.9,1071.9z M897,953c-9.3-32.1-38.9-51.9-75.8-51.9
			c-34.2,0-60.7,17.1-74.2,51.9H897z M1001.5,743.3h69v382.1h-69V743.3z M1376.3,1071.9c-29.6,42.1-68.5,60.8-126.6,60.8
			c-87.7,0-144.2-64.3-144.2-145.3c0-75.3,54.5-144.8,143.2-144.8c87.2,0,146.3,62.3,146.3,149.5c0,6.2-0.5,9.3-0.5,15.6h-222.1
			c6.7,41,37.9,63.8,77.3,63.8c29.6,0,49.3-8.3,68.5-27L1376.3,1071.9z M1325.4,953c-9.3-32.1-38.9-51.9-75.8-51.9
			c-34.2,0-60.7,17.1-74.2,51.9H1325.4z"/>
	</g>
</g>
<path class="st2" d="M937.5,1763.7c-111.5,0-219.7-21.8-321.6-64.9c-98.4-41.6-186.7-101.2-262.6-177.1
	c-75.9-75.9-135.4-164.2-177.1-262.6c-43.1-101.9-64.9-210.1-64.9-321.6s21.8-219.7,64.9-321.6c41.6-98.4,101.2-186.7,177.1-262.6
	s164.2-135.4,262.6-177.1c101.9-43.1,210.1-64.9,321.6-64.9s219.7,21.8,321.6,64.9c98.4,41.6,186.7,101.2,262.6,177.1
	c75.9,75.9,135.4,164.2,177.1,262.6c43.1,101.9,64.9,210.1,64.9,321.6s-21.8,219.7-64.9,321.6c-41.6,98.4-101.2,186.7-177.1,262.6
	c-75.9,75.9-164.2,135.4-262.6,177.1C1157.2,1741.9,1049,1763.7,937.5,1763.7z M937.5,161.3c-428,0-776.2,348.2-776.2,776.2
	s348.2,776.2,776.2,776.2s776.2-348.2,776.2-776.2S1365.5,161.3,937.5,161.3z"/>
</svg>
