<?xml version="1.0" encoding="utf-8"?>
<!-- Generator: Adobe Illustrator 25.2.1, SVG Export Plug-In . SVG Version: 6.00 Build 0)  -->
<svg version="1.1" id="Calque_1" xmlns="http://www.w3.org/2000/svg" xmlns:xlink="http://www.w3.org/1999/xlink" x="0px" y="0px"
	 viewBox="0 0 30 30" style="enable-background:new 0 0 30 30;" xml:space="preserve">
<style type="text/css">
	.st0{fill:#CD0124;}
	.st1{fill:#FFFFFF;}
</style>
<circle class="st0" cx="15" cy="15" r="15"/>
<path class="st1" d="M23.1,6.2c-0.6,0-1,0.3-1.2,0.8H8.1C7.9,6.5,7.4,6.2,6.9,6.2c-0.7,0-1.3,0.6-1.3,1.3c0,0.7,0.6,1.3,1.3,1.3
	c0,0,0,0,0.1,0l3,6.4c-0.2,0.2-0.4,0.6-0.4,0.9c0,0.7,0.6,1.3,1.3,1.3c0,0,0,0,0.1,0l3,6.4c-0.2,0.2-0.4,0.6-0.4,0.9
	c0,0.7,0.6,1.3,1.3,1.3s1.3-0.6,1.3-1.3c0-0.4-0.1-0.7-0.4-0.9l3-6.4c0,0,0,0,0.1,0c0.7,0,1.3-0.6,1.3-1.3c0-0.4-0.1-0.7-0.4-0.9
	l3-6.4c0,0,0,0,0.1,0c0.7,0,1.3-0.6,1.3-1.3C24.5,6.8,23.9,6.2,23.1,6.2z M15,23.5C15,23.5,15,23.5,15,23.5l-3.1-6.4
	c0.2-0.2,0.4-0.6,0.4-0.9c0-0.1,0-0.2-0.1-0.3l2.8-2l2.8,2c0,0.1-0.1,0.2-0.1,0.3c0,0.4,0.1,0.7,0.4,0.9L15,23.5
	C15,23.5,15,23.5,15,23.5z M14.1,13.3l-2.5,1.8c-0.2-0.1-0.4-0.2-0.7-0.2c0,0,0,0-0.1,0L8.1,9L14.1,13.3z M8.4,8h13.1L15,12.7L8.4,8
	z M19.1,14.8c-0.3,0-0.5,0.1-0.7,0.2l-2.5-1.8l6-4.3L19.1,14.8C19.1,14.9,19.1,14.8,19.1,14.8z"/>
</svg>
