<?xml version="1.0" encoding="utf-8"?>
<!-- Generator: Adobe Illustrator 25.2.1, SVG Export Plug-In . SVG Version: 6.00 Build 0)  -->
<svg version="1.1" id="Layer_1" xmlns="http://www.w3.org/2000/svg" xmlns:xlink="http://www.w3.org/1999/xlink" x="0px" y="0px"
	 viewBox="0 0 2000 2000" style="enable-background:new 0 0 2000 2000;" xml:space="preserve">
<style type="text/css">
	.st0{fill:#070A0E;}
	.st1{fill-rule:evenodd;clip-rule:evenodd;fill:#00D395;}
</style>
<path class="st0" d="M1000,2000c552.3,0,1000-447.7,1000-1000S1552.3,0,1000,0S0,447.7,0,1000S447.7,2000,1000,2000z"/>
<path class="st1" d="M512.8,1386.9c-34.5-21.1-55.6-58.6-55.6-99v-225.4c0-26.8,21.8-48.5,48.6-48.3c8.5,0,17,2.3,24.3,6.6
	l508.7,296.6c29.8,17.3,48.1,49.1,48.1,83.6v233.5c0.1,32.1-25.8,58.1-57.9,58.1c-10.7,0-21.3-3-30.5-8.5L512.8,1386.9z M1271.1,959
	c29.8,17.3,48,49.3,48.1,83.6v474c0,14-7.5,26.9-19.7,33.7l-111.3,62.6c-1.4,0.8-2.9,1.4-4.5,1.8v-263.2c0-34-17.9-65.6-47.2-83.2
	l-446.7-267.2V704.1c0-26.8,21.8-48.5,48.6-48.3c8.5,0,17,2.3,24.3,6.6L1271.1,959z M1493.8,608.9c29.9,17.3,48.2,49.3,48.2,83.8
	v692.3c-0.1,14.2-8,27.2-20.4,34l-105.6,57V994c0-34-17.9-65.5-47-83.1L912.4,637.1V355.3c0-8.5,2.3-17,6.5-24.3
	c13.5-23.1,43.2-30.9,66.2-17.5L1493.8,608.9z"/>
</svg>
