<?xml version="1.0" encoding="utf-8"?>
<!-- Generator: Adobe Illustrator 25.2.1, SVG Export Plug-In . SVG Version: 6.00 Build 0)  -->
<svg version="1.1" id="Layer_1" xmlns="http://www.w3.org/2000/svg" xmlns:xlink="http://www.w3.org/1999/xlink" x="0px" y="0px"
	 viewBox="0 0 416.8 416.8" style="enable-background:new 0 0 416.8 416.8;" xml:space="preserve">
<style type="text/css">
	.st0{fill:#008DE4;}
	.st1{fill:#FFFFFF;}
</style>
<circle class="st0" cx="208.4" cy="208.4" r="208.4"/>
<g id="Layer_2_1_">
	<g id="Layer_1-2">
		<path class="st1" d="M247.4,90.2h-106l-8.8,49.1l95.6,0.1c47.1,0,61,17.1,60.6,45.5c-0.2,14.5-6.5,39.1-9.2,47.1
			c-7.3,21.3-22.2,45.5-78.1,45.4l-93-0.1l-8.8,49.2h105.7c37.3,0,53.1-4.4,70-12.1c37.3-17.3,59.4-54,68.3-102
			C357.1,141,340.6,90.2,247.4,90.2"/>
		<path class="st1" d="M95.7,183.7c-27.8,0-31.8,18.1-34.4,29c-3.5,14.3-4.6,20.1-4.6,20.1h108.5c27.8,0,31.8-18.1,34.4-29
			c3.5-14.3,4.6-20.1,4.6-20.1L95.7,183.7z"/>
	</g>
</g>
</svg>
