<?xml version="1.0" encoding="utf-8"?>
<!-- Generator: Adobe Illustrator 25.2.1, SVG Export Plug-In . SVG Version: 6.00 Build 0)  -->
<svg version="1.1" id="Layer_1" xmlns="http://www.w3.org/2000/svg" xmlns:xlink="http://www.w3.org/1999/xlink" x="0px" y="0px"
	 viewBox="0 0 479.8 479.8" style="enable-background:new 0 0 479.8 479.8;" xml:space="preserve">
<style type="text/css">
	.st0{fill:#002352;}
	.st1{fill:#0066CC;}
	.st2{fill:#FFFFFF;}
</style>
<g>
	<circle class="st0" cx="239.9" cy="239.9" r="219.5"/>
	<path class="st1" d="M239.9,479.8c-64.1,0-124.3-25-169.6-70.3C25,364.2,0,304,0,239.9S25,115.6,70.3,70.3
		C115.6,25,175.8,0,239.9,0s124.3,25,169.6,70.3c45.3,45.3,70.3,105.6,70.3,169.6s-25,124.3-70.3,169.6
		C364.2,454.8,304,479.8,239.9,479.8z M239.9,40.8c-109.8,0-199.1,89.3-199.1,199.1c0,109.8,89.3,199.1,199.1,199.1
		C349.7,439,439,349.7,439,239.9C439,130.1,349.7,40.8,239.9,40.8z"/>
</g>
<path class="st2" d="M116.9,182.9h155c0,0,53.5-0.5,16.5,68.5c0,0-27,54-94,53l36.1-92.2c1.5-3.7-0.3-8-4.1-9.5
	c-0.8-0.3-1.7-0.5-2.5-0.5l-47.5-0.8l-60,146c0,0,20,2,31,1l-6,15h28.3c1.6,0,3-1,3.6-2.5l5.1-13.5l12-1l-7,17H211
	c2.1,0,4-1.3,4.7-3.2l7.7-19.8c0,0,84-14,122-82c0,0,51-79-9-107c-11.7-5.4-24.2-8.7-37-10l7-17.3c0.7-1.7-0.1-3.7-1.8-4.4
	c-0.4-0.2-0.8-0.3-1.3-0.3h-25.9l-8,21h-11l6.2-16.3c0.7-1.8-0.3-3.8-2.1-4.5c-0.4-0.1-0.7-0.2-1.1-0.2h-26l-8,21h-80.8
	c-4.4,0-8.5,2.4-10.6,6.3L116.9,182.9z"/>
</svg>
