<?xml version="1.0" encoding="utf-8"?>
<!-- Generator: Adobe Illustrator 25.2.1, SVG Export Plug-In . SVG Version: 6.00 Build 0)  -->
<svg version="1.1" id="Layer_1" xmlns="http://www.w3.org/2000/svg" xmlns:xlink="http://www.w3.org/1999/xlink" x="0px" y="0px"
	 viewBox="0 0 24 24" style="enable-background:new 0 0 24 24;" xml:space="preserve">
<style type="text/css">
	.st0{fill:#F6F7F8;}
	.st1{fill:#1E1E1E;}
	.st2{fill:#E6007A;}
</style>
<circle class="st0" cx="11.9" cy="12.1" r="12"/>
<circle id="Layer_1_1_" class="st0" cx="12.2" cy="16.2" r="0.2"/>
<g>
	<path class="st1" d="M12.1,3C8.3,3,5.3,6,5.2,9.8c0,0.8,0.1,1.5,0.4,2.2c0.2,0.5,0.7,0.8,1.2,0.6c0.5-0.2,0.7-0.7,0.6-1.2
		c-0.2-0.6-0.3-1.2-0.3-1.7C7.2,7,9.5,4.8,12.2,4.9C14.9,5,17.1,7.3,17,10c-0.1,2.6-2.1,4.6-4.6,4.8c0,0-1,0.1-1.4,0.1
		c-0.2,0-0.4,0.1-0.5,0.1c0,0-0.1,0-0.1,0l0,0c0,0,0-0.1,0-0.1l0.1-0.8l0.9-4.1c0.1-0.5-0.2-1-0.7-1.1c-0.5-0.1-1,0.2-1.1,0.7
		c0,0-2.1,9.9-2.1,10c-0.1,0.5,0.2,1,0.7,1.1c0,0,0,0,0,0h0c0.5,0.1,1-0.2,1.1-0.6c0,0,0,0,0,0c0,0,0,0,0,0c0-0.1,0.3-1.4,0.3-1.4
		c0.2-1,1-1.8,2-1.9c0.2,0,1.1-0.1,1.1-0.1c3.8-0.4,6.5-3.7,6.1-7.5C18.4,5.7,15.5,3.1,12.1,3z"/>
	<path class="st2" d="M12.5,18.7c-0.6-0.1-1.2,0.3-1.3,0.9c0,0,0,0,0,0C11,20.3,11.4,20.9,12,21c0,0,0,0,0,0h0
		c0.6,0.1,1.2-0.2,1.3-0.8c0,0,0,0,0,0v-0.1C13.5,19.5,13.1,18.9,12.5,18.7z"/>
</g>
</svg>
