<?xml version="1.0" encoding="utf-8"?>
<!-- Generator: Adobe Illustrator 23.0.2, SVG Export Plug-In . SVG Version: 6.00 Build 0)  -->
<svg version="1.1" id="Layer_1" xmlns="http://www.w3.org/2000/svg" xmlns:xlink="http://www.w3.org/1999/xlink" x="0px" y="0px"
	 viewBox="0 0 127.7 128" style="enable-background:new 0 0 127.7 128;" xml:space="preserve">
<style type="text/css">
	.st0{fill:#FFFFFF;}
	.st1{fill-rule:evenodd;clip-rule:evenodd;fill:#0D022B;}
</style>
<circle class="st0" cx="63.8" cy="64" r="61.7"/>
<path class="st1" d="M89.2,38.6c-0.3-0.3-0.5-0.7-0.5-1.1s0.2-0.8,0.5-1.1c0.7-0.6,1.7-0.6,2.4,0c0.3,0.3,0.5,0.7,0.5,1.1
	s-0.2,0.8-0.5,1.1c-0.3,0.3-0.8,0.5-1.2,0.5C90,39.1,89.5,39,89.2,38.6z"/>
<path class="st1" d="M85,43.1c-0.3-0.3-0.5-0.7-0.5-1.1s0.2-0.8,0.5-1.1c0.6-0.6,1.6-0.6,2.2,0c0.3,0.3,0.5,0.7,0.5,1.1
	s-0.2,0.8-0.5,1.1c-0.3,0.3-0.7,0.5-1.1,0.5C85.6,43.6,85.3,43.4,85,43.1z"/>
<path class="st1" d="M80.4,47.5c-0.3-0.3-0.5-0.7-0.5-1.1s0.2-0.8,0.5-1.1c0.6-0.6,1.6-0.6,2.2,0c0.3,0.3,0.5,0.7,0.5,1.1
	s-0.2,0.8-0.5,1.1c-0.3,0.3-0.7,0.5-1.1,0.5C81,47.9,80.6,47.7,80.4,47.5z"/>
<path class="st1" d="M76,51.9c-0.3-0.3-0.5-0.7-0.5-1.1s0.2-0.8,0.5-1.1c0.7-0.6,1.7-0.6,2.4,0c0.3,0.3,0.5,0.7,0.5,1.1
	s-0.2,0.9-0.5,1.1c-0.3,0.3-0.8,0.5-1.2,0.5C76.7,52.3,76.3,52.3,76,51.9z"/>
<path class="st1" d="M71.7,56.3c-0.3-0.3-0.5-0.7-0.5-1.1s0.2-0.8,0.5-1.1c0.6-0.6,1.6-0.6,2.2,0c0.3,0.3,0.5,0.7,0.5,1.1
	S74.2,56,74,56.3c-0.3,0.3-0.7,0.5-1.1,0.5C72.5,56.8,72,56.7,71.7,56.3z"/>
<path class="st1" d="M66.7,59.6c0-0.5,0.2-0.8,0.5-1.1c0.6-0.6,1.6-0.6,2.2,0c0.3,0.3,0.5,0.7,0.5,1.1c0,0.5-0.2,0.8-0.5,1.1
	c-0.3,0.3-0.7,0.5-1.1,0.5s-0.8-0.2-1.1-0.5S66.7,60,66.7,59.6z"/>
<path class="st1" d="M58.4,69.3c-0.3-0.3-0.5-0.7-0.5-1.1s0.2-0.8,0.5-1.1c0.6-0.6,1.6-0.6,2.2,0c0.3,0.3,0.5,0.7,0.5,1.1
	s-0.2,0.8-0.5,1.1s-0.7,0.5-1.1,0.5C59.2,69.9,58.8,69.7,58.4,69.3z"/>
<path class="st1" d="M53.9,73.7c-0.3-0.3-0.5-0.7-0.5-1.1c0-0.5,0.2-0.8,0.5-1.1c0.7-0.6,1.7-0.6,2.4,0c0.3,0.3,0.5,0.7,0.5,1.1
	c0,0.5-0.2,0.8-0.5,1.1s-0.8,0.5-1.2,0.5C54.6,74.3,54.2,74.1,53.9,73.7z"/>
<path class="st1" d="M49.6,78.2c-0.3-0.3-0.5-0.7-0.5-1.1s0.2-0.9,0.5-1.1c0.6-0.6,1.6-0.6,2.2,0c0.3,0.3,0.5,0.7,0.5,1.1
	s-0.2,0.8-0.5,1.1c-0.3,0.3-0.7,0.5-1.1,0.5S50,78.5,49.6,78.2z"/>
<path class="st1" d="M45.2,82.6c-0.3-0.3-0.5-0.7-0.5-1.1c0-0.5,0.2-0.8,0.5-1.1c0.6-0.6,1.6-0.6,2.2,0c0.3,0.3,0.5,0.7,0.5,1.1
	c0,0.5-0.2,0.9-0.5,1.1c-0.3,0.3-0.7,0.5-1.1,0.5C45.9,83.1,45.5,83,45.2,82.6z"/>
<path class="st1" d="M40.7,87.1c-0.3-0.3-0.5-0.7-0.5-1.1c0-0.5,0.2-0.8,0.5-1.1c0.7-0.6,1.7-0.6,2.3,0c0.3,0.3,0.5,0.7,0.5,1.1
	c0,0.5-0.2,0.9-0.5,1.1c-0.3,0.3-0.8,0.5-1.2,0.5C41.3,87.5,40.9,87.4,40.7,87.1z"/>
<path class="st1" d="M36.3,91.5c-0.3-0.3-0.5-0.7-0.5-1.1c0-0.5,0.2-0.8,0.5-1.1c0.6-0.6,1.6-0.6,2.2,0c0.3,0.3,0.5,0.7,0.5,1.1
	c0,0.5-0.2,0.8-0.5,1.1c-0.3,0.3-0.7,0.5-1.1,0.5C37.1,92,36.7,91.8,36.3,91.5z"/>
<path class="st1" d="M38.5,38.6c0.3-0.3,0.5-0.7,0.5-1.1s-0.2-0.8-0.5-1.1c-0.6-0.6-1.6-0.6-2.2,0c-0.3,0.3-0.5,0.7-0.5,1.1
	s0.2,0.8,0.5,1.1c0.3,0.3,0.7,0.5,1.1,0.5C37.9,39.1,38.3,39,38.5,38.6z"/>
<path class="st1" d="M43,43.1c0.3-0.3,0.5-0.7,0.5-1.1s-0.2-0.8-0.5-1.1c-0.7-0.6-1.7-0.6-2.4,0C40.2,41.2,40,41.5,40,42
	s0.2,0.8,0.5,1.1c0.3,0.3,0.8,0.5,1.2,0.5C42.2,43.5,42.6,43.4,43,43.1z"/>
<path class="st1" d="M47.4,47.5c0.3-0.3,0.5-0.7,0.5-1.1s-0.2-0.8-0.5-1.1c-0.6-0.6-1.6-0.6-2.2,0c-0.3,0.3-0.5,0.7-0.5,1.1
	s0.2,0.8,0.5,1.1c0.3,0.3,0.7,0.5,1.1,0.5C46.7,47.9,47.1,47.7,47.4,47.5z"/>
<path class="st1" d="M51.8,51.9c0.3-0.3,0.5-0.7,0.5-1.1s-0.2-0.8-0.5-1.1c-0.6-0.6-1.6-0.6-2.2,0c-0.3,0.3-0.5,0.7-0.5,1.1
	s0.2,0.9,0.5,1.1c0.3,0.3,0.7,0.5,1.1,0.5C51.1,52.3,51.5,52.3,51.8,51.9z"/>
<path class="st1" d="M56.2,56.3c0.3-0.3,0.5-0.7,0.5-1.1s-0.2-0.8-0.5-1.1c-0.6-0.6-1.7-0.6-2.3,0c-0.3,0.3-0.5,0.7-0.5,1.1
	s0.2,0.9,0.5,1.1c0.3,0.3,0.8,0.5,1.2,0.5C55.5,56.8,55.9,56.7,56.2,56.3z"/>
<path class="st1" d="M61.1,59.6c0-0.5-0.2-0.8-0.5-1.1c-0.6-0.6-1.6-0.6-2.2,0c-0.3,0.3-0.5,0.7-0.5,1.1c0,0.5,0.2,0.8,0.5,1.1
	c0.3,0.3,0.7,0.5,1.1,0.5s0.8-0.2,1.1-0.5S61.1,60,61.1,59.6z"/>
<path class="st1" d="M65.1,65.2c0.3-0.3,0.5-0.7,0.5-1.1c0-0.5-0.2-0.8-0.5-1.1c-0.6-0.6-1.6-0.6-2.2,0c-0.3,0.3-0.5,0.7-0.5,1.1
	c0,0.5,0.2,0.8,0.5,1.1c0.3,0.3,0.7,0.5,1.1,0.5C64.4,65.6,64.8,65.4,65.1,65.2z"/>
<path class="st1" d="M69.5,69.3c0.3-0.3,0.5-0.7,0.5-1.1s-0.2-0.8-0.5-1.1c-0.7-0.6-1.7-0.6-2.3,0c-0.3,0.3-0.5,0.7-0.5,1.1
	s0.2,0.8,0.5,1.1s0.8,0.5,1.2,0.5C68.7,69.9,69.2,69.7,69.5,69.3z"/>
<path class="st1" d="M74,73.7c0.3-0.3,0.5-0.7,0.5-1.1c0-0.5-0.2-0.8-0.5-1.1c-0.6-0.6-1.6-0.6-2.2,0c-0.3,0.3-0.5,0.7-0.5,1.1
	c0,0.5,0.2,0.8,0.5,1.1c0.3,0.3,0.7,0.5,1.1,0.5C73.2,74.3,73.6,74.1,74,73.7z"/>
<path class="st1" d="M78.4,78.2c0.3-0.3,0.5-0.7,0.5-1.1s-0.2-0.9-0.5-1.1c-0.6-0.6-1.6-0.6-2.2,0c-0.3,0.3-0.5,0.7-0.5,1.1
	s0.2,0.8,0.5,1.1c0.3,0.3,0.7,0.5,1.1,0.5C77.7,78.7,78.1,78.5,78.4,78.2z"/>
<path class="st1" d="M82.5,82.6c0.3-0.3,0.5-0.7,0.5-1.1c0-0.5-0.2-0.8-0.5-1.1c-0.6-0.6-1.6-0.6-2.2,0c-0.3,0.3-0.5,0.7-0.5,1.1
	c0,0.5,0.2,0.9,0.5,1.1c0.3,0.3,0.7,0.5,1.1,0.5C81.8,83.1,82.3,83,82.5,82.6z"/>
<path class="st1" d="M87.2,87.1c0.3-0.3,0.5-0.7,0.5-1.1c0-0.5-0.2-0.8-0.5-1.1c-0.6-0.6-1.6-0.6-2.2,0c-0.3,0.3-0.5,0.7-0.5,1.1
	c0,0.5,0.2,0.9,0.5,1.1c0.3,0.3,0.7,0.5,1.1,0.5S87,87.4,87.2,87.1z"/>
<path class="st1" d="M91.6,91.5c0.3-0.3,0.5-0.7,0.5-1.1c0-0.5-0.2-0.8-0.5-1.1c-0.7-0.6-1.7-0.6-2.3,0c-0.3,0.3-0.5,0.7-0.5,1.1
	c0,0.5,0.2,0.8,0.5,1.1c0.3,0.3,0.8,0.5,1.2,0.5C90.8,92,91.2,91.8,91.6,91.5z"/>
<path class="st1" d="M49,39.8c4.5-3,9.4-4.3,14.9-4.4c5.3,0,10.3,1.4,14.9,4.4l9.5-9.5c-7.4-5.7-15.5-8.5-24.4-8.5
	s-17.1,2.8-24.3,8.5L49,39.8z"/>
<path class="st1" d="M39.5,78.8c-3-4.6-4.5-9.5-4.5-14.8c0-5.3,1.4-10.3,4.5-14.8l-9.4-9.4c-5.5,7.2-8.3,15.3-8.3,24.2
	c0,8.8,2.8,16.9,8.4,24.3L39.5,78.8z"/>
<path class="st1" d="M78.7,88.2c-4.5,3-9.4,4.6-14.8,4.7c-5.5,0-10.5-1.4-14.9-4.6l-9.5,9.4c7.3,5.7,15.5,8.6,24.4,8.5
	c8.9-0.1,16.9-3,24.2-8.5L78.7,88.2z"/>
<path class="st1" d="M88,49.1c3,4.6,4.6,9.6,4.5,15c-0.1,5.3-1.6,10.1-4.5,14.5l9.5,9.4c5.6-7.2,8.5-15.3,8.5-24.1
	c0.1-9-2.8-17.1-8.5-24.4L88,49.1z"/>
<path class="st1" d="M97.9,91.1c3.6,0,6.7,3,6.7,6.7c0,3.6-3,6.7-6.7,6.7c-3.6,0-6.7-3-6.7-6.7S94.2,91.1,97.9,91.1z"/>
<path class="st1" d="M30,91.1c3.6,0,6.6,3,6.6,6.7c0,3.6-3,6.7-6.6,6.7s-6.6-3-6.6-6.7S26.4,91.1,30,91.1z"/>
<path class="st1" d="M98,23.3c3.6,0,6.6,3,6.6,6.7s-3,6.7-6.6,6.7c-3.6,0-6.6-3-6.6-6.7S94.4,23.3,98,23.3z"/>
<path class="st1" d="M29.9,23.3c3.6,0,6.7,3,6.7,6.6s-3,6.6-6.7,6.6c-3.6,0-6.7-3-6.7-6.6S26.2,23.3,29.9,23.3z"/>
</svg>
