<?xml version="1.0" encoding="utf-8"?>
<!-- Generator: Adobe Illustrator 25.2.1, SVG Export Plug-In . SVG Version: 6.00 Build 0)  -->
<svg version="1.1" id="Layer_1" xmlns="http://www.w3.org/2000/svg" xmlns:xlink="http://www.w3.org/1999/xlink" x="0px" y="0px"
	 viewBox="0 0 25 25" style="enable-background:new 0 0 25 25;" xml:space="preserve">
<style type="text/css">
	.st0{opacity:0;fill:#FFFFFF;}
	.st1{fill:#3AB83A;}
	.st2{fill:#0B8311;}
	.st3{fill:#146714;}
</style>
<circle class="st0" cx="12.5" cy="12.5" r="12.5"/>
<g id="Layer_2_1_">
	<g id="svg8">
		<g id="layer5">
			<g id="g1627">
				<path id="path1599" class="st1" d="M5.9,13.5c2.3,1.2,4.8,2.5,6.7,3.6l6.6-3.6c-2.4,3.6-4.4,6.5-6.6,9.8
					C10.3,20,7.8,16.4,5.9,13.5z M6.1,12.5L12.5,9l6.3,3.4l-6.3,3.4L6.1,12.5z M12.5,7.9l-6.7,3.5l6.6-9.7l6.7,9.8L12.5,7.9z"/>
				<path id="path1593" class="st2" d="M12.5,17l6.6-3.6c-2.4,3.6-6.6,9.8-6.6,9.8V17z M12.5,9l6.3,3.4l-6.3,3.4L12.5,9z M12.5,7.9
					l0-6.2l6.7,9.8L12.5,7.9z"/>
				<path id="path1603" class="st2" d="M6.1,12.5l6.4,0.5l6.3-0.5l-6.3,3.4L6.1,12.5z"/>
				<path id="path1606" class="st3" d="M12.5,13l6.3-0.5l-6.3,3.4L12.5,13z"/>
			</g>
		</g>
	</g>
</g>
</svg>
