<?xml version="1.0" encoding="utf-8"?>
<!-- Generator: Adobe Illustrator 25.2.1, SVG Export Plug-In . SVG Version: 6.00 Build 0)  -->
<svg version="1.1" id="Layer_1" xmlns="http://www.w3.org/2000/svg" xmlns:xlink="http://www.w3.org/1999/xlink" x="0px" y="0px"
	 viewBox="0 0 300 300" style="enable-background:new 0 0 300 300;" xml:space="preserve">
<style type="text/css">
	.st0{fill:#FFFFFF;}
	.st1{fill:#007F88;}
</style>
<g>
	<circle class="st0" cx="150" cy="150" r="150"/>
	<g id="Layer_2_1_">
		<g id="Layer_1-2">
			<path class="st1" d="M41.4,67.8c-3.5,0.3-6.1,0.8-6,1.2c1.4,3.3,9.9,22.6,10,22.8c0.1,0.1,2.1,0.3,4.4,0.4
				c10.3,0.4,18.5,2.4,27.4,6.8c6.4,3.1,11.1,6.5,16,11.4c7.2,7.2,11.9,15.2,14.7,25c0.3,1.1,0.6,2.1,0.6,2.3c0,0.2-1.6,0.3-8.5,0.3
				c-4.7,0-8.8,0.1-9,0.2c-0.4,0.1-1.3,2.2-5.4,11.5c-2.7,6.2-5,11.5-5,11.7c-0.1,0.5,1.5,1,5.6,1.6c0.8,0.1,5.9,0.3,11.8,0.4
				l10.3,0.1l-0.6,2.1c-7,23.6-28.6,40.1-55,42.1c-1.5,0.1-3.5,0.2-4.4,0.2h-1.7l-5.1,11.7c-4.4,10-5.1,11.7-4.8,11.8
				c1.3,0.5,4.3,0.7,11.1,0.7c8.8,0,13-0.4,20.2-1.9c29.5-6,53.9-24.8,65-49.8c2.1-4.8,4.6-12.8,5.1-16.1l0.1-1h22.1l0.1,0.4
				c1.6,7.8,3.3,13.1,6.3,19.3c9,18.7,25.9,34.1,46.8,42.5c12.7,5.1,26.3,7.5,40,7.2c5.7-0.2,10.3-0.8,10-1.4
				c-0.2-0.5-9.9-22.7-9.9-22.8c-0.1-0.1-2.1-0.1-4.5-0.2c-6.8-0.3-12-1.1-17.8-2.7c-8.9-2.6-17.8-7.2-24.5-12.9
				c-8.5-7.2-14.7-16.1-17.9-26c-0.4-1.1-0.7-2.3-0.8-2.7l-0.1-0.6l8.3-0.1c4.6,0,8.5-0.1,8.6-0.2c0.3-0.1,10.2-22.7,10.2-23.2
				c0-0.3-2.5-1-4.8-1.4c-1.7-0.3-3.8-0.4-12.3-0.4l-10.2-0.1l0.4-1.4c5.7-20.1,23.1-36.1,45.6-41.7c5-1.2,9.8-1.9,16-2.1
				c3.7-0.2,4.2-0.2,4.4-0.5c0.2-0.2,2.5-5.4,5.1-11.5c3.2-7.4,4.7-11.1,4.6-11.2c-0.4-0.2-3.2-0.7-5.3-0.9
				c-3.1-0.3-12.2-0.3-16.2,0.1c-22.9,2-43.6,11.3-59,26.4c-9.5,9.2-16.1,19.6-20.2,31.5c-1.1,3-2.3,7.8-2.7,10.1l-0.2,1.4h-21.7
				l-0.1-0.4c-0.1-0.2-0.3-1.3-0.5-2.5c-3.2-15.9-12.3-31.4-25.1-42.9C98.4,79,80.2,70.9,60.3,68.4C54.2,67.7,46.5,67.4,41.4,67.8z"
				/>
		</g>
	</g>
</g>
</svg>
