<?xml version="1.0" encoding="utf-8"?>
<!-- Generator: Adobe Illustrator 23.0.2, SVG Export Plug-In . SVG Version: 6.00 Build 0)  -->
<svg version="1.1" id="Layer_1" xmlns="http://www.w3.org/2000/svg" xmlns:xlink="http://www.w3.org/1999/xlink" x="0px" y="0px"
	 viewBox="0 0 1875 1875" style="enable-background:new 0 0 1875 1875;" xml:space="preserve">
<style type="text/css">
	.st0{fill:#F6F7F9;}
	.st1{fill:none;}
	.st2{fill:url(#SVGID_1_);}
	.st3{fill:url(#SVGID_2_);}
	.st4{fill:#29ABE2;}
</style>
<circle class="st0" cx="937.5" cy="937.5" r="937.5"/>
<title>Dogecoin (DOGE)</title>
<g>
	<path class="st1" d="M1538.8,937.5c0-116.9-97.5-212-217.4-212c-31.8,0-87.6,15.7-173.1,90.6c-46,40.3-86,85.2-113.7,118.1
		c46.6,49.4,97.1,101.7,120,121.5c9.4,8.1,71.6,59.1,145.4,91.1c8.7,1.9,15.7,2.6,21.2,2.6
		C1441.2,1148.7,1538.8,1053.7,1538.8,937.5z"/>
	<path class="st1" d="M1152.3,1058.1c70.6,61.1,118.5,82.3,147.7,88.7c8.7,1.9,15.7,2.6,21.2,2.6c120-0.7,217.6-95.7,217.6-212
		c0-116.9-97.5-212-217.4-212c-31.8,0-87.6,15.7-173.1,90.6c-46,40.3-86,85.2-113.7,118.1C1033.9,935,1104.2,1016.4,1152.3,1058.1z"
		/>
	
		<linearGradient id="SVGID_1_" gradientUnits="userSpaceOnUse" x1="1132.5981" y1="1244.5178" x2="1625.6096" y2="733.9896" gradientTransform="matrix(1 0 0 -1 0 1876)">
		<stop  offset="0.21" style="stop-color:#F15A24"/>
		<stop  offset="0.6841" style="stop-color:#FBB03B"/>
	</linearGradient>
	<path class="st2" d="M1321.4,585c-83.4,0-174.4,42.7-270.5,127c-45.5,39.9-85,82.6-114.6,116.9c0.1,0.1,0.1,0.1,0.2,0.2
		c0.1-0.1,0.1-0.2,0.1-0.2s46.7,50.9,98.2,105.3c27.7-32.9,67.7-77.8,113.7-118.1c85.5-74.9,141.3-90.6,173.1-90.6
		c119.9,0,217.4,95.1,217.4,212c0,116.2-97.6,211.2-217.6,212c-5.5,0-12.5-0.7-21.2-2.6c35,15.1,72.5,26,108.3,26
		c219.8,0,262.7-143.4,265.6-153.6c6.5-26.3,10-53.7,10-81.8C1684,743.1,1521.3,585,1321.4,585z"/>
	<path class="st1" d="M336.2,937.5c0,116.9,97.5,212,217.4,212c31.8,0,87.6-15.7,173.1-90.6c46-40.3,86-85.2,113.7-118.1
		c-46.6-49.4-97.1-101.7-120-121.5c-9.4-8.1-71.6-59.1-145.4-91.1c-8.7-1.9-15.7-2.6-21.2-2.6C433.8,726.3,336.2,821.3,336.2,937.5z
		"/>
	<path class="st1" d="M722.7,816.9c-70.6-61.1-118.5-82.3-147.7-88.7c-8.7-1.9-15.7-2.6-21.2-2.6c-120,0.7-217.6,95.7-217.6,212
		c0,116.9,97.5,212,217.4,212c31.8,0,87.6-15.7,173.1-90.6c46-40.3,86-85.2,113.7-118.1c0.7-0.8,1.3-1.6,2-2.4
		C813.4,905.1,770.8,858.6,722.7,816.9z"/>
	
		<linearGradient id="SVGID_2_" gradientUnits="userSpaceOnUse" x1="-458.9796" y1="3008.134" x2="34.0323" y2="2497.606" gradientTransform="matrix(-1 0 0 1 283.4222 -1764.6165)">
		<stop  offset="0.21" style="stop-color:#ED1E79"/>
		<stop  offset="0.8929" style="stop-color:#522785"/>
	</linearGradient>
	<path class="st3" d="M553.6,1290c83.4,0,174.4-42.7,270.5-127c45.5-39.9,85-82.6,114.6-116.9c-0.1-0.1-0.1-0.1-0.2-0.2
		c-0.1,0.1-0.1,0.2-0.1,0.2s-46.7-50.9-98.2-105.3c-27.7,32.9-67.7,77.8-113.7,118.1c-85.5,74.9-141.3,90.6-173.1,90.6
		c-119.9,0-217.4-95.1-217.4-212c0-116.2,97.6-211.2,217.6-212c5.5,0,12.5,0.7,21.2,2.6c-35-15.1-72.5-26-108.3-26
		c-219.8,0-262.7,143.4-265.6,153.6c-6.5,26.3-10,53.7-10,81.8C191,1131.9,353.7,1290,553.6,1290z"/>
	<path class="st4" d="M1408,1169.3c-112.5-2.8-229.5-91.5-253.3-113.6c-61.6-57-203.9-211.3-215.1-223.4
		C835.3,715.6,694,585,553.6,585h-0.2h-0.2C382.6,585.9,239.2,701.4,201,855.7c2.9-10.2,59-156.3,265.5-151.2
		c112.5,2.8,230,92.7,253.9,114.7c61.6,57,203.9,211.3,215.1,223.4c104.3,116.7,245.6,247.3,386,247.3h0.2h0.2
		c170.7-0.9,314.1-116.4,352.3-270.7C1671.1,1029.5,1614.5,1174.4,1408,1169.3z"/>
</g>
</svg>
