<?xml version="1.0" encoding="utf-8"?>
<!-- Generator: Adobe Illustrator 25.2.1, SVG Export Plug-In . SVG Version: 6.00 Build 0)  -->
<svg version="1.1" id="Layer_1" xmlns="http://www.w3.org/2000/svg" xmlns:xlink="http://www.w3.org/1999/xlink" x="0px" y="0px"
	 viewBox="0 0 2500 2500" style="enable-background:new 0 0 2500 2500;" xml:space="preserve">
<style type="text/css">
	.st0{fill:#F6F7F8;}
</style>
<circle class="st0" cx="1250" cy="1250" r="1250"/>
<path d="M1689.9,449.2c65.9,0,119.5-54.4,119.5-121.3s-53.6-121.2-119.5-121.2c-65.9,0.3-119.5,54.7-119.5,121.6
	S1624,449.2,1689.9,449.2z M1725.2,764.4c56.3-0.4,101.6-46.4,101.2-102.7l0,0c0-56.5-45.3-102.7-101.2-102.7S1624,604.8,1624,661.7
	S1669.2,764.4,1725.2,764.4z M2002.9,804.6c55.6,0,100.9-45.9,100.9-102.5s-45.3-102.5-100.9-102.5c-55.6,0-100.9,45.9-100.9,102.5
	S1947.4,804.6,2002.9,804.6z M1969.6,1074.2c47.7,0,86.3-39.2,86.3-87.5c0-48.3-38.6-87.5-86.3-87.5c-47.7,0-86.3,39.2-86.3,87.5
	C1883.3,1035,1921.9,1074.2,1969.6,1074.2z M2192,1161.6c48,0,86.9-39.5,86.9-88.1s-38.9-88.1-86.9-88.1
	c-48.3,0.3-87.2,39.8-86.9,88.1c0,0,0,0,0,0l0,0C2105.1,1122.2,2144,1161.6,2192,1161.6z M1690.1,1037.8
	c49.1-0.3,88.8-40.4,88.5-89.5c0,0,0,0,0,0l0,0v-0.2c0-49.5-39.5-89.7-88.5-89.7s-88.5,40.1-88.5,89.7
	C1601.6,997.3,1641.2,1037.8,1690.1,1037.8z M1609.9,1252.3c41,0,74.1-33.7,74.1-75.1c0.3-41.1-32.7-74.7-73.9-75.1h-0.3
	c-41,0-74.1,33.7-74.1,75.1S1568.9,1252.3,1609.9,1252.3z M1888.1,1290.2c40.9-0.3,73.8-33.7,73.5-74.5c0,0,0,0,0,0l0,0v-0.2
	c0-41.3-32.8-74.7-73.5-74.7c-40.7,0-73.5,33.4-73.5,74.7c-0.5,40.7,32.1,74.2,72.8,74.7c0,0,0,0,0,0H1888.1L1888.1,1290.2z
	 M2109.9,1377.3c41,0,74.1-33.7,74.1-75.3s-33.1-75.3-74.1-75.3s-74.1,33.7-74.1,75.3c-0.4,41.2,32.6,74.9,73.8,75.3H2109.9z
	 M2000.4,1540.1c34.6,0,62.6-28.6,62.6-63.5s-28-63.5-62.6-63.5c-34.6,0-62.6,28.6-62.6,63.5S1965.7,1540.1,2000.4,1540.1z
	 M1777.5,1454.4c35.3,0,64.1-29.2,64.1-65.1c0-35.9-28.6-65.1-64.1-65.1c-35.5,0-64.1,29.2-64.1,65.1
	C1713.4,1425.2,1742.3,1454.4,1777.5,1454.4z M1499.7,1414.6c35.6-0.6,64-29.9,63.4-65.5c-0.5-34.8-28.6-62.8-63.4-63.4h-0.1
	c-35.6,0.6-64,29.9-63.4,65.5C1436.8,1386,1464.8,1414,1499.7,1414.6L1499.7,1414.6z M1654.2,1567.5c30.7,0,55.3-25.2,55.3-55.9
	c0.3-30.6-24.3-55.6-54.9-55.9h-0.4c-30.7,0-55.3,25.2-55.3,55.9c-0.3,30.5,24.1,55.6,54.7,55.9H1654.2z M1876.9,1654.7
	c30.7,0,55.9-25.2,55.9-56.5c0-31.3-24.9-56.5-55.9-56.5c-31.2,0-56.5,25.3-56.5,56.5C1820.4,1629.4,1845.7,1654.7,1876.9,1654.7z
	 M1751.4,1720.1c24.3,0,44.1-20,44.1-44.7c0.1-24.5-19.6-44.5-44.1-44.7c-24.3,0-44.1,20-44.1,44.7
	C1707.3,1699.9,1727,1719.8,1751.4,1720.1z M1632.6,1755.2c22.1-0.1,40-18.2,39.8-40.3c0,0,0,0,0,0v-0.1c0-22.5-18-40.4-39.8-40.4
	c-22.1,0.1-40,18.2-39.8,40.3c0,0,0,0,0,0v0.1c-0.4,21.9,17.1,40,39,40.4L1632.6,1755.2z M1528.4,1638.9c26.2,0,47.4-21.6,47.4-48
	c0-26.4-21.3-48-47.4-48s-47.4,21.6-47.4,48C1481,1617.2,1502.1,1638.6,1528.4,1638.9z M1375.7,1528.8c30.4,0,55.3-24.9,55.3-55.9
	c0-31-24.6-55.9-55.3-55.9c-30.4,0-55.3,24.9-55.3,55.9C1320.4,1503.5,1345,1528.5,1375.7,1528.8z M1828.7,2229.1
	c65.7,0,118.9-54.1,118.9-120.7c0-66.6-53.2-120.7-118.9-120.7c-65.7,0-118.9,54.1-118.9,120.7
	C1709.8,2175,1763,2229.1,1828.7,2229.1L1828.7,2229.1z M1526.7,2076.3c54.7,0,99.1-45,99.1-100.6c0-55.6-44.4-100.6-99.1-100.6
	c-54.7,0-99.1,45-99.1,100.6S1471.9,2076.3,1526.7,2076.3z M1354.2,2297.4c55.3,0,100-45.3,100-101.5c0-55.9-44.7-101.5-100-101.5
	s-100,45.3-100,101.5C1253.8,2251.5,1298.5,2297,1354.2,2297.4L1354.2,2297.4z M1302.3,1890.1c48.2-0.3,87-39.7,86.7-87.9
	c0,0,0,0,0,0l0,0c0.3-48.2-38.5-87.5-86.7-87.9c0,0,0,0,0,0l0,0c-48.2,0.3-87,39.7-86.7,87.9c0,0,0,0,0,0l0,0
	C1215.7,1850.6,1254.6,1890.1,1302.3,1890.1L1302.3,1890.1z M1130.2,2114.2c47.7,0,86.3-39.2,86.3-87.5c0-48.3-38.6-87.5-86.3-87.5
	c-47.7,0-86.3,39.2-86.3,87.5c-0.5,47.9,37.9,87,85.8,87.5H1130.2z M944.7,2266.2c47.7,0,86.1-39.2,86.1-87.3
	c0-48.3-38.6-87.3-86.1-87.3c-47.7,0-86.1,39.2-86.1,87.3S897.2,2266.2,944.7,2266.2L944.7,2266.2z M790.3,2068.3
	c40.8-0.4,73.7-33.7,73.5-74.5c0-41-32.8-74.5-73.5-74.5c-41.1,0.6-74,34.5-73.3,75.6C717.5,2035.2,750,2067.7,790.3,2068.3z
	 M976.1,1915.6c40.9-0.3,73.8-33.6,73.5-74.5c0-41.3-32.8-74.5-73.5-74.5c-41.1,0.6-74,34.3-73.5,75.5c0.5,40.3,33,72.8,73.2,73.5
	L976.1,1915.6z M1149.5,1691.5c40.9-0.3,73.8-33.7,73.5-74.5c0,0,0,0,0,0l0,0v-0.2c0-41.3-32.8-74.7-73.5-74.7
	c-40.9,0.3-73.8,33.7-73.5,74.5c0,0,0,0,0,0l0,0v0.2C1076,1658.1,1108.8,1691.5,1149.5,1691.5z M884.3,1722.4
	c35.3,0,63.8-28.9,63.8-64.7c0-35.9-28.6-64.7-63.8-64.7s-63.8,28.9-63.8,64.7C820.4,1693.5,849,1722.4,884.3,1722.4z M699.4,1874.5
	c35.1-0.2,63.4-28.8,63.2-63.9c0,0,0,0,0,0l0,0v-0.2c0.3-35.1-27.8-63.8-62.9-64.1h-0.4c-35.1,0.2-63.4,28.8-63.2,63.9c0,0,0,0,0,0
	l0,0v0.2C635.9,1845.6,664.2,1874.3,699.4,1874.5C699.4,1874.5,699.4,1874.5,699.4,1874.5L699.4,1874.5z M656.9,1696.2
	c30.3-0.2,54.8-25,54.7-55.3c0-30.7-24.6-55.3-54.7-55.3s-54.7,24.9-54.7,55.3C602.2,1671.6,626.8,1696.2,656.9,1696.2z
	 M655.3,1539.7c26.1-0.2,47.1-21.6,46.8-47.7c0,0,0,0,0,0l0,0c0-26.2-21-47.7-46.8-47.7s-46.8,21.3-46.8,47.7
	C608.5,1518.5,629.5,1539.7,655.3,1539.7z M681.1,1409.6c22.2,0,39.8-18.2,39.8-40.4c0-22.2-18-40.4-39.8-40.4
	c-22.2,0-39.8,18.2-39.8,40.4C641.2,1391.4,658.9,1409.6,681.1,1409.6z M840.5,1387.8c26.2,0,47.4-21.6,47.4-48
	c0-26.4-21.3-48-47.4-48c-26.2,0-47.4,21.6-47.4,48C792.9,1366.1,814.1,1387.6,840.5,1387.8z M1015.4,1319.7
	c30.4,0,55.3-25.2,55.3-55.9c0.3-30.6-24.3-55.6-54.9-55.9h-0.4c-30.4,0-55.3,25.2-55.3,55.9c-0.2,30.6,24.4,55.7,55,55.9
	c0,0,0,0,0,0H1015.4z M1057.1,1497.1c34.7-0.1,62.7-28.2,62.6-62.9c-0.1-34.7-28.2-62.7-62.9-62.6c-34.7,0.1-62.7,28.2-62.6,62.9
	c0.1,34.6,28.1,62.6,62.6,62.6H1057.1z M842.7,1544.4c30.4,0,54.7-24.9,54.7-55.6s-24.6-55.6-54.7-55.6c-30.4,0.2-54.9,25-54.7,55.4
	c0,0,0,0,0,0v0.3c-0.4,30.3,23.8,55.2,54.1,55.6c0,0,0,0,0,0L842.7,1544.4L842.7,1544.4z M237.9,1461.9
	c65.3,0,118.5-53.8,118.5-120.1c0-66.3-53.2-120.1-118.5-120.1s-118.5,53.9-118.5,120.2S172.6,1461.9,237.9,1461.9L237.9,1461.9z
	 M507,1247.4c56.2,0,101.5-46.2,101.5-103.1s-45.6-103.1-101.5-103.1c-56.4,0.4-101.9,46.4-101.5,102.9v0.2
	C405.5,1201.6,451.1,1247.4,507,1247.4L507,1247.4z M402,983.1c55.9,0,100.9-45.9,100.9-102.5S457.6,778.1,402,778.1
	c-56.1,0.4-101.3,46.2-100.9,102.3c0,0,0,0,0,0v0.2c-0.6,56,44.4,101.9,100.4,102.5L402,983.1z M661.4,857.8
	c47.7,0,86.7-39.2,86.7-87.9s-38.9-87.9-86.7-87.9c-47.8,0-86.7,39.2-86.7,87.9S613.7,857.8,661.4,857.8L661.4,857.8z M767.4,1121.6
	c48,0,86.9-39.5,86.9-88.1c0-48.6-38.9-88.1-86.9-88.1s-86.9,39.5-86.9,88.1C680.5,1082.1,719.3,1121.6,767.4,1121.6z
	 M1003.4,1066.8c41.1-0.3,74.2-33.9,73.9-75.1l0,0c0.6-40.8-31.9-74.4-72.7-75c-40.8-0.6-74.4,31.9-75,72.7c0,0.8,0,1.5,0,2.3l0,0
	c-0.5,41,32.4,74.6,73.3,75.1L1003.4,1066.8z M1207.3,1067.5c35.3,0,63.8-28.9,63.8-64.5c0-35.6-28.6-64.5-63.8-64.5
	c-35.6,0-64.5,28.9-64.5,64.5C1142.9,1038.6,1171.7,1067.5,1207.3,1067.5L1207.3,1067.5z M1375.8,1106.3c29.5,0,53.8-24.3,53.8-54.4
	s-24-54.4-53.8-54.4c-29.9,0.2-53.9,24.6-53.8,54.4C1322.3,1081.6,1346.2,1106.3,1375.8,1106.3z M1397.7,907.7
	c26-0.2,47-21.4,46.8-47.4c0-26.2-21-47.4-46.8-47.4c-25.8,0-46.8,21.3-46.8,47.4C1350.8,886.3,1371.7,907.5,1397.7,907.7z
	 M1268.1,842.8c29.8-0.1,53.9-24.3,53.8-54.1s-24.3-53.9-54.1-53.8c-29.8,0.1-53.9,24.3-53.8,54.1c0.1,29.7,24.1,53.8,53.8,53.8
	H1268.1z M1101.6,803.4c35.1-0.3,63.4-29,63.2-64.1c0-35.6-28.3-64.1-63.2-64.1s-63.2,28.9-63.2,64.1c-0.3,35.1,27.9,63.8,63.1,64.1
	c0,0,0,0,0,0H1101.6z M898.1,803.6c41,0,74.1-33.7,74.1-75.1s-33.1-75.1-74.1-75.1c-41,0-74.1,33.7-74.1,75.1
	C823.8,769.7,856.9,803.2,898.1,803.6z M624,615.9c46.5,0,83.9-38,83.9-85.1s-37.7-85.1-83.9-85.1c-46.5,0-83.9,38-83.9,85.1
	S577.7,615.9,624,615.9z M859.9,564.3c41,0,74.1-33.7,74.1-75.1s-33.1-75.1-74.1-75.1c-41,0-74.1,33.7-74.1,75.1
	S818.9,564.3,859.9,564.3z M1063.7,565.2c35.3,0,63.8-28.9,63.8-64.7s-28.6-64.7-63.8-64.7c-35.5,0.2-64,29.1-63.8,64.5c0,0,0,0,0,0
	l0,0v0.2C999.7,536,1028.3,564.9,1063.7,565.2z M1231,603.8c29.8,0,53.8-24.3,53.8-54.4s-24-54.4-53.8-54.4
	c-30.1,0-54.4,24.4-54.4,54.4S1200.9,603.8,1231,603.8z M1359.5,670.5c26.7-0.2,48.2-22,48-48.6c0-27-21.6-48.6-48-48.6
	c-26.4,0-48,21.9-48,48.6S1333,670.5,1359.5,670.5z M1453.7,747c21.9-0.1,39.6-18.1,39.5-40c0,0,0,0,0,0l0,0v-0.1
	c0.2-21.9-17.4-39.9-39.4-40.1c0,0,0,0,0,0h-0.1c-21.9,0.1-39.6,18.1-39.5,40c0,0,0,0,0,0l0,0v0.1c-0.3,21.8,17.1,39.7,38.9,40.1
	c0,0,0,0,0,0L1453.7,747L1453.7,747z"/>
</svg>
