<?xml version="1.0" encoding="utf-8"?>
<!-- Generator: Adobe Illustrator 25.2.1, SVG Export Plug-In . SVG Version: 6.00 Build 0)  -->
<svg version="1.1" id="Layer_1" xmlns="http://www.w3.org/2000/svg" xmlns:xlink="http://www.w3.org/1999/xlink" x="0px" y="0px"
	 viewBox="0 0 1200 1200" style="enable-background:new 0 0 1200 1200;" xml:space="preserve">
<style type="text/css">
	.st0{fill:#FFFFFF;}
</style>
<circle cx="600" cy="600" r="600"/>
<g>
	<path class="st0" d="M241,985.7c-1.1-1.1-3.9-3.6-6.4-5.8l-4.5-3.7l-6.3,6.6c-3.4,3.6-8.9,9.3-12.2,12.7l-5.8,6.2l5.8,5.9
		c3.2,3.2,6.1,5.9,6.4,5.9c0.3,0,6-5.8,12.7-12.8C242.6,987.9,242.7,987.8,241,985.7z"/>
	<path class="st0" d="M292.8,1028.3c-3.2-2.2-6.4-4.2-7.1-4.5c-1.2-0.4-6.8,6.4-21.3,26c-1,1.5-0.3,2.4,6.1,6.8
		c6.7,4.7,7.4,4.9,8.7,3.3c1.4-1.6,17.4-24.1,18.8-26.4C298.3,1032.8,296.1,1030.7,292.8,1028.3z"/>
	<path class="st0" d="M385.1,1081.4c-3.8-1.7-7.3-3-7.7-3c-0.6,0-11.6,23.5-14.7,31.1c-0.4,1,0.5,1.5,10.1,5.9l5,2.3l7.1-15.4
		c3.8-8.5,7-15.9,7-16.5C392,1085,388.9,1083.1,385.1,1081.4z"/>
	<path class="st0" d="M352.5,1065.4l-7.2-3.5l-8.8,15.2c-8.2,14.5-8.6,15.3-6.9,16.7c2,1.4,12.8,7.1,13.6,7.1
		c0.6,0,16.3-30,16.3-31.2C359.6,1069.3,356.3,1067.3,352.5,1065.4z"/>
	<path class="st0" d="M314.4,1043l-9.3,14.8c-5.2,8.1-9.4,15-9.4,15.4c0.1,0.8,13.1,9,14.4,9c0.8,0,6.9-10.1,15.6-25.8l2.5-4.4
		l-6.8-4.5L314.4,1043z"/>
	<path class="st0" d="M263.5,1005.6c-3.1-2.5-5.9-4.5-6.2-4.7c-0.3-0.1-5.8,5.8-12.2,13.3c-11.2,13-11.5,13.5-9.6,14.9
		c1.1,0.9,4.2,3.4,7,5.8l4.9,4.2l10.6-13.4c5.8-7.4,10.7-14,10.8-14.6C268.9,1010.5,266.5,1008,263.5,1005.6z"/>
	<path class="st0" d="M1080.4,381.7c0,0.7,1.4,4.1,3,7.7c2.4,5.1,3.4,6.5,4.7,6c10.5-3.8,30.3-11.7,30.9-12.3c0.4-0.3-0.9-4.2-3-8.7
		c-2-4.4-3.8-8.1-4.1-8C1109.2,366.9,1080.5,380.9,1080.4,381.7z"/>
	<path class="st0" d="M211.4,956.2l-5.7-5.7l-9.5,8.3c-5.2,4.5-11.3,9.7-13.5,11.5l-3.8,3.3l6.1,6.8l6.1,6.8l13.1-12.7l13-12.7
		L211.4,956.2z"/>
	<path class="st0" d="M129.9,838.6c-2.1-3.9-4.2-7.1-4.8-7.1c-1.2,0.1-5.6,2.3-20.9,10.4l-10,5.4l3.5,7.3c2.1,4,4,7.4,4.5,7.4
		c1.1,0,27.1-13.3,29.6-15C133.6,845.7,133.5,845.4,129.9,838.6z"/>
	<path class="st0" d="M171.5,907l-4.5-6.3c-2.5-3.4-4.9-6.3-5.5-6.3c-1.5,0.1-29.1,18-29.1,19c0,0.4,2.3,3.7,4.9,7.5l5,6.9
		l14.6-10.4L171.5,907z"/>
	<path class="st0" d="M191.5,936.1c0.8-1,0.1-2.7-3.5-7.3c-2.5-3.2-4.9-5.9-5.3-5.9c-0.7,0-23.5,17.5-27,20.7
		c-0.9,0.8,9.2,14.8,10.4,14.4C166.9,957.8,190,937.9,191.5,936.1z"/>
	<path class="st0" d="M418.6,1095c-3.5-1.2-6.9-2.5-7.5-2.7s-1.4,0.4-1.7,1.4c-0.2,1-3.1,8.5-6.4,16.7l-5.9,14.9l8.4,3
		c4.5,1.7,8.5,3,8.7,3c0.5,0,11.6-33.5,11.2-33.8C425.2,1097.5,422.1,1096.3,418.6,1095z"/>
	<path class="st0" d="M1114.5,484c1.3,7.3,2.8,13.9,3.2,14.4c0.4,0.6,34.1-4.7,35.1-5.5c0.2-0.2-2.5-13.2-3.2-15.6
		c-0.3-1-1.4-1.7-2.7-1.6C1142.5,475.8,1114.3,483.1,1114.5,484z"/>
	<path class="st0" d="M1137.3,552.5l-12.3,0.9l0.3,5.6c0.2,3,0.6,7,0.9,8.7c0.6,3.7-0.7,3.6,21,2c16.4-1.4,15.5-0.6,14.3-12.2
		l-0.7-6.2l-5.5,0.2C1152.3,551.4,1144.1,551.9,1137.3,552.5z"/>
	<path class="st0" d="M1122.1,526.9l0.9,8.1l17.8-2.3c9.7-1.3,17.8-2.4,17.9-2.5s-0.3-4-0.9-8.8c-0.7-4.6-1.4-8.7-1.7-8.9
		c-0.4-0.3-34.8,5.7-34.9,6C1121.2,518.8,1121.6,522.4,1122.1,526.9z"/>
	<path class="st0" d="M114.8,806.4c-1.7-3.8-3.5-7-4.2-7.1c-1.4-0.2-30.2,11.1-31.6,12.4c-1.1,1.1,5.8,16.4,7.2,16
		c1.8-0.4,29.9-13.2,30.7-13.9C117.3,813.5,116.4,810.2,114.8,806.4z"/>
	<path class="st0" d="M1096.7,422.6l2.5,7.5l15.6-5.2c8.6-2.9,16.1-5.6,16.9-6c1.2-0.8,1-2.2-1.5-9c-1.6-4.4-3.4-8.1-4-8
		c-1.6,0.2-30.5,11.7-31.3,12.6C1094.5,414.8,1095.3,418.5,1096.7,422.6z"/>
	<path class="st0" d="M1109.9,464.1c0.5,0.5,33-8.6,33.9-9.3c0.2-0.3-0.6-3.8-1.8-8c-1.2-4.1-2.5-7.8-2.7-8
		c-0.5-0.5-33.1,8.6-33.9,9.2C1105.1,448.6,1109.1,463.3,1109.9,464.1z"/>
	<path class="st0" d="M452.1,1106.1c-4.2-1.2-7.9-2.2-8.2-2.2c-0.7,0-9.9,33.4-9.3,34c0.3,0.3,4,1.6,8.3,2.9l7.7,2.2l4.6-16.3
		c2.7-8.9,4.7-16.8,4.7-17.4C459.9,1108.6,456.4,1107.1,452.1,1106.1z"/>
	<path class="st0" d="M498.6,62.7c-3.1-18.2-1.8-16.7-14-14.3c-5.7,1.3-7.1,1.9-6.7,3.1c0.3,0.9,2.2,8.7,4.1,17.3
		c2,8.7,3.6,15.8,3.7,15.9s3.8-0.5,8.3-1.4c6.5-1.3,8-1.9,7.7-3.1C501.6,79.4,500.1,71.5,498.6,62.7z"/>
	<path class="st0" d="M421.2,65.5c-0.1,0.1-4,1.6-8.7,3.2l-8.6,3l6.3,15.7c3.4,8.7,6.4,16.1,6.6,16.6c0.3,0.9,13.3-3,14.8-4.3
		c0.4-0.5-1.7-8.4-4.8-17.6C423.9,73,421.3,65.5,421.2,65.5z"/>
	<path class="st0" d="M457.6,55c-0.3-0.3-15.5,4.3-16,4.8c-0.6,0.5,8.4,32.3,9.3,33.3c0.5,0.6,15-2.7,16.5-3.5
		c0.1-0.1-2.1-7.9-4.7-17.3C460,62.9,457.7,55,457.6,55z"/>
	<path class="st0" d="M490.6,1115.8c-5.5-1.5-12.1-2.9-12.1-2.6c0,0.1-1.8,7.9-3.9,17.2c-2.2,9.3-3.8,17.2-3.5,17.4
		c0.7,0.7,16.6,4.3,17,3.8c0.5-0.4,6.2-31.6,6.2-33.6C494.3,1117.4,492.6,1116.3,490.6,1115.8z"/>
	<path class="st0" d="M150.9,877.1c0.2-0.1-1.5-3.3-3.7-7.2c-2.3-3.8-4.2-7-4.3-7s-15.8,8.9-24.4,13.9l-6.6,3.8l4.5,7.9
		c4.3,7.4,4.7,7.8,6.7,6.5c1.1-0.7,7.8-4.9,14.8-9.4S150.8,877.3,150.9,877.1z"/>
	<path class="st0" d="M165,300c0.8,0.3,3.2-2.5,6-6.4l4.6-6.8l-13.5-9.6c-7.5-5.4-14.1-10-14.7-10.4c-1-0.6-10.2,11.1-10.2,13
		C137.3,280.6,162.7,299.1,165,300z"/>
	<path class="st0" d="M187.4,270.8c0.5-0.2,3-2.9,5.5-6c4.5-5.6,4.6-5.8,2.9-7.5c-1.1-1-6.8-6-12.9-11.2c-6-5.2-11.4-9.5-12-9.5
		c-1.1,0-10.9,11.4-10.9,12.8C159.9,250.5,186.4,271.1,187.4,270.8z"/>
	<path class="st0" d="M113.7,354.5l15.7,7.9l3.5-7c2.9-5.8,3.2-7.3,2.2-8.3c-0.7-0.7-7.6-4.7-15.2-9.1c-10-5.7-14.3-7.6-14.8-6.8
		c-1.5,1.8-7.1,13.3-7.1,14.5C98,346.2,105.1,350.2,113.7,354.5z"/>
	<path class="st0" d="M98,388.1l16.2,6.4l2.7-6c4.2-9.2,4.2-9.2,1.7-10.2c-1.3-0.5-8.7-3.7-16.3-7.3l-13.9-6.4l-3.7,8.3
		c-2,4.5-3.4,8.5-3.2,8.6C81.5,381.6,89,384.6,98,388.1z"/>
	<path class="st0" d="M200.1,235.2l10.1,9.7l6-6.4l5.9-6.3l-12.7-12.1c-7-6.6-12.9-12.1-13.2-12.1s-3.1,2.7-6.4,5.9l-5.8,5.9
		l2.9,2.8C188.6,224.1,194.5,229.7,200.1,235.2z"/>
	<path class="st0" d="M116.8,313.3c0.8,0.4,7.8,4.5,15.6,9l14.2,8.3l4.3-6.9c2.3-3.8,3.8-7.2,3.4-7.6c-0.4-0.4-7.1-4.7-14.8-9.7
		c-7.8-4.9-14.2-8.9-14.3-8.9c-0.1,0-2.4,3.3-5,7.5C116.5,310.9,115.8,312.7,116.8,313.3z"/>
	<path class="st0" d="M384.1,118.5c0.4,0,3.8-1.5,7.7-3.2l6.9-3.1l-6.4-16.5c-3.5-9-6.8-16.4-7.1-16.4c-1,0.1-14.3,6.1-15.1,6.9
		C369.2,86.9,383,118.5,384.1,118.5z"/>
	<path class="st0" d="M351.1,135l7.7-3.8c4.2-2.2,7.7-4,7.7-4.2s-3.6-7.5-8.2-16.1l-8.1-15.7l-7.7,3.8l-7.6,3.8l8.1,16.1L351.1,135z
		"/>
	<path class="st0" d="M226.1,208.8l9.9,10.1l5.7-5.7l5.7-5.7l-8.3-9.5c-4.5-5.2-9.7-11.3-11.6-13.5l-3.4-4l-6.6,6l-6.5,6l2.6,3
		C215,197.3,220.6,203.2,226.1,208.8z"/>
	<path class="st0" d="M320.6,152.6l6.7-4c3.6-2.2,6.7-4.4,6.7-4.9c0-0.4-3.8-7.4-8.5-15.4c-4.6-8.1-8.8-14.7-9.1-14.7
		c-1.3,0-14.4,8.5-14.3,9.2c0,0.5,4.1,7.4,9.2,15.3L320.6,152.6z"/>
	<path class="st0" d="M261.8,193.3c1,0.9,2.6,0.1,7-3.4c3.1-2.6,5.8-4.9,6-5.3c0.1-0.4-4.4-6.7-10.1-14
		c-5.8-7.3-10.8-13.3-11.2-13.5c-1.1-0.4-14,9.7-13.7,10.7C240.2,168.8,260,191.9,261.8,193.3z"/>
	<path class="st0" d="M83.1,704c-0.6-3.7-1.4-7.3-1.8-7.9c-0.4-0.7-6.2,0-17.5,2.1c-9.3,1.7-17.1,3.2-17.4,3.5
		c-0.5,0.5,2.7,16.2,3.3,17c0.6,0.5,33.2-6.8,34-7.6C84.1,710.9,83.8,707.7,83.1,704z"/>
	<path class="st0" d="M74.2,640.2c0.2-0.2,0.1-3.9-0.3-8.3l-0.7-8l-8.6,0.2c-4.6,0.1-12.8,0.4-18,0.5l-9.5,0.4l0.6,8.6
		c0.3,4.7,0.8,8.9,1.2,9.1C39.5,643.5,73.4,641,74.2,640.2z"/>
	<path class="st0" d="M78.5,676.7l-0.7-4.4c-0.3-2.5-0.8-6.4-1.2-8.8c-0.6-4.8,1.3-4.7-20.5-1.8l-15.7,2.1l1,8.1
		c0.6,4.4,1.3,8.4,1.6,8.7c0.4,0.3,8.5-0.4,18-1.7L78.5,676.7z"/>
	<path class="st0" d="M83.7,422.4c8.7,2.9,16.2,5.4,16.7,5.6c0.6,0.2,2.1-2.7,3.3-6.3c1.2-3.6,2.5-7.2,2.7-7.8
		c0.3-0.7-5.5-3.5-15-7.3c-8.6-3.3-16-6.3-16.6-6.6c-0.6-0.2-1.5,0.4-1.9,1.4c-1.6,3.9-5.4,15.4-5.1,15.5
		C67.9,417.1,75.1,419.5,83.7,422.4z"/>
	<path class="st0" d="M93.1,745.5c0-0.6-1-4.2-2.3-8.1l-2.2-7l-16.7,3.9c-9.1,2.2-16.9,4-17.1,4.3c-0.6,0.4,2.9,14.5,3.9,16.1
		C59.6,756.4,93.1,747.3,93.1,745.5z"/>
	<path class="st0" d="M65,604.7l7.9-0.7l0.3-8.2l0.3-8.3H60.4c-7.2,0-15.4-0.3-18.2-0.6l-5.2-0.7v9.5v9.4h10.1
		C52.6,605.3,60.7,605,65,604.7z"/>
	<path class="st0" d="M104.6,780.9l-2.7-7.9c-1.4-4.3-3-8-3.5-8.1c-1.8-0.5-32.8,10.7-32.8,11.8c0,2.7,5.3,15.4,6.3,15
		c0.6-0.2,8.3-2.8,16.9-5.6L104.6,780.9z"/>
	<path class="st0" d="M73.4,568.3c0.4-0.5,1-4.4,1.2-8.8l0.3-7.9l-14.3-1.2c-7.9-0.6-15.8-1.2-17.8-1.2l-3.5-0.1l-0.7,6
		c-0.3,3.3-0.6,7.3-0.6,8.8v2.7l17.3,1.2C64.9,568.6,72.9,568.7,73.4,568.3z"/>
	<path class="st0" d="M81.7,497.1c1.2,0,4.7-14.8,3.7-15.8c-0.5-0.3-8-2.3-16.8-4.2c-8.8-2-16.3-3.5-16.8-3.5
		c-1,0-4.6,16.4-3.8,17.2C48.5,491.2,79.6,497,81.7,497.1z"/>
	<path class="st0" d="M90.2,462.7c0.9,0,5.2-15.6,4.5-16.3c-0.3-0.3-6-2.2-12.7-4c-6.7-1.9-14.2-3.9-16.6-4.7l-4.6-1.3l-2.2,8.3
		c-1.3,4.5-2.1,8.5-1.9,8.7C57.3,453.6,89.4,462.7,90.2,462.7z"/>
	<path class="st0" d="M60.6,531.1c6.8,0.8,13.3,1.7,14.4,2c2,0.4,2.2-0.1,3.1-7.7c0.6-4.4,0.9-8.3,0.7-8.5
		c-0.2-0.1-7.4-1.6-15.9-3.1c-14.5-2.7-18.9-3.2-19.1-2.7c0,0.2-0.6,4.1-1.3,8.9l-1.2,8.6l3.5,0.5C46.7,529.3,53.8,530.3,60.6,531.1
		z"/>
	<path class="st0" d="M302.8,164.3c1.8-1.3,1.2-2.3-8.2-15.4c-5.5-7.8-10.3-14.2-10.7-14.4c-0.5-0.2-11.8,7.3-13.6,8.9
		c-0.3,0.4,17.6,26.5,20,29.1C290.6,172.8,297.5,168.3,302.8,164.3z"/>
	<path class="st0" d="M874.6,1050.3c-0.5-0.3-13,7.5-13.3,8.2c-0.2,0.8,14.8,28,16.5,30c0.8,0.9,15.7-7.1,15.7-8.4
		c0-0.4-4.2-7.2-9.3-15.1C879,1056.9,874.7,1050.3,874.6,1050.3z"/>
	<path class="st0" d="M905.3,1030.8c-0.6-0.7-13.3,7.8-13.3,8.9c0,0.4,4.1,7.2,9.2,15.1c10.4,16.4,8.6,15.6,19,8.3l5.4-3.9
		l-9.8-13.8C910.5,1037.8,905.7,1031.3,905.3,1030.8z"/>
	<path class="st0" d="M933.8,1008.6c-0.9-0.1-12.8,9.4-12.9,10.3c-0.1,0.3,4.7,6.8,10.5,14.3c6.7,8.6,11,13.4,11.7,12.9
		c3.9-2.4,12.4-9.4,12.2-10c-0.2-0.5-4.9-6.8-10.6-14.1C939,1014.6,934.1,1008.6,933.8,1008.6z"/>
	<path class="st0" d="M1016.6,938.2c-3.8-3-7-5.4-7.2-5.4s-2.7,2.8-5.5,6.1c-5,5.8-5.1,6.1-3.4,7.7c1,0.9,7.1,6.2,13.5,11.8
		l11.7,10.2l3.8-4.4c2.1-2.4,4.6-5.5,5.7-7l2-2.7l-6.9-5.4C1026.5,946.1,1020.3,941.1,1016.6,938.2z"/>
	<path class="st0" d="M967.6,992.6l-7.7-7.6l-5.7,5.4c-6.7,6.2-7.7,3.4,7.7,21.2l9.7,11.3l6.7-5.9l6.6-5.9l-4.8-5.5
		C977.4,1002.6,971.8,996.7,967.6,992.6z"/>
	<path class="st0" d="M986,959.5c-0.4-0.1-3.1,2.6-6.3,6.1l-5.5,6.3l12.4,11.7c6.8,6.4,12.7,11.7,13.1,11.9c0.3,0.1,3.2-2.5,6.5-5.7
		l5.8-5.9l-12.6-12C992.4,965.2,986.4,959.7,986,959.5z"/>
	<path class="st0" d="M843.4,1067.5c-1,0-13.8,7.3-13.8,7.9c0,0.3,3.2,7.7,7.2,16.4l7.2,15.7l7.8-3.8c4.3-2.2,8-4.1,8.2-4.2
		s-3.3-7.4-7.9-16.1C847.5,1074.7,843.7,1067.5,843.4,1067.5z"/>
	<path class="st0" d="M752.7,57.7c-7.4-2.2-8.7-2.4-8.8-2c0,0.2-2.2,7.8-4.8,17c-2.7,9.1-4.6,16.8-4.5,17c0.2,0.1,3.9,1.3,8.4,2.6
		l8,2.4l1.5-5.1c3.8-13.2,8.3-29.5,8.1-29.6S757,58.9,752.7,57.7z"/>
	<path class="st0" d="M743.8,1107.2c-0.3-0.2-14.8,3.8-15.3,4.2c-0.8,0.6,7.3,34,8.4,34.4c0.6,0.2,4.6-0.6,9-1.9l7.9-2.3l-4.9-17.2
		C746.1,1115.1,743.9,1107.3,743.8,1107.2z"/>
	<path class="st0" d="M778.3,1096.5c-0.2-0.2-10.3,3-15.2,4.9c-0.9,0.3,0.3,5,4.2,16.4c3,8.9,5.9,16.4,6.3,16.9
		c0.9,0.9,15.7-3.9,15.7-5.2c0-0.4-2.5-7.9-5.4-16.7C780.9,1104,778.4,1096.6,778.3,1096.5z"/>
	<path class="st0" d="M818.3,1098.7c-3.7-8.5-7.1-15.3-7.4-15.3c-0.8,0.1-14.1,5.8-14.5,6.2c-0.2,0.2,2.6,7.6,6,16.4
		c5.5,13.9,6.7,16.1,8.5,15.9c3-0.4,14.9-6.1,14.6-7C825.4,1114.4,822.2,1107.1,818.3,1098.7z"/>
	<path class="st0" d="M1134.8,711.2c-8.8-2-16.5-3.6-17.3-3.6c-1,0-2,2.5-3.1,8c-0.9,4.3-1.5,8.1-1.3,8.3c0.9,1,33.8,8.2,34.3,7.6
		c0.7-0.9,4.1-15.9,3.7-16.3C1150.9,715,1143.5,713.2,1134.8,711.2z"/>
	<path class="st0" d="M1123.1,672.2c-0.6,0-1.4,2.6-1.7,5.9c-0.4,3.2-0.9,7-1.3,8.3c-0.5,2.2-0.2,2.3,15,4.9
		c8.6,1.5,16.5,3,17.7,3.2c1.9,0.4,2.2-0.1,3.1-4.8c0.5-2.9,1.1-7,1.3-9.1l0.3-3.8l-16.7-2.3
		C1131.7,673.3,1123.7,672.3,1123.1,672.2z"/>
	<path class="st0" d="M1160.5,638.7c-0.8,0-7.1-0.4-14-1c-6.9-0.5-14.5-1.2-16.6-1.5l-4.1-0.4l-0.7,8.4c-0.4,4.6-0.5,8.7-0.2,8.9
		c0.8,0.9,34.6,3.2,35.2,2.6c0.4-0.4,0.9-4.3,1.2-8.9C1161.7,640.4,1161.5,638.7,1160.5,638.7z"/>
	<path class="st0" d="M1046,914.2c-7.6-5.5-14.2-9.9-14.7-9.9s-3,2.9-5.3,6.3l-4.4,6.3l12.9,10.2c7.1,5.6,13.4,10.5,14.1,10.9
		c0.9,0.5,2.9-1.4,6.2-5.9c2.8-3.6,4.9-7,5-7.4C1059.7,924.3,1053.5,919.6,1046,914.2z"/>
	<path class="st0" d="M714.4,48.3c-4.1-0.9-7.8-1.6-8-1.6c-0.5,0-6.6,34.7-6.2,35.2c0.5,0.4,13.4,3.1,14.8,3.1s8.9-33.2,7.8-34.4
		C722.3,50.3,718.5,49.1,714.4,48.3z"/>
	<path class="st0" d="M1156.9,588.8c-3.4,0.1-11.5,0.4-18.1,0.5l-11.9,0.4l-0.1,13.6c-0.1,13.3-0.1,13.7,2.1,14.3
		c1.2,0.3,9.3,0.6,18.2,0.6h15.9v-8.9v-8.8l-9-0.4l-9.1-0.3l9.1-0.2l9-0.2V594v-5.4L1156.9,588.8z"/>
	<path class="st0" d="M1080.3,891.2c-0.8-0.4-7.7-4.5-15.4-9c-7.7-4.6-14.1-8.4-14.3-8.4c-0.5,0.1-8.8,13.9-8.5,14.3
		c0.2,0.2,7,4.5,15,9.7l14.8,9.3l4.8-7.6C1080.5,893.7,1081.3,891.9,1080.3,891.2z"/>
	<path class="st0" d="M1084.5,850.7c-8.5-4.3-15.6-8-15.9-8.2c-0.6-0.2-7.3,12.5-7.4,13.9c0,0.5,6.9,4.8,15.2,9.6l15.1,8.8l4.2-7.7
		c2.3-4.1,4.2-7.8,4.2-8.1C1100.1,858.7,1093.1,855,1084.5,850.7z"/>
	<path class="st0" d="M1126,747.3c-8.7-2.4-16.2-4.5-16.9-4.8c-0.7-0.3-1.5,0.1-1.7,0.8c-3,9.1-4.1,14.7-3.1,14.9
		c14.7,5.3,32.6,11.3,32.8,11c0.6-0.6,5.1-16.8,4.8-17.1C1141.8,751.9,1134.6,749.8,1126,747.3z"/>
	<path class="st0" d="M1113.8,782.4c-8.4-2.8-15.7-5-16.2-5c-0.9,0-5.9,12-5.9,14.1c0,0.8,30.4,13.5,32.1,13.5
		c1.2,0,7-15.9,6.1-16.7C1129.5,787.8,1122.2,785.2,1113.8,782.4z"/>
	<path class="st0" d="M1101.3,817.5c-8.1-3.6-15.2-6.8-16.1-7.2c-1.2-0.4-2.4,1.3-5,7.3l-3.5,7.8l16.3,7.4l16.3,7.5l3.2-7
		c1.8-3.8,3.2-7.5,3.2-8.1C1115.8,824.5,1109.3,821.1,1101.3,817.5z"/>
	<path class="st0" d="M850.6,135.2c0.2-0.3,3.9-7.5,8.3-16l8-15.5l-7.8-3.8l-7.7-3.9l-8.2,16l-8.3,15.9l7.7,3.9
		C846.7,133.9,850.4,135.4,850.6,135.2z"/>
	<path class="st0" d="M927.8,186.9c1,0.8,3.7,3,6,4.8c2.4,2,4.5,3.5,4.9,3.5c0.9,0,22.7-25.3,22.7-26.5c0-0.5-2.9-3.1-6.3-5.9
		c-3.4-2.8-6.5-5-6.8-5s-5.5,6.2-11.5,13.9C926.5,184.8,925.9,185.7,927.8,186.9z"/>
	<path class="st0" d="M903.8,169.1c3.4,2.5,6.6,4.5,6.9,4.5c0.7,0,20.3-27.5,20.3-28.5c0-0.5-2.9-2.9-6.3-5.3
		c-3.5-2.5-6.6-4.5-6.9-4.5c-0.6,0-19.1,26-19.9,27.9C897.6,164,899.7,166.1,903.8,169.1z"/>
	<path class="st0" d="M880.8,152.7c0.5-0.2,5.1-6.8,10.2-14.8l9.3-14.5l-7.2-4.5c-3.9-2.5-7.6-4.4-8.1-4.4
		c-1,0.1-17.5,28.7-17.4,30.1C867.8,145.9,879.7,153.1,880.8,152.7z"/>
	<path class="st0" d="M1063.8,348.7l3.6,7.4c2,4,3.9,7.3,4.3,7.3c0.8,0,30.4-14.6,31.2-15.3c0.3-0.3-1.3-3.9-3.3-8.3
		c-2.2-4.3-4.3-7.9-4.9-7.8c-0.5,0-2.8,1.2-4.9,2.6c-2.2,1.5-8.9,5.2-14.9,8.4L1063.8,348.7z"/>
	<path class="st0" d="M817.9,118.8c0.7-0.7,11.6-24.1,13.8-29.6c0.8-2.1,0.3-2.5-6.6-5.6c-4.1-1.9-8-3.4-8.4-3.4
		c-0.5,0-1.3,1-1.8,2.2c-8.9,22.3-11.9,30.6-11.7,30.8C805.6,114.8,817.3,119.4,817.9,118.8z"/>
	<path class="st0" d="M1003.7,260.2l4.6,5.9c2.6,3.2,4.9,6.1,5.2,6.3c0.9,0.5,27.8-20.7,27.6-21.7c-0.1-0.5-2.4-3.6-5.1-7.1
		c-2.7-3.3-5.2-6.1-5.6-6.1s-6.6,5.1-13.8,11.4L1003.7,260.2z"/>
	<path class="st0" d="M1049.8,324.8c2.1,3.3,4,6.4,4.2,6.7c0.6,0.5,27.6-14.6,30-16.7c0.9-0.8,0.2-2.8-3.2-8.3
		c-2.5-3.8-4.8-7.1-5.1-7.1c-0.9,0-26.8,16.5-28.4,18.1C1046.4,318.4,1047,320.1,1049.8,324.8z"/>
	<path class="st0" d="M1025.3,288.3l5,7.2l5,7.1l3-2.4c1.8-1.3,8.4-6,14.7-10.5c7.5-5.3,11.3-8.6,10.7-9.2c-0.4-0.6-2.7-3.6-4.9-6.8
		c-2.3-3-4.4-5.6-4.8-5.6c-0.4,0.1-4.6,3-9.5,6.5c-4.8,3.5-11.2,8.1-14,10.1L1025.3,288.3z"/>
	<path class="st0" d="M708.8,1117.1c-0.4-0.7-2.9-0.6-8.2,0.4c-5.9,1.1-7.7,1.8-7.7,3c0,2.8,5.6,32.6,6.2,33.2
		c0.6,0.6,14.9-1.7,16.5-2.7c0.8-0.4-0.1-5.7-2.6-16.7C711,1125.4,709.1,1117.7,708.8,1117.1z"/>
	<path class="st0" d="M784.5,105c1.7-1.8,12.8-32,12.1-32.6c-0.5-0.5-4.1-2-8.1-3.3c-3.9-1.5-7.4-2.7-7.7-2.7
		c-0.6,0-0.4-0.6-6.7,18.2l-5.2,15.8l7.5,2.6C780.6,104.5,784.2,105.3,784.5,105z"/>
	<path class="st0" d="M984.7,239.6l5.7,5.9l9.5-8.3c5.2-4.6,11.3-9.8,13.6-11.8l4.1-3.4l-6.3-6.7l-6.3-6.6l-13,12.5l-13,12.6
		L984.7,239.6z"/>
	<path class="st0" d="M965.5,219.8c0.3,0,6-5.8,12.7-12.9l12.1-12.9l-6-5.8c-3.3-3.1-6.4-5.8-6.9-5.8c-1,0-22.9,25.1-22.9,26.3
		C954.5,209.7,964.5,219.8,965.5,219.8z"/>
	<path class="st0" d="M635.1,1125.7c-1.5,0.1-5.3,0.3-8.5,0.5l-5.8,0.4l0.7,7.5c0.3,4.1,0.6,12.3,0.6,18.2v10.8l9.1-0.8
		c4.9-0.3,9.1-0.8,9.3-0.9c0.2-0.2-1.4-22-2.4-30.8C637.8,1125.8,637.6,1125.5,635.1,1125.7z"/>
	<path class="st0" d="M591.3,36.9l0.6,13.5c0.4,7.4,0.7,15.4,0.7,18V73l8.4,0.1l8.4,0.1v-8.6c0-4.7,0.3-12.9,0.7-18.2l0.6-9.5H601
		C601,36.9,591.3,36.9,591.3,36.9z"/>
	<path class="st0" d="M638.9,38.2c-6.3-0.5-8-0.3-8.4,0.8c-0.7,2.2-2.7,33.5-2.2,34c0.3,0.3,4.2,0.8,8.8,1.2l8.3,0.6l1.3-17.5
		c0.7-9.6,1-17.7,0.7-18C647.1,39,643.3,38.5,638.9,38.2z"/>
	<path class="st0" d="M674.2,1122.8c0-0.6-0.3-1.1-0.7-1.1c-0.5,0.1-4.5,0.6-8.9,1.2l-8.3,1l0.6,3c0.3,1.7,1.3,9.3,2.2,17
		s2,14.4,2.3,14.9c0.4,0.6,3.4,0.6,8.8-0.1c6.4-0.8,8.1-1.4,8.1-2.7c0-0.9-0.9-8.5-2-16.8C675.1,1130.9,674.2,1123.5,674.2,1122.8z"
		/>
	<path class="st0" d="M671.4,41.2c-2.6-0.6-2.9-0.3-3.3,3.2c-1.6,10.1-3.9,31.9-3.5,32.3c0.3,0.2,3.9,0.5,8.3,0.7l7.8,0.3l2.6-14.3
		c1.5-7.9,2.9-15.6,3.2-17.3l0.6-3l-6.4-0.7C677.1,42,673,41.5,671.4,41.2z"/>
	<path class="st0" d="M523.2,1121.5c-3.7-0.5-7.4-1.1-8-1.4c-0.7-0.2-1.3-0.1-1.3,0.3s-1.3,8.1-3,16.9c-1.6,8.9-3,16.7-3,17.3
		c0,1.3,16.3,4,17.4,3c0.7-0.6,5.2-34.3,4.7-34.8C530,1122.6,526.8,1122.1,523.2,1121.5z"/>
	<path class="st0" d="M554,1124.9l-4.5-0.7l-0.5,3.3c-0.7,4.7-2.8,32.6-2.4,32.8c0.2,0.1,4.1,0.5,8.8,0.9l8.5,0.7l0.6-7.3
		c0.4-3.9,0.9-12.1,1.3-18.2l0.7-11h-3.9C560.3,1125.5,556.4,1125.2,554,1124.9z"/>
	<path class="st0" d="M601.3,1127.9c-0.5-0.4-4.3-0.9-8.7-1.2l-7.9-0.5v18.4v18.3h8.9h8.9l-0.4-17.1
		C602.1,1136.3,601.7,1128.3,601.3,1127.9z"/>
	<path class="st0" d="M533.6,42c0-1.4-2.8-1.4-11.6,0l-6.3,1l0.6,3c0.3,1.8,1.3,9.3,2.2,16.9c1,7.6,2.1,14.2,2.5,14.7
		c0.8,0.9,13.7-0.1,15.5-1.4c1-0.6,0.9-3.9-0.8-16.9C534.5,50.4,533.6,42.6,533.6,42z"/>
	<path class="st0" d="M571.1,37.1c-0.3,0.1-2.6,0.3-5,0.5c-2.5,0.1-6.2,0.5-8.4,0.8l-3.9,0.6l1.2,14.9c0.6,8.2,1.2,16.1,1.2,17.6
		c0.1,2.7,0.3,2.8,4.8,2.8c2.6,0,6.3-0.3,8.4-0.6L573,73v-7.6c0-4.1-0.3-12.3-0.7-18C572,41.6,571.4,37,571.1,37.1z"/>
</g>
<g>
	<path class="st0" d="M257.5,778.4c-9.2,0-18.1-1.1-26.6-3.3c-8.5-2.2-16.6-5.3-24.1-9.3c-7.5-4-14.5-9-20.9-14.9
		c-6.4-5.9-11.9-12.5-16.7-19.9c-5.5-9-9.8-19-12.8-30c-3-11-4.5-22.5-4.5-34.5c0-7.6,0.5-15,1.4-22.1c0.9-7.1,2.4-14.5,4.4-21.9
		c2-7.5,4.7-15.3,7.9-23.5c3.3-8.2,7.3-17.2,12-26.9l38.9,18.5c-4.1,8.4-7.6,16-10.4,22.6c-2.8,6.7-5,13-6.7,18.9
		c-1.7,5.9-3,11.6-3.7,17.1c-0.8,5.5-1.1,11.2-1.1,17.2c0,7.8,1,15.3,2.9,22.5c2,7.2,4.7,13.7,8.1,19.4c5.5,8.2,12.8,14.7,21.9,19.6
		c9,4.9,19,7.3,30,7.3h35.1c12.2,0,22.1-1.3,29.8-3.8c7.7-2.5,13.6-6.1,17.9-10.8c4.3-4.7,7.2-10.3,8.7-16.8
		c1.6-6.6,2.3-13.8,2.3-21.8V565.9h43v116.2c0,32.1-8.5,56.2-25.5,72.2c-17,16-42.4,24-76.3,24H257.5z M254,552.4l31.1-31.4
		l31.8,31.8l-31.4,31.4L254,552.4z"/>
	<path class="st0" d="M528.8,685.4c-12.7,0-23.6-0.8-32.6-2.3c-9.1-1.6-16.8-3.9-23-6.9c-6.2-3-11.2-6.9-14.9-11.7
		c-3.7-4.7-6.6-10.2-8.5-16.6c-2-6.3-3.3-13.5-3.9-21.5c-0.6-8-1-16.8-1-26.5V436.4h43v163.6c0,9.2,0.3,16.6,0.9,22.1
		c0.6,5.5,2.3,9.8,5,12.9c2.7,3.1,6.8,5.1,12.3,6c5.5,1,13,1.5,22.7,1.5V685.4z"/>
	<path class="st0" d="M635.2,536.5c12.1,0,22.7,2.2,31.7,6.7c9,4.5,16.5,10.5,22.5,18c5.9,7.5,10.4,16.3,13.3,26.2
		c2.9,9.9,4.4,20.3,4.4,31.1c0,12-1,22.2-3.1,30.6c-2.1,8.4-4.8,15.4-8.2,20.9c-3.4,5.5-7.3,9.9-11.6,13c-4.3,3.2-8.6,5.5-13,7.1
		s-8.5,2.5-12.5,2.9c-4,0.4-7.5,0.6-10.4,0.6c-5.8,0-11.2-0.5-16.4-1.6c-5.2-1.1-10.4-2.7-15.8-4.7c-5.4-2-10.9-4.5-16.7-7.4
		c-5.8-2.9-12-6.2-18.8-9.9c-5.2,5.5-10.7,9.5-16.7,11.8c-5.9,2.4-12.9,3.5-20.8,3.5h-21.2l-0.3-43h21.6c2.5,0,4.8-0.7,6.6-2.2
		c1.9-1.5,3.6-3.6,5.2-6.3c1.6-2.7,3-6,4.3-9.8c1.3-3.9,2.7-8.1,4.1-12.9c2.3-8.3,5.1-16.8,8.3-25.7c3.2-8.8,7.5-16.8,12.9-24.1
		s12.1-13.2,20.3-17.9C613,538.9,623.1,536.5,635.2,536.5z M650.1,652.8c1,0,2.7-0.2,4.9-0.6c2.2-0.4,4.5-1.6,6.8-3.7
		c2.3-2.1,4.3-5.3,6.1-9.6s2.7-10.4,2.7-18.2c0-3-0.5-6.8-1.6-11.5c-1.1-4.7-3-9.2-5.7-13.6c-2.7-4.4-6.3-8.2-10.9-11.4
		c-4.6-3.2-10.3-4.8-17.2-4.8c-6,0-10.9,1.8-14.7,5.4c-3.8,3.6-7,8-9.6,13.3c-2.6,5.3-4.8,11-6.6,17.2c-1.8,6.2-3.7,11.8-5.8,16.8
		c4.3,2.4,8.8,4.9,13.6,7.3c4.8,2.5,9.5,4.7,14.1,6.6c4.6,2,9,3.6,13,4.8C643.4,652.2,647,652.8,650.1,652.8z"/>
	<path class="st0" d="M761.7,735.2c9.2,0,17.4-0.3,24.6-0.9c7.2-0.6,13.6-1.6,19.2-2.8c5.6-1.2,10.5-2.8,14.7-4.7
		c4.2-1.9,7.9-4.2,11-6.8c4.8-3.9,8.5-8.5,11-13.6c2.5-5.2,3.9-12.2,4.4-20.9h-26.6c-5.8,0-11.6-0.5-17.6-1.4
		c-6-0.9-11.7-2.5-17.3-4.8s-10.7-5.2-15.6-8.7c-4.9-3.6-9.2-8-12.8-13.2c-3.6-5.2-6.5-11.4-8.6-18.6c-2.1-7.1-3.2-15.3-3.2-24.5
		c0-7.9,0.7-15,2.1-21.2c1.4-6.2,3.1-11.6,5.3-16.3c2.1-4.7,4.5-8.8,7.2-12.4c2.6-3.5,5.2-6.6,7.6-9.2c6.9-6.9,14.7-12.2,23.5-16
		c8.8-3.7,18.2-5.6,28.3-5.6c12.5,0,23.3,2.2,32.2,6.5c8.9,4.3,16.2,10.3,21.9,17.9c5.7,7.6,9.9,16.6,12.5,27
		c2.6,10.4,4,21.7,4,33.9v23.5h29.4v43h-29.5c-0.5,15.8-3.3,29.1-8.4,39.9c-5.1,10.8-12.8,20.3-22.9,28.3
		c-5.3,4.1-11.1,7.7-17.3,10.8c-6.2,3-13.2,5.6-20.9,7.7c-7.7,2.1-16.3,3.6-25.8,4.6c-9.5,1-20.2,1.5-32.2,1.5V735.2z M818.7,576.6
		c-9.8,0-17.6,3.1-23.3,9.2c-5.8,6.1-8.6,15.6-8.6,28.5c0,5.1,1,9.4,3,13c2,3.6,4.6,6.5,7.8,8.7c3.2,2.2,6.7,3.9,10.6,4.9
		c3.9,1,7.8,1.6,11.7,1.6h26.6v-23.5c0-6.6-0.5-12.2-1.6-16.8c-1-4.7-2.4-8.6-4.1-11.7c-1.7-3.1-3.6-5.6-5.7-7.4
		c-2.1-1.8-4.2-3.2-6.2-4.1c-2-0.9-3.9-1.5-5.8-1.8C821.3,576.8,819.8,576.6,818.7,576.6z"/>
	<path class="st0" d="M1038.4,540.3c0.2,0.8,0.7,2.7,1.5,5.7c0.7,3,1.6,6.6,2.5,11c0.9,4.3,1.9,9.1,2.8,14.4c1,5.3,1.9,10.6,2.8,16
		c0.9,5.4,1.6,10.6,2.1,15.6c0.5,5.1,0.8,9.5,0.8,13.3c0,11.9-2,22.1-5.9,30.8c-3.9,8.7-9,15.9-15.4,21.5
		c-6.3,5.6-13.4,9.8-21.3,12.6c-7.9,2.8-15.8,4.1-23.8,4.1H910v-43h75.7c1.4,0,3.4-0.2,6-0.6c2.6-0.4,5.2-1.5,7.8-3.2
		c2.6-1.7,4.9-4.3,6.8-7.9c2-3.5,2.9-8.3,2.9-14.4c0-2.5-0.2-5.6-0.6-9.2c-0.4-3.6-0.9-7.5-1.6-11.7c-0.7-4.1-1.5-8.4-2.3-12.7
		c-0.9-4.3-1.7-8.4-2.5-12.3c-0.8-3.9-1.6-7.4-2.4-10.5c-0.8-3.2-1.4-5.6-1.9-7.3L1038.4,540.3z M949.8,506.8l-29-29.4l28.5-29.7
		l29.7,29.7L949.8,506.8z M1022.1,506.7l-29-29.4l28.7-29.7l29.7,29.7L1022.1,506.7z"/>
</g>
</svg>
