<?xml version="1.0" encoding="utf-8"?>
<!-- Generator: Adobe Illustrator 25.2.1, SVG Export Plug-In . SVG Version: 6.00 Build 0)  -->
<svg version="1.1" id="Layer_1" xmlns="http://www.w3.org/2000/svg" xmlns:xlink="http://www.w3.org/1999/xlink" x="0px" y="0px"
	 viewBox="0 0 38.4 38.4" style="enable-background:new 0 0 38.4 38.4;" xml:space="preserve">
<style type="text/css">
	.st0{opacity:0;fill:#FFFFFF;}
	.st1{fill:#8247E5;}
</style>
<circle class="st0" cx="19.2" cy="19.2" r="19.2"/>
<g>
	<path class="st1" d="M27,14c-0.6-0.3-1.3-0.3-1.9,0l-4.4,2.6l-3,1.7l-4.3,2.6c-0.6,0.3-1.3,0.3-1.9,0l-3.4-2
		c-0.6-0.3-0.9-0.9-0.9-1.7v-3.9c0-0.6,0.3-1.3,0.9-1.7l3.4-2c0.6-0.3,1.3-0.3,1.9,0l3.4,2c0.6,0.3,0.9,0.9,0.9,1.7v2.6l3-1.7v-2.7
		c0-0.6-0.3-1.3-0.9-1.7l-6.3-3.7c-0.6-0.3-1.3-0.3-1.9,0L5,9.9c-0.6,0.3-0.9,0.9-0.9,1.6v7.4c0,0.6,0.3,1.3,0.9,1.7l6.4,3.7
		c0.6,0.3,1.3,0.3,1.9,0l4.3-2.5l3-1.7l4.3-2.5c0.6-0.3,1.3-0.3,1.9,0l3.4,2c0.6,0.3,0.9,0.9,0.9,1.7v3.9c0,0.6-0.3,1.3-0.9,1.7
		l-3.3,2c-0.6,0.3-1.3,0.3-1.9,0l-3.4-2c-0.6-0.3-0.9-0.9-0.9-1.7v-2.5l-3,1.7v2.6c0,0.6,0.3,1.3,0.9,1.7l6.4,3.7
		c0.6,0.3,1.3,0.3,1.9,0l6.4-3.7c0.6-0.3,0.9-0.9,0.9-1.7v-7.5c0-0.6-0.3-1.3-0.9-1.7L27,14z"/>
</g>
</svg>
