<?xml version="1.0" encoding="utf-8"?>
<!-- Generator: Adobe Illustrator 25.2.1, SVG Export Plug-In . SVG Version: 6.00 Build 0)  -->
<svg version="1.1" id="Layer_1" xmlns="http://www.w3.org/2000/svg" xmlns:xlink="http://www.w3.org/1999/xlink" x="0px" y="0px"
	 viewBox="0 0 94.3 94.1" style="enable-background:new 0 0 94.3 94.1;" xml:space="preserve">
<style type="text/css">
	.st0{fill:#FFFFFF;}
	.st1{fill:#8ACAFF;}
	.st2{fill:#4187F7;}
</style>
<circle class="st0" cx="47.2" cy="47.2" r="47.2"/>
<g id="Layer_2_1_">
	<g id="Layer_1-2">
		<path class="st1" d="M49.5,43l-2.3,4l-2.3,4l-4.4-2.5l-17.3-10v18.8c-2.7-2-6.5-2-9.2,0V36.8c3.4,2.5,8.3,1.8,10.8-1.6
			c1-1.3,1.5-3,1.5-4.6c0-0.3,0-0.6-0.1-0.9l18.8,10.9l2.1,1.2L49.5,43z"/>
		<path class="st1" d="M80.4,36.8v20.6c-2.7-2-6.5-2-9.2,0V38.5l-17.3,10L49.5,51l-2.3-4l-2.3-4l2.3-1.3l2.1-1.2l18.8-10.9
			c0,0.3-0.1,0.6-0.1,0.9c0,4.3,3.5,7.7,7.7,7.7C77.4,38.3,79,37.7,80.4,36.8z"/>
		<path class="st1" d="M48.4,12.1L48.4,12.1C48.3,12,48.3,12,48.4,12.1L48.4,12.1L48.2,12c0,0,0,0-0.1,0c0,0,0,0-0.1,0l0,0
			c0,0,0,0-0.1,0l0,0c0,0-0.1,0-0.1,0l0,0l0,0l0,0c0,0,0,0-0.1,0c0,0,0,0,0,0c0,0,0,0,0,0l0,0c0,0,0,0,0,0l0,0c0,0-0.1,0-0.1,0
			c0,0-0.1,0-0.1,0c-0.1,0-0.2,0-0.2,0c-0.1,0-0.1,0-0.2,0c0,0,0,0-0.1,0c0,0-0.1,0-0.1,0c0,0-0.1,0-0.1,0l0,0l0,0
			c-0.1,0-0.1,0-0.2,0l0,0l0,0l0,0c0,0,0,0-0.1,0c0,0,0,0-0.1,0l0,0l0,0l0,0c0,0-0.1,0-0.1,0c0,0,0,0,0,0c0,0,0,0-0.1,0l0,0l0,0l0,0
			L23.8,24.9c1.2,1.1,2,2.5,2.3,4L44.9,18v13.9c0,1.3,1,2.3,2.3,2.3s2.3-1,2.3-2.3V18l0,0l18.7,10.8c0.3-1.5,1.2-2.9,2.3-4
			L48.4,12.1z"/>
		<path class="st1" d="M68.2,65.2L49.5,76.1V62.2c0-1.3-1-2.3-2.3-2.3s-2.3,1-2.3,2.3v13.9L26.1,65.2c-0.3,1.5-1.2,2.9-2.3,4L46,82
			l0,0c0,0,0,0,0.1,0c0,0,0.1,0,0.1,0c0,0,0.1,0,0.1,0c0,0,0,0,0.1,0c0,0,0,0,0.1,0c0,0,0,0,0.1,0c0,0,0,0,0.1,0c0,0,0.1,0,0.1,0
			c0,0,0.1,0,0.1,0c0.1,0,0.2,0,0.3,0c0,0,0.1,0,0.1,0c0,0,0.1,0,0.1,0c0,0,0.1,0,0.1,0c0,0,0.1,0,0.1,0c0.1,0,0.2,0,0.3,0
			c0,0,0,0,0.1,0c0,0,0,0,0,0c0,0,0,0,0.1,0c0,0,0,0,0.1,0c0.1,0,0.1-0.1,0.2-0.1c0,0,0,0,0.1,0c0,0,0.1,0,0.1,0c0,0,0,0,0.1,0l0,0
			l22.1-12.8C69.3,68.2,68.5,66.8,68.2,65.2z"/>
		<circle class="st2" cx="47.2" cy="47" r="6.8"/>
		<circle class="st2" cx="18.6" cy="30.5" r="6.8"/>
		<circle class="st2" cx="18.6" cy="63.5" r="6.8"/>
		<circle class="st2" cx="75.7" cy="30.5" r="6.8"/>
		<circle class="st2" cx="75.7" cy="63.5" r="6.8"/>
	</g>
</g>
</svg>
