<?xml version="1.0" encoding="utf-8"?>
<!-- Generator: Adobe Illustrator 25.2.1, SVG Export Plug-In . SVG Version: 6.00 Build 0)  -->
<svg version="1.1" id="Layer_1" xmlns="http://www.w3.org/2000/svg" xmlns:xlink="http://www.w3.org/1999/xlink" x="0px" y="0px"
	 viewBox="0 0 180 179.5" style="enable-background:new 0 0 180 179.5;" xml:space="preserve">
<style type="text/css">
	.st0{fill:url(#SVGID_1_);}
	.st1{fill:#FFFFFF;}
</style>
<linearGradient id="SVGID_1_" gradientUnits="userSpaceOnUse" x1="27.0232" y1="152.3118" x2="153.6213" y2="26.0604">
	<stop  offset="0" style="stop-color:#00AEE9"/>
	<stop  offset="1" style="stop-color:#69FABD"/>
</linearGradient>
<circle class="st0" cx="89.8" cy="89.8" r="89.8"/>
<path id="Shape" class="st1" d="M122.5,32.7c-13.6,0-24.6,11-24.7,24.6v27.3c-2.5,0.2-5.1,0.3-7.8,0.3s-5.3,0.1-7.8,0.3V57.3
	c-0.2-13.6-11.4-24.5-25.1-24.3C43.8,33.3,33,44,32.8,57.3v65.2c0.2,13.6,11.4,24.5,25.1,24.3c13.3-0.2,24.1-11,24.3-24.3V95.2
	c2.5-0.2,5.1-0.3,7.8-0.3s5.3-0.1,7.8-0.3v27.8c0.2,13.6,11.4,24.5,25.1,24.3c13.3-0.2,24.1-11,24.3-24.3V57.3
	C147.1,43.7,136.1,32.7,122.5,32.7z M57.5,42.8c8,0,14.5,6.5,14.6,14.5v28.9c-7.2,1-14.3,3-21,5.9C48.2,93.4,45.5,95,43,97V57.3
	C43,49.3,49.5,42.8,57.5,42.8z M72.1,122.5c0,8-6.5,14.6-14.6,14.6s-14.6-6.5-14.6-14.6c0,0,0,0,0,0V116c0-5.8,4.6-11.2,12.2-14.6
	c5.4-2.3,11.1-4,16.9-4.9L72.1,122.5L72.1,122.5z M122.5,137c-8,0-14.5-6.5-14.6-14.5V93.6c7.2-1,14.3-3,21-5.9
	c2.9-1.3,5.6-2.9,8.1-4.9v39.6C137,130.5,130.5,137,122.5,137L122.5,137z M124.8,78.5c-5.4,2.3-11.1,4-16.9,4.9V57.3
	c0-8,6.5-14.6,14.6-14.6c8,0,14.6,6.5,14.6,14.6c0,0,0,0,0,0v6.5C137.1,69.6,132.5,75.1,124.8,78.5z"/>
</svg>
