<?xml version="1.0" encoding="utf-8"?>
<!-- Generator: Adobe Illustrator 25.2.1, SVG Export Plug-In . SVG Version: 6.00 Build 0)  -->
<svg version="1.1" id="Layer_1" xmlns="http://www.w3.org/2000/svg" xmlns:xlink="http://www.w3.org/1999/xlink" x="0px" y="0px"
	 viewBox="0 0 72 72" style="enable-background:new 0 0 72 72;" xml:space="preserve">
<style type="text/css">
	.st0{opacity:0;fill:#FFFFFF;}
	.st1{filter:url(#Adobe_OpacityMaskFilter);}
	.st2{fill-rule:evenodd;clip-rule:evenodd;fill:#FFFFFF;}
	.st3{mask:url(#mask_1_);}
	.st4{fill:#EFE812;}
	.st5{fill:#EDE70A;}
	.st6{fill:#DEC21C;}
	.st7{fill:#E5CB22;}
	.st8{fill:#CCA727;}
</style>
<circle class="st0" cx="36" cy="36" r="36"/>
<g>
	<g id="Group-3">
		<g id="Fill-1-Clipped">
			<defs>
				<filter id="Adobe_OpacityMaskFilter" filterUnits="userSpaceOnUse" x="6.4" y="12" width="19.6" height="44.9">
					<feColorMatrix  type="matrix" values="1 0 0 0 0  0 1 0 0 0  0 0 1 0 0  0 0 0 1 0"/>
				</filter>
			</defs>
			<mask maskUnits="userSpaceOnUse" x="6.4" y="12" width="19.6" height="44.9" id="mask_1_">
				<g id="mask-2_1_" class="st1">
					<polygon id="path-1_1_" class="st2" points="6.4,12 26,12 26,56.9 6.4,56.9 					"/>
				</g>
			</mask>
			<g class="st3">
				<path id="Fill-1" class="st4" d="M22.9,15.3C24,14.1,25,13,26,12.1C9.4,11.5,14.2,23.6,8.8,35.8C2.5,49.9,9.5,55.2,19.9,56.9
					c-1.5-1.7-2.6-3.7-3.5-5.8C9.7,42.7,12.4,27.2,22.9,15.3"/>
			</g>
		</g>
	</g>
	<path id="Fill-4" class="st5" d="M62.9,30.4c-2,5.1-4.8,9.9-8.4,14.1c-2.9,3.5-6.3,6.5-10.2,8.9c-4.5,2.9-9.7,4.3-15.1,4.3
		c-3.1,0-6.2-0.2-9.3-0.6c1.7,2,3.8,3.7,6.2,4.9c15.1,7.3,16-6.2,31.9-13.1C67,44.8,67.1,37.3,62.9,30.4"/>
	<path id="Fill-6" class="st5" d="M44.3,16.3c2.2,0.4,4.3,1.1,6.2,2.2c5.1,2.8,9.3,6.9,12.4,11.9c2.7-7.6,1.4-13.6-4.5-14.7
		c-6.5-1.2-11.6-1.6-16.5-5c-6-4.2-11.3-2.8-15.9,1.4l1,0C33.4,12.5,39.5,13.8,44.3,16.3"/>
	<path id="Fill-8" class="st6" d="M22.9,15.3C12.4,27.2,9.7,42.7,16.4,51.2c-3.2-7.5-2.6-16,1.5-23c5.7-9.5,17.1-13.6,26.4-11.9
		c-4.8-2.6-10.9-3.8-17.3-4.2l-1,0C25,13,24,14.1,22.9,15.3"/>
	<path id="Fill-10" class="st7" d="M50.5,18.5c-1.9-1.1-4-1.8-6.2-2.2c6.4,3.4,10.6,9,10.6,18c-0.1,7.7-4.1,14.9-10.6,19
		c3.9-2.4,7.3-5.3,10.2-8.9c3.6-4.2,6.4-8.9,8.4-14.1C59.9,25.4,55.6,21.3,50.5,18.5"/>
	<path id="Fill-12" class="st8" d="M44.3,16.3c-9.4-1.7-20.8,2.4-26.4,11.8c-4.1,7-4.6,15.6-1.5,23.1c0.9,2.1,2.1,4,3.5,5.8
		c3.1,0.5,6.2,0.7,9.3,0.6c5.3,0.1,10.6-1.4,15.1-4.3c6.5-4.1,10.5-11.2,10.6-19C54.9,25.3,50.7,19.7,44.3,16.3 M43.3,49
		c-7.2,4.6-16.8,2.6-21.5-4.6C17.1,37.2,19.4,28,26.4,23c7.8-5.5,17.8-3.4,21.5,4.6C51.4,35.4,50.5,44.4,43.3,49"/>
</g>
</svg>
