<?xml version="1.0" encoding="utf-8"?>
<!-- Generator: Adobe Illustrator 23.0.2, SVG Export Plug-In . SVG Version: 6.00 Build 0)  -->
<svg version="1.1" id="Layer_1" xmlns="http://www.w3.org/2000/svg" xmlns:xlink="http://www.w3.org/1999/xlink" x="0px" y="0px"
	 viewBox="0 0 2500 2258" style="enable-background:new 0 0 2500 2258;" xml:space="preserve">
<style type="text/css">
	.st0{fill:#6daaed;}
	.st1{fill:#FFFFFF;}
</style>
<circle class="st0" cx="1250" cy="1129" r="1129"/>
<g id="Lines">
	<path class="st1" d="M1347.4,1779.6H875.4l-380.9-279.1l-145.2-450.8l144.9-450.8l380.9-279.1h472.4l380.9,279.1l144.9,450.8
		l-144.9,450.8l-5.3,5.3L1347.4,1779.6L1347.4,1779.6z M886,1747.2h450.8l365-268.2l139.6-429.3l-139.6-429.3l-365-268.2H886
		L521.3,620.4l-139.6,429.3L521.3,1479L886,1747.2L886,1747.2z"/>
	<path class="st1" d="M1927.2,1704.4l-220.1-198.6l-214.8-80.6l-380.9,48.4l-386.2-48.4l-214.8,80.6l-10.6-32.2l219.8-85.9h5.6
		l386.2,53.7l386.5-53.7l5.3,5.3l225.4,85.9l219.8,203.9L1927.2,1704.4z"/>
	<path class="st1" d="M1336.8,1795.6l-225.4-311.3l-236,311.3l-171.7-380.9l32.2-16.2L886,1731.2l225.4-306l220.1,306l150.2-332.8
		l203.9-407.7l48.4,498.9h-32.2l-37.8-380.9l-150.2,306L1336.8,1795.6z"/>
	<path class="st1" d="M370.8,1033.5h1491.8v32.2H370.8V1033.5z"/>
	<path class="st1" d="M1685.6,1108.7l-187.6-370.3l-161.1,348.7l-225.4-402.4l-230.7,402.4L719.6,738.4l-187.6,370.3l-43.1-493.6
		l32.5-5.3L553.5,996l166.1-327.2l161.1,348.7l230.7-397.1l220.1,397.1l166.4-348.7L1664,990.7l26.9-380.9h32.5L1685.6,1108.7z"/>
	<path class="st1" d="M1481.7,711.6l-150.2-338.1l-220.1,311.3L886,373.4L735.8,711.6L709,695.6l166.4-386.5l236,316.6l225.4-316.6
		l177,386.5L1481.7,711.6z M1701.8,1489.6l-37.8-380.9l-166.1,332.8l-166.4-354.4l-220.1,402.4l-230.7-402.4l-161.1,354.4
		l-166.1-332.8l-32.2,380.9h-32.5l43.1-498.9l187.6,375.6l161.1-348.7l230.7,402.4l225.4-402.4l161.1,354l187.6-380.9l48.4,498.9
		L1701.8,1489.6z"/>
	<path class="st1" d="M1497.9,722.5l-391.8-53.7l-386.5,53.7l-219.8-96.8l10.6-32.2l214.8,91.2l380.9-48.1l391.8,48.1l209.2-91.2
		l16.2,32.2L1497.9,722.5z"/>
</g>
<g id="Circles">
	<circle class="st1" cx="880.7" cy="1763.4" r="64.3"/>
	<circle class="st1" cx="1331.5" cy="1763.4" r="64.3"/>
	<circle class="st1" cx="880.7" cy="341.3" r="64.3"/>
	<circle class="st1" cx="1331.5" cy="341.3" r="64.3"/>
	<circle class="st1" cx="1707.1" cy="609.8" r="64.3"/>
	<circle class="st1" cx="505.1" cy="609.8" r="64.3"/>
	<circle class="st1" cx="505.1" cy="1495.2" r="64.3"/>
	<circle class="st1" cx="370.8" cy="1049.7" r="64.3"/>
	
		<ellipse transform="matrix(0.1602 -0.9871 0.9871 0.1602 523.6523 2714.8579)" class="st1" cx="1857.3" cy="1049.7" rx="64.3" ry="64.3"/>
	<circle class="st1" cx="1675" cy="1049.7" r="64.3"/>
	<circle class="st1" cx="542.6" cy="1049.7" r="64.3"/>
	<circle class="st1" cx="880.7" cy="1049.7" r="64.3"/>
	<circle class="st1" cx="1331.5" cy="1049.7" r="64.3"/>
	<ellipse class="st1" cx="1111.4" cy="652.6" rx="64.3" ry="64.3"/>
	<circle class="st1" cx="719.6" cy="706.3" r="64.3"/>
	<circle class="st1" cx="1497.9" cy="706.3" r="64.3"/>
	<circle class="st1" cx="1111.4" cy="1457.4" r="64.3"/>
	<circle class="st1" cx="719.6" cy="1403.7" r="64.3"/>
	<circle class="st1" cx="1497.9" cy="1403.7" r="64.3"/>
	<circle class="st1" cx="1937.8" cy="1693.8" r="85.9"/>
</g>
</svg>
