<?xml version="1.0" encoding="utf-8"?>
<!-- Generator: Adobe Illustrator 25.2.1, SVG Export Plug-In . SVG Version: 6.00 Build 0)  -->
<svg version="1.1" id="Layer_1" xmlns="http://www.w3.org/2000/svg" xmlns:xlink="http://www.w3.org/1999/xlink" x="0px" y="0px"
	 viewBox="0 0 1875 1875" style="enable-background:new 0 0 1875 1875;" xml:space="preserve">
<style type="text/css">
	.st0{fill:#EF0601;}
	.st1{fill:#FEA309;}
	.st2{fill:#FEFEFE;}
	.st3{fill:#010000;}
	.st4{fill:#FE8300;}
	.st5{fill:#FE9200;}
</style>
<g>
	<circle class="st0" cx="936.9" cy="936.9" r="936.9"/>
	<g>
		<circle class="st0" cx="936.9" cy="1018.9" r="854.9"/>
		<path d="M936.9,171.8c114.4,0,225.3,22.4,329.7,66.6c100.9,42.7,191.5,103.7,269.3,181.5c77.8,77.8,138.9,168.4,181.5,269.3
			c44.2,104.4,66.6,215.4,66.6,329.7c0,114.4-22.4,225.3-66.6,329.7c-42.7,100.9-103.7,191.5-181.5,269.3
			c-77.8,77.8-168.4,138.9-269.3,181.5c-104.4,44.2-215.4,66.6-329.7,66.6s-225.3-22.4-329.7-66.6
			c-100.9-42.7-191.5-103.7-269.3-181.5c-77.8-77.8-138.9-168.4-181.5-269.3c-44.2-104.4-66.6-215.4-66.6-329.7
			c0-114.4,22.4-225.3,66.6-329.7C199,588.3,260.1,497.7,337.9,419.9c77.8-77.8,168.4-138.9,269.3-181.5
			C711.6,194.2,822.5,171.8,936.9,171.8 M936.9,164C464.7,164,82,546.7,82,1018.9s382.8,854.9,854.9,854.9s854.9-382.8,854.9-854.9
			S1409.1,164,936.9,164L936.9,164z"/>
	</g>
	<g>
		<path class="st1" d="M933,1768.4c-306.4,0-673.4-267.4-673.4-507.5c0-271.3,147.2-505.5,231.7-589.5
			C645.9,517.7,821.1,503.6,933,503.6s287.1,14.2,441.7,167.9c84.4,83.9,231.7,318.2,231.7,589.5
			C1606.4,1501,1239.4,1768.4,933,1768.4z"/>
		<path class="st2" d="M933,1768.4c306.4,0,673.4-267.4,673.4-507.5c0,0-99.5-25.4-210.8,9.8c-98.4,31.1-167.9,109.3-167.9,109.3
			s-13.7-236.2-294.7-236.2S638.3,1380,638.3,1380s-69.4-78.2-167.9-109.3c-111.3-35.1-210.8-9.8-210.8-9.8
			C259.6,1501,626.6,1768.4,933,1768.4z"/>
		<g>
			<path class="st3" d="M1098.8,1478.3h-46.5c-2.2,0-4.3,0.9-5.8,2.4l-2.1,2.1c-1.5,1.5-3.6,2.4-5.8,2.4h-54.8
				c-16.5,0-17.2-17.4-23.4-21.3c-3.1-2-7.1-3-11.7-3.4v-58.6c26.7-19.8,78.1-46.5,78.1-82.4v-53c0-11.7-9.5-21.1-21.1-21.1H860.4
				c-11.7,0-21.1,9.5-21.1,21.1v53c0,35.9,51.4,62.6,78.1,82.4v58.6c-4.6,0.5-8.6,1.5-11.7,3.4c-6.2,3.9-6.9,21.3-23.4,21.3h-54.8
				c-2.2,0-4.3-0.9-5.8-2.4l-2.1-2.1c-1.5-1.5-3.6-2.4-5.8-2.4h-46.5c-2.6,0-4.5,2.5-3.9,5l11.8,43.8c0.6,2.4,2.8,4,5.2,4h4.6
				c2.2,0,4.2,1.3,5,3.4l22,54.2c0,0,5.7-0.6,11.4-13.7c1.1-2.5,1.7-8.1,2-15.2c0.7-15.8-0.2-38.6-0.6-48.7
				c-0.1-2.7,2.2-4.7,4.8-4.4c14.6,2.2,58.8,8.1,103.5,8.1c44.7,0,88.9-6,103.5-8.1c2.6-0.4,4.9,1.7,4.8,4.4
				c-0.5,10.1-1.3,32.9-0.6,48.7c0.3,7.1,0.9,12.7,2,15.2c5.7,13.1,11.4,13.7,11.4,13.7l22-54.2c0.8-2,2.8-3.4,5-3.4h4.6
				c2.5,0,4.6-1.7,5.2-4l11.8-43.8C1103.3,1480.8,1101.4,1478.3,1098.8,1478.3z"/>
			<path class="st3" d="M991.4,1528.3c-10.1,0-58.5,0-58.5,0s-48.4,0-58.5,0c-8.1,0-6.3,13-4,15.6c3.1,3.5,13.2,11.3,18.1,9.8
				c4.1-1.3,10.1-9.8,14.1-9.8c8.1,0,16.1,23.4,30.2,23.4c14.1,0,22.2-23.4,30.2-23.4c4,0,10,8.5,14.1,9.8c4.9,1.5,15-6.3,18.1-9.8
				C997.8,1541.3,999.5,1528.3,991.4,1528.3z"/>
		</g>
		<path class="st1" d="M1194.7,550c0,0,80.4-106.3,158-171.3c121-101.5,206.9-97.6,206.9-97.6s47.1,52.5,35.1,193.2
			c-15.6,183.5-87.7,389.9-87.7,389.9"/>
		<g>
			<path class="st4" d="M1528.1,434.2c1.2,8.4,2.8,16.7,3.4,25c2.1,30.4-0.2,60.7-4.1,90.9c-7.1,53.7-20.2,105.9-35.7,157.6
				c-8.1,26.6-16.8,53-25.6,80.8c-41.5-64.6-89.4-121.9-147.7-170.2c6-11.2,11.8-22.6,18.2-33.5c16.7-28.8,35.6-56,58.4-80.4
				c18.2-19.5,38.4-36.5,62-49.2C1479.1,443.3,1502.5,435,1528.1,434.2z"/>
			<path class="st5" d="M1528.1,434.2c-25.5,1-49,9.3-71.2,21.2c-23.5,12.7-43.8,29.7-62,49.2c-22.8,24.3-41.7,51.6-58.4,80.4
				c-6.4,11-12.1,22.4-18.2,33.5c-21.8-16-43.5-32-65.4-47.9c-3-2.2-2.8-3.5-0.4-5.7c25-24,49-49.3,75.2-71.9
				c27.2-23.6,55.9-45.7,85.1-66.8c28.7-20.7,60.3-36.7,94-48c1.1-0.4,3.3,0.2,3.8,1C1519.4,396.3,1526.3,414.4,1528.1,434.2z"/>
		</g>
		<path class="st1" d="M671.3,550c0,0-80.4-106.3-158-171.3c-121-101.5-206.9-97.6-206.9-97.6s-47.1,52.5-35.1,193.2
			C286.9,657.8,359,864.3,359,864.3"/>
		<g>
			<path class="st4" d="M409.2,455.1c23.5,12.7,43.8,29.7,62,49.2c22.8,24.4,41.7,51.6,58.4,80.4c6.4,11,12.2,22.4,18.2,33.5
				C489.4,666.5,441.5,723.9,400,788.5c-8.9-27.8-17.6-54.2-25.6-80.8c-15.6-51.7-28.6-103.9-35.7-157.6
				c-3.9-30.2-6.2-60.5-4.1-90.9c0.6-8.4,2.2-16.7,3.4-25C363.5,435,386.9,443.3,409.2,455.1z"/>
			<path class="st5" d="M355.3,379.2c0.5-0.8,2.7-1.4,3.8-1c33.7,11.3,65.3,27.3,94,48c29.2,21.1,57.9,43.1,85.1,66.8
				c26.2,22.7,50.2,47.9,75.2,71.9c2.4,2.2,2.6,3.5-0.4,5.7c-21.9,15.9-43.6,31.9-65.4,47.9c-6.1-11.2-11.8-22.6-18.2-33.5
				c-16.7-28.8-35.6-56.1-58.4-80.4c-18.2-19.5-38.4-36.5-62-49.2c-22.3-11.9-45.7-20.2-71.2-21.2
				C339.7,414.4,346.6,396.3,355.3,379.2z"/>
		</g>
		<path class="st3" d="M1093.9,1140.9c-4.4-1.3-7.2-5.6-6.7-10.2c0.9-9.4,5.6-26.8,25.4-44.7c33.2-30,128.9-91.3,188.3-109.1
			c12.8-3.8,26.4-5.2,34.3-5.6c4.1-0.2,7.8,2.3,9.1,6.2c2.5,7.7,6.2,22.2,7.4,42.3c1.9,31.2-2.8,37.2-2.8,37.2
			s-22.7,36.7-123.1,67.3C1143.4,1149.3,1107.3,1145,1093.9,1140.9z"/>
		<path class="st3" d="M772.1,1140.9c4.4-1.3,7.2-5.6,6.7-10.2c-0.9-9.4-5.6-26.8-25.4-44.7c-33.2-30-128.9-91.3-188.3-109.1
			c-12.8-3.8-26.4-5.2-34.3-5.6c-4.1-0.2-7.8,2.3-9.1,6.2c-2.5,7.7-6.2,22.2-7.4,42.3c-1.9,31.2,2.8,37.2,2.8,37.2
			s22.7,36.7,123.1,67.3C722.5,1149.3,758.7,1145,772.1,1140.9z"/>
		<path class="st2" d="M1154.5,916.4c19.5,23.4,127.6,29.9,148.3,3.9c39-48.8-21.5-112.2-71.2-112.2
			C1188.7,808.1,1112.9,866.5,1154.5,916.4z"/>
		<path class="st2" d="M711.5,916.4c-19.5,23.4-127.6,29.9-148.3,3.9c-39-48.8,21.5-112.2,71.2-112.2
			C677.3,808.1,753.1,866.5,711.5,916.4z"/>
	</g>
</g>
</svg>
