<?xml version="1.0" encoding="utf-8"?>
<!-- Generator: Adobe Illustrator 25.2.1, SVG Export Plug-In . SVG Version: 6.00 Build 0)  -->
<svg version="1.1" id="Layer_1" xmlns="http://www.w3.org/2000/svg" xmlns:xlink="http://www.w3.org/1999/xlink" x="0px" y="0px"
	 viewBox="0 0 168.3 168.3" style="enable-background:new 0 0 168.3 168.3;" xml:space="preserve">
<style type="text/css">
	.st0{opacity:0;fill:#FFFFFF;}
	.st1{fill:#0B4431;}
	.st2{fill:none;stroke:#FFFFFF;stroke-miterlimit:10;}
	.st3{fill:#77BAA1;}
	.st4{fill:#F3ACBB;}
	.st5{fill:#89B772;}
	.st6{fill:#F08FA2;}
	.st7{fill:#F8D0D9;}
	.st8{fill:#DD8843;}
	.st9{fill:#EBB646;}
	.st10{fill:#FFFFFF;}
	.st11{fill:#A5D4C1;}
</style>
<path class="st0" d="M168.3,84.1c0,46.5-37.7,84.2-84.1,84.2C37.7,168.3,0,130.6,0,84.1C0,57,12.8,32.9,32.8,17.5
	c0.3-0.3,0.7-0.6,1.1-0.8C47.9,6.2,65.3,0,84.2,0C130.6,0,168.3,37.7,168.3,84.1z"/>
<path class="st1" d="M82.9,156.7c-0.1,0-0.1,0-0.2,0c-30.4-0.1-45-14.6-51.8-26.8c-6.4-11.3-8.8-23.7-7.1-36.7
	c1.4-11,5.8-22.3,12.6-32.9c4.4-6.8,10.1-13.5,16.2-19.1c4.4-4.1,8.1-6.7,11-7.9c-0.9-3.7-1.5-9.6-1.7-11.6l0-0.3
	c-0.1-4.6,5.1-6.7,6.9-7.5c3.3-1.3,7.2-2.1,10.9-2.2c3.7-0.1,7.5,0.2,10.5,0.9c1.9,0.4,7.6,1.7,7.7,6.7l0.2,8.4c0,1.6-0.1,3-0.3,4.2
	c16.2,5.8,30.1,22.9,35.8,32.2l0,0c2.3,3.7,7.8,13.8,10.3,26.4c2.9,15.2,0.4,28.8-7.4,40.5C120.6,154.8,91.7,156.7,82.9,156.7z
	 M66.7,42.6c-3.6,2-14.2,10.8-22.1,23c-7.7,12-18.7,35.6-5.2,59.5c8,14.2,23,21.7,43.3,21.8c0.1,0,0.1,0,0.2,0
	c7.5,0,32.2-1.6,45.4-21.5c15.5-23.3,0.1-51-3.1-56.3l0,0c-2.8-4.6-8.5-12.2-15.6-18.5L79.9,46l-22.6,4.5l11.9-6.8
	c-0.5-0.2-0.9-0.4-1.4-0.6C67.4,43,67,42.8,66.7,42.6z M94,42.5l11.1,4.4c-3-2.2-6.1-4.1-9.3-5.4c-0.4,0.2-0.9,0.5-1.5,0.8
	C94.2,42.4,94.1,42.4,94,42.5z M67.5,42.2C67.5,42.2,67.5,42.2,67.5,42.2z M71.9,23.1c0.4,3.7,1,7.5,1.4,8.6c0.7,2,1.9,3.3,3.8,4
	l3.7,1.4l3.1-1.8c1.7-0.9,2.7-2.2,2.9-2.4l0.4-0.6l0.1-0.1c0.3-0.4,1.2-1.9,1.1-4.6l-0.2-5.7c-1.8-0.4-4.7-0.8-8.2-0.7
	C76.5,21.5,73.6,22.4,71.9,23.1z"/>
<path class="st2" d="M140.5,95.1"/>
<path class="st3" d="M132.4,128.1c-15,22.4-42.5,23.7-49.7,23.6c-8.9,0-34.4-1.1-47.6-24.3c-12.6-22.2-6.6-46.1,5.4-64.6
	c9.4-14.5,22.9-25.4,26.3-25.5c0.7,0,1.6,0.6,3.2,1.3c2.2,1,5.6,2.2,10.8,1.8c6.1-0.5,9.3-1.6,11.3-2.6c2.2-1.1,2.7-2,3.6-1.7
	c15.6,5.3,29,22.5,33.7,30.3C134.7,75.1,148.8,103.5,132.4,128.1z"/>
<path class="st4" d="M43.3,79.2c0,0-6.8,16.6-5.4,29.1c1.4,12,9.5,29.8,29.3,34.2c19.8,4.4,32.7-0.7,43.7-5.6
	c10.9-4.9,18.4-15.2,19.6-24.9s1.1-23.9-4.2-35.5"/>
<path class="st5" d="M91.8,48.7c-0.6,2.3-11,4.4-15.8,3.2c-4.7-1.2-5-4.3-6.1-13.1c2.2,1,5.6,2.2,10.8,1.8c6.1-0.5,9.3-1.6,11.3-2.6
	C92.2,40.1,92.4,46.4,91.8,48.7z"/>
<path class="st6" d="M67.1,132.1c-0.5-1.3-0.7-2.6-0.5-4c0.7-4.9,4.1-17.9,22-27.8c22.5-12.3,34.3-1.9,34.3-1.9s7.1,6.3,1.7,21.2
	c-5.4,14.9-31.6,20.3-31.6,20.3S72.1,144.8,67.1,132.1z"/>
<path class="st6" d="M45.4,105c-1.4,0-1.6-5.7,0.3-8.3c2.9-4.1,7.9-0.3,7.9-0.3S49.2,105,45.4,105z"/>
<path class="st7" d="M126.3,76.5c0-2.2-18.6-4-41.5-4S43.3,77,43.3,79.2s18.6,6,41.5,6S126.3,78.7,126.3,76.5z"/>
<g>
	<path class="st8" d="M66.8,21.2c0,0,1.5,9.5,2.1,12.3c0.5,2.3,4.1,7.2,10.6,7.9c7,0.8,11-5.3,11-5.3s2.8-2.6,2.6-8.3
		C93.1,22,93,19.3,93,19.3S78.3,20.7,66.8,21.2z"/>
	<path class="st9" d="M93,19.3c0-1.4-6.1-3-13.2-2.8c-7.2,0.2-13,3.2-13,4.6s6.1,3.5,13.2,3.3S93.1,20.7,93,19.3z"/>
</g>
<path class="st10" d="M46.7,81.8c-0.7-0.2-1.3-0.6-1.7-1.2c-1.3-2-3.1-7.3,4.2-17.4c9.5-13.3,14.6-8.9,14.6-8.9s6.3,3.1-0.5,14.4
	c-0.1,0.1-0.1,0.2-0.1,0.3C62.4,70.5,55.6,84.3,46.7,81.8z"/>
<path class="st10" d="M114.2,135.4c-1.5-0.3-2.5-1.7-2.3-3.2c0.3-1.9,1.4-4.8,4.7-7.7c4.9-4.4,8.4-0.5,9.3,0.7
	c0.2,0.2,0.3,0.5,0.4,0.8c0.2,0.9,0.1,2.8-2.4,5.5C121.1,134.6,117.6,136,114.2,135.4z"/>
<path class="st11" d="M136.9,95.1c0.9,2.4-5.8-6.5-6.7-6.6c-1.4-0.1-8.3,16.5-10,17c-2.2,0.6-19.9-12.3-23.8-12
	c-6.7,0.5-20.8,21.1-22.6,21.4c-2.1,0.4-17.8-18.3-23.4-19c-1.9-0.2-15.1,15.7-16.2,14.6c-0.5-0.5-1.9-13.3-1.6-16.8
	c0.2-2.3,1.7,8.9,2.4,9c1.1,0.1,13.2-12,15.7-11.9c2.3,0.2,20.2,16.1,21.9,15.8c1.7-0.3,19.1-17.5,22.8-18
	c2.9-0.4,18.4,10.8,22.5,10.1c2.6-0.4,10.4-14.2,11.7-14.5C130.9,83.8,136,92.6,136.9,95.1z"/>
</svg>
