<?xml version="1.0" encoding="utf-8"?>
<!-- Generator: Adobe Illustrator 23.0.2, SVG Export Plug-In . SVG Version: 6.00 Build 0)  -->
<svg version="1.1" id="Layer_1" xmlns="http://www.w3.org/2000/svg" xmlns:xlink="http://www.w3.org/1999/xlink" x="0px" y="0px"
	 viewBox="0 0 1875 1875" style="enable-background:new 0 0 1875 1875;" xml:space="preserve">
<style type="text/css">
	.st0{clip-path:url(#SVGID_2_);}
	.st1{fill:url(#SVGID_3_);}
	.st2{fill:url(#SVGID_4_);}
	.st3{fill:url(#SVGID_5_);}
	.st4{fill:#0E0F23;}
	.st5{fill-rule:evenodd;clip-rule:evenodd;fill:#FFFFFF;}
	.st6{fill:#FFFFFF;}
</style>
<circle cx="937.5" cy="937.5" r="937.5"/>
<title>Dogecoin (DOGE)</title>
<g>
	<g>
		<defs>
			<rect id="SVGID_1_" x="311.3" y="311.3" width="1252.5" height="1252.5"/>
		</defs>
		<clipPath id="SVGID_2_">
			<use xlink:href="#SVGID_1_"  style="overflow:visible;"/>
		</clipPath>
		<g class="st0">
			
				<linearGradient id="SVGID_3_" gradientUnits="userSpaceOnUse" x1="774.624" y1="404.9973" x2="967.1157" y2="1065.9902" gradientTransform="matrix(1 0 0 1 -12 -68)">
				<stop  offset="0" style="stop-color:#03B8FF"/>
				<stop  offset="1" style="stop-color:#FA52A0"/>
			</linearGradient>
			<path class="st1" d="M572.2,431.3l970.7,662.8l-240.1,354.9l-970.7-668L572.2,431.3z"/>
			
				<linearGradient id="SVGID_4_" gradientUnits="userSpaceOnUse" x1="932.3359" y1="359.0635" x2="1124.8328" y2="1020.0596" gradientTransform="matrix(1 0 0 1 -12 -68)">
				<stop  offset="0" style="stop-color:#03B8FF"/>
				<stop  offset="1" style="stop-color:#FA52A0"/>
			</linearGradient>
			<path class="st2" d="M1542.9,1094.1c-83.5,120-365.3,73.1-631.4-114.8C640,796.6,493.9,551.3,572.2,431.3
				c83.5-120,365.3-73.1,631.4,114.8C1475,723.5,1621.1,974,1542.9,1094.1z"/>
			
				<linearGradient id="SVGID_5_" gradientUnits="userSpaceOnUse" x1="618.7736" y1="450.379" x2="811.2706" y2="1111.3783" gradientTransform="matrix(1 0 0 1 -12 -68)">
				<stop  offset="0" style="stop-color:#03B8FF"/>
				<stop  offset="1" style="stop-color:#FA52A0"/>
			</linearGradient>
			<path class="st3" d="M1302.8,1443.7c-83.5,120-365.3,73.1-631.4-114.8S253.9,901,337.4,775.7c83.5-120,365.3-73.1,631.4,114.8
				S1381.1,1323.7,1302.8,1443.7z"/>
			<path class="st4" d="M1542.9,1094.1L1542.9,1094.1l-240.1,354.9l0,0c-83.5,120-365.3,67.8-631.4-114.8
				c-52.2-36.5-99.2-73.1-146.1-114.8c36.5-5.2,83.5-26.1,130.5-78.3c83.5-88.7,125.2-109.6,161.8-104.4
				c36.5,0,78.3,36.5,146.1,125.2c67.8,88.7,161.8,114.8,219.2,67.8c5.2-5.2,10.4-5.2,15.7-10.4c47-36.5,62.6-52.2,151.3-219.2
				c20.9-41.7,93.9-109.6,193.1-78.3C1568.9,989.7,1568.9,1047.1,1542.9,1094.1z"/>
			<path class="st5" d="M1506.3,1073.2c-73.1,104.4-328.8,52.2-574-120C681.8,780.9,535.7,561.8,608.7,457.4s328.8-52.2,574,120
				S1574.2,968.8,1506.3,1073.2z M1276.7,916.6c-36.5,52.2-161.8,26.1-287-57.4c-120-83.5-193.1-193.1-156.6-245.3
				c36.5-52.2,161.8-26.1,287,57.4C1240.2,754.9,1313.2,864.4,1276.7,916.6z"/>
			<path class="st6" d="M551.3,551.3c0-5.2-5.2-10.4-10.4-5.2c-5.2,5.2-10.4,5.2-10.4,10.4c5.2,15.7,10.4,26.1,10.4,36.5
				c0,5.2,5.2,10.4,10.4,5.2c5.2,0,10.4-5.2,5.2-10.4C556.5,577.4,556.5,567,551.3,551.3z"/>
			<path class="st6" d="M577.4,634.8c0-5.2-5.2-10.4-10.4-5.2c-5.2,5.2-5.2,5.2-5.2,10.4c57.4,130.5,177.4,271.4,334,375.7
				c5.2,5.2,10.4,0,15.7,0c5.2-5.2,0-10.4,0-15.7C749.6,895.8,634.8,760.1,577.4,634.8z"/>
			<path class="st6" d="M1208.9,1146.2c-5.2,0-10.4,0-10.4,5.2c0,5.2,0,10.4,5.2,10.4c15.7,5.2,36.5,10.4,52.2,15.7
				c5.2,0,10.4,0,10.4-5.2c0-5.2,0-10.4-5.2-10.4C1245.4,1156.7,1224.5,1151.5,1208.9,1146.2z"/>
			<path class="st6" d="M1302.8,1167.1c-5.2,0-10.4,5.2-10.4,10.4c0,5.2,5.2,10.4,10.4,10.4c41.7,5.2,88.7,10.4,125.2,5.2
				c5.2,0,10.4-5.2,10.4-10.4c0-5.2-5.2-10.4-10.4-10.4C1386.3,1177.6,1344.5,1172.3,1302.8,1167.1z"/>
		</g>
	</g>
</g>
</svg>
