<?xml version="1.0" encoding="utf-8"?>
<!-- Generator: Adobe Illustrator 25.2.1, SVG Export Plug-In . SVG Version: 6.00 Build 0)  -->
<svg version="1.1" id="Calque_1" xmlns="http://www.w3.org/2000/svg" xmlns:xlink="http://www.w3.org/1999/xlink" x="0px" y="0px"
	 viewBox="0 0 64 64" style="enable-background:new 0 0 64 64;" xml:space="preserve">
<style type="text/css">
	.st0{fill:#FF060A;}
	.st1{fill:#FFFFFF;}
</style>
<circle class="st0" cx="32" cy="32" r="32"/>
<g id="tron">
	<path class="st1" d="M58.2,24.9c-2.3-2.1-5.4-5.3-8-7.6L50,17.1c-0.3-0.2-0.5-0.4-0.8-0.5l0,0c-6.2-1.2-35-6.5-35.6-6.5
		c-0.2,0-0.3,0.1-0.4,0.2L13,10.5c-0.2,0.2-0.3,0.4-0.4,0.6l0,0.1v0.5v0.1c3.2,9,16.1,38.6,18.6,45.6c0.2,0.5,0.4,1.4,1,1.4h0.1
		c0.3,0,1.5-1.6,1.5-1.6s22-26.7,24.2-29.5c0.3-0.4,0.5-0.7,0.8-1.1C58.9,25.9,58.7,25.3,58.2,24.9z M39.4,28l9.4-7.8l5.5,5.1
		L39.4,28z M35.8,27.5L19.6,14.2L45.8,19L35.8,27.5z M37.2,30.9l16.6-2.7L34.9,51.1L37.2,30.9z M17.4,15.5l17,14.4L32,51.1
		L17.4,15.5z"/>
</g>
</svg>
