<?xml version="1.0" encoding="utf-8"?>
<!-- Generator: Adobe Illustrator 25.2.1, SVG Export Plug-In . SVG Version: 6.00 Build 0)  -->
<svg version="1.1" id="Layer_1" xmlns="http://www.w3.org/2000/svg" xmlns:xlink="http://www.w3.org/1999/xlink" x="0px" y="0px"
	 viewBox="0 0 168.3 168.3" style="enable-background:new 0 0 168.3 168.3;" xml:space="preserve">
<style type="text/css">
	.st0{fill:#FF007A;}
	.st1{fill:#FFFFFF;}
	.st2{fill-rule:evenodd;clip-rule:evenodd;fill:#FFFFFF;}
</style>
<path class="st0" d="M168.3,84.1c0,46.5-37.7,84.2-84.1,84.2C37.7,168.3,0,130.6,0,84.1C0,57,12.8,32.9,32.8,17.5
	c0.3-0.3,0.7-0.6,1.1-0.8C47.9,6.2,65.3,0,84.2,0C130.6,0,168.3,37.7,168.3,84.1z"/>
<g>
	<path class="st1" d="M66.4,31.9c-1.5-0.2-1.6-0.3-0.9-0.4c1.4-0.2,4.6,0.1,6.8,0.6c5.2,1.2,10,4.4,15,10l1.3,1.5l1.9-0.3
		c8.1-1.3,16.4-0.3,23.3,2.9c1.9,0.9,4.9,2.6,5.2,3.1c0.1,0.1,0.4,1.1,0.5,2c0.5,3.4,0.3,6-0.8,7.9c-0.6,1.1-0.6,1.4-0.2,2.3
		c0.3,0.7,1.2,1.2,2,1.2c1.7,0,3.6-2.8,4.4-6.6l0.4-1.5l0.7,0.7c3.7,4.2,6.6,9.9,7.1,14l0.1,1.1l-0.7-0.9c-1.1-1.7-2.1-2.8-3.5-3.7
		c-2.5-1.7-5.1-2.2-12-2.5c-6.3-0.4-9.8-0.9-13.3-2c-6-2-9-4.5-16.1-13.9c-3.1-4.2-5.1-6.4-7.1-8.3C76.3,35,72,32.8,66.4,31.9z"/>
	<path class="st1" d="M120.6,41.2c0.1-2.8,0.5-4.6,1.3-6.3c0.3-0.7,0.6-1.2,0.7-1.2c0.1,0-0.1,0.5-0.3,1.1c-0.6,1.6-0.7,3.9-0.3,6.4
		c0.5,3.3,0.7,3.7,4.2,7.3c1.6,1.7,3.5,3.8,4.2,4.7l1.2,1.6l-1.2-1.2c-1.5-1.5-5-4.2-5.8-4.6c-0.5-0.3-0.6-0.3-0.9,0.1
		c-0.3,0.3-0.4,0.7-0.4,2.8c-0.1,3.3-0.5,5.3-1.6,7.4c-0.6,1.1-0.7,0.9-0.1-0.4c0.4-0.9,0.4-1.4,0.4-4.5c0-6.3-0.7-7.9-5.2-10.4
		c-1.1-0.7-3-1.6-4.1-2.1c-1.2-0.5-2-0.9-2-0.9c0.1-0.1,4.4,1.1,6.1,1.8c2.5,1,3,1.1,3.3,1C120.4,43.6,120.6,43,120.6,41.2z"/>
	<path class="st1" d="M69.4,52c-3.1-4.2-5-10.8-4.6-15.7l0.1-1.5l0.7,0.1c1.3,0.2,3.6,1.1,4.7,1.7c2.9,1.7,4.2,4.2,5.5,10.1
		c0.4,1.7,0.9,3.8,1.1,4.4c0.4,1.1,1.7,3.6,2.9,5.2c0.8,1.2,0.3,1.7-1.5,1.6C75.5,57.9,71.8,55.3,69.4,52z"/>
	<path class="st1" d="M116.9,83.7c-14.4-5.8-19.5-10.8-19.5-19.4c0-1.2,0.1-2.3,0.1-2.3c0.1,0,0.6,0.4,1.2,0.9
		c2.9,2.3,6.2,3.3,15.3,4.7c5.3,0.8,8.4,1.4,11.1,2.3c8.8,2.9,14.3,8.9,15.6,17c0.4,2.3,0.1,6.8-0.4,9.1c-0.5,1.8-2,5.2-2.3,5.2
		c-0.1,0-0.2-0.4-0.2-0.9c-0.1-3.1-1.7-6-4.2-8.2C130.5,89.5,126.5,87.6,116.9,83.7z"/>
	<path class="st1" d="M106.7,86.1c-0.1-1.1-0.5-2.5-0.7-3.1l-0.4-1.1l0.7,0.8c0.9,1.1,1.7,2.4,2.3,4.2c0.5,1.4,0.5,1.8,0.5,4.1
		c0,2.2-0.1,2.7-0.5,3.9c-0.7,2-1.6,3.3-3.1,4.9c-2.6,2.7-6,4.2-10.9,4.8c-0.9,0.1-3.3,0.3-5.5,0.4c-5.5,0.3-9.1,0.9-12.4,2
		c-0.4,0.1-0.9,0.3-0.9,0.2c-0.1-0.1,2.1-1.5,3.9-2.3c2.5-1.2,5.2-1.9,10.9-2.9c2.8-0.4,5.8-1,6.5-1.3
		C104.3,98.6,107.9,92.9,106.7,86.1z"/>
	<path class="st1" d="M113.4,97.8c-1.9-4.2-2.3-8.1-1.3-11.8c0.1-0.4,0.3-0.7,0.4-0.7c0.1,0,0.6,0.2,1,0.5c0.9,0.6,2.7,1.6,7.4,4.2
		c5.9,3.2,9.2,5.7,11.6,8.5c2,2.5,3.3,5.3,3.9,8.8c0.4,2,0.1,6.7-0.4,8.7c-1.6,6.2-5.2,11.1-10.6,14c-0.8,0.4-1.5,0.7-1.5,0.7
		c-0.1,0,0.2-0.7,0.7-1.6c1.7-3.7,2-7.3,0.7-11.3c-0.8-2.5-2.5-5.5-5.8-10.5C115.3,101.5,114.4,99.9,113.4,97.8z"/>
	<path class="st1" d="M59.1,120.1c5.4-4.5,12-7.7,18.1-8.7c2.6-0.4,7-0.3,9.4,0.4c3.9,1,7.4,3.2,9.2,5.9c1.7,2.6,2.5,4.9,3.3,9.9
		c0.3,2,0.7,4,0.7,4.4c0.6,2.6,1.7,4.7,3.2,5.8c2.3,1.7,6.2,1.7,10,0.3c0.7-0.2,1.2-0.4,1.2-0.4c0.1,0.1-1.8,1.5-3.1,2.1
		c-1.8,0.9-3.3,1.2-5.2,1.2c-3.5,0-6.5-1.8-8.9-5.5c-0.5-0.7-1.5-2.8-2.4-4.8c-2.5-5.9-3.9-7.6-6.8-9.6c-2.6-1.7-6-2-8.5-0.8
		c-3.3,1.6-4.2,5.9-1.9,8.5c0.9,1.1,2.7,2,4.2,2.2c2.7,0.4,5-1.7,5-4.4c0-1.7-0.7-2.8-2.4-3.6c-2.3-1-4.9,0.1-4.8,2.4
		c0,0.9,0.4,1.5,1.4,2c0.6,0.3,0.6,0.3,0.1,0.2c-2.1-0.4-2.6-3.1-0.9-4.7c2-2,6.3-1.2,7.8,1.7c0.6,1.2,0.7,3.5,0.1,5
		c-1.2,3.2-4.7,4.9-8.3,3.9c-2.4-0.7-3.4-1.3-6.3-4.3c-5.1-5.2-7.1-6.3-14.3-7.4l-1.4-0.2L59.1,120.1z"/>
	<path class="st2" d="M69.4,55.9c-2.1-2.5-21.3-23.6-35.5-39.2c-0.4,0.3-0.7,0.5-1.1,0.8C47.9,36,64.2,56,65.2,57.3
		c1.1,1.5,0.7,2.8-1.2,3.9c-1,0.6-3.1,1.2-4.2,1.2c-1.2,0-2.5-0.6-3.5-1.5c-0.6-0.7-3.5-4.8-9.9-14.8c-4.9-7.7-9-14-9.1-14.1
		c-0.3-0.1-0.3-0.1,8.6,15.7c5.6,10,7.4,13.5,7.4,14c0,1-0.3,1.5-1.5,2.8c-2,2.2-2.8,4.7-3.5,9.8c-0.7,5.8-2.7,9.8-8.3,16.7
		c-3.3,4.1-3.8,4.8-4.6,6.5c-1,2-1.3,3.2-1.5,5.8c-0.2,2.8,0.1,4.5,1,7.1c0.7,2.3,1.5,3.8,3.5,6.8c1.7,2.6,2.7,4.6,2.7,5.3
		c0,0.6,0.1,0.6,2.8,0c6.3-1.5,11.4-3.9,14.3-7c1.8-1.9,2.2-2.9,2.2-5.5c0-1.7-0.1-2-0.5-3.1c-0.7-1.6-2.1-2.9-5.1-5
		c-3.9-2.7-5.6-4.9-6-7.8c-0.4-2.5,0.1-4.1,2.3-8.7c2.2-4.7,2.8-6.7,3.2-11.5c0.2-3.1,0.6-4.3,1.5-5.2c0.9-1,1.7-1.4,4-1.7
		c3.7-0.5,6.1-1.5,8-3.3c1.7-1.5,2.4-3.1,2.5-5.3l0.1-1.7L69.4,55.9z M43.2,106.5c-0.7,1.3-2.1,1.8-3.1,1c-0.7-0.5-0.7-1.2-0.1-2
		c0.5-0.8,0.4-1.2-0.2-1.5c-0.4-0.2-0.6-0.4-0.6-0.7c0-1.1,1.9-1.5,3.1-0.7C43.5,103.4,44,105.1,43.2,106.5z"/>
	<path class="st2" d="M77.2,68.6c-1.1-0.6-3.3-0.8-4.5-0.4c-1.8,0.5-3.4,2.4-3.9,4.3c-0.3,1.2-0.1,3.3,0.4,3.9
		c0.8,1,1.5,1.3,3.6,1.3c4,0,7.4-1.8,7.8-3.9C80.8,72.1,79.3,69.7,77.2,68.6z M77.3,71.8c-0.4,0.6-1.8,1.2-2.7,1.2c-1.5,0-3-1-3-2
		c0-1.9,3-2.9,5-1.7C77.7,70,77.9,71,77.3,71.8z"/>
</g>
</svg>
