<svg xmlns="http://www.w3.org/2000/svg" width="40" height="34.797" viewBox="0 0 40 34.797">
    <g>
        <g fill-rule="evenodd">
            <path fill="#50af95" d="M7.329.171L.036 15.491a.3.3 0 0 0 .064.346l19.7 18.876a.3.3 0 0 0 .416 0l19.7-18.875a.3.3 0 0 0 .064-.346L32.682.172A.294.294 0 0 0 32.413 0H7.6a.3.3 0 0 0-.271.171z" transform="translate(-1500 -1294.27) translate(1499.995 1294.27)"/>
            <path fill="#fff" d="M79.086 52.553c-.141.011-.872.054-2.5.054-1.3 0-2.217-.039-2.54-.054-5.01-.22-8.749-1.092-8.749-2.137s3.739-1.915 8.749-2.139v3.407c.328.024 1.266.079 2.562.079 1.556 0 2.335-.065 2.475-.078V48.28c5 .223 8.73 1.095 8.73 2.137s-3.73 1.914-8.73 2.135zm0-4.626v-3.048h6.977V40.23H67.068v4.649h6.975v3.048c-5.67.26-9.933 1.384-9.933 2.729s4.264 2.468 9.933 2.729v9.77h5.042v-9.773C84.742 53.121 89 52 89 50.655s-4.253-2.467-9.913-2.728zm0 0" transform="translate(-1500 -1294.27) translate(1499.995 1294.27) translate(-56.55 -35.489)"/>
        </g>
    </g>
</svg>
