<?xml version="1.0" encoding="utf-8"?>
<!-- Generator: Adobe Illustrator 25.2.1, SVG Export Plug-In . SVG Version: 6.00 Build 0)  -->
<svg version="1.1" id="Layer_1" xmlns="http://www.w3.org/2000/svg" xmlns:xlink="http://www.w3.org/1999/xlink" x="0px" y="0px"
	 viewBox="0 0 2000 2000" style="enable-background:new 0 0 2000 2000;" xml:space="preserve">
<style type="text/css">
	.st0{fill:#FFFFFF;}
	.st1{fill:url(#SVGID_1_);}
	.st2{opacity:0.1;fill:#FFFFFF;enable-background:new    ;}
</style>
<circle class="st0" cx="1000" cy="1000" r="1000"/>
<g id="Layer_2_1_">
	<g id="Layer_1-2">
		
			<linearGradient id="SVGID_1_" gradientUnits="userSpaceOnUse" x1="251.0135" y1="-942.1063" x2="1749.0261" y2="-942.1063" gradientTransform="matrix(1 0 0 1 0 2082)">
			<stop  offset="0" style="stop-color:#9D4ABE"/>
			<stop  offset="3.000000e-02" style="stop-color:#9055C4"/>
			<stop  offset="0.15" style="stop-color:#6B74D6"/>
			<stop  offset="0.26" style="stop-color:#4C8FE5"/>
			<stop  offset="0.39" style="stop-color:#34A3F0"/>
			<stop  offset="0.52" style="stop-color:#22B2F9"/>
			<stop  offset="0.66" style="stop-color:#18BAFD"/>
			<stop  offset="0.83" style="stop-color:#15BDFF"/>
			<stop  offset="1" style="stop-color:#28BAD5"/>
		</linearGradient>
		<path class="st1" d="M895,1783.3L254.3,478.4c-10.4-20.8,5.2-45.5,28.3-45.5h222c11.9,0,23.1,6.7,28.3,17.2l467.9,946.7
			c41.7,84.9,162.4,84.9,204.1,0l466.4-946c5.2-10.4,16.4-17.2,28.3-17.2h27.6c16.4,0,26.8,17.2,19.4,31.3l-647.4,1318.3
			C1057.4,1868.1,936.7,1868.1,895,1783.3L895,1783.3z"/>
		<path class="st2" d="M895,1783.3L532.9,450.8c-5.2-11.2-17.2-17.2-26.8-17.2H283.4c-24.6,0-38.7,24.6-29.1,45.5L895,1783.3z"/>
		<path class="st2" d="M1000.8,1397.4l-746.5-919c-8.9-21.6,4.5-43.2,25.3-45.5h225.7c12.7,0.7,22.3,8.9,26.8,17.2L1000.8,1397.4z"
			/>
	</g>
</g>
</svg>
