<?xml version="1.0" encoding="utf-8"?>
<!-- Generator: Adobe Illustrator 23.0.2, SVG Export Plug-In . SVG Version: 6.00 Build 0)  -->
<svg version="1.1" id="Layer_1" xmlns="http://www.w3.org/2000/svg" xmlns:xlink="http://www.w3.org/1999/xlink" x="0px" y="0px"
	 viewBox="0 0 1080 1080" style="enable-background:new 0 0 1080 1080;" xml:space="preserve">
<style type="text/css">
	.st0{fill:#0E1736;}
	.st1{fill:#D1AA11;}
	.st2{fill:#FFFFFF;}
</style>
<circle class="st0" cx="540" cy="540" r="540"/>
<path class="st1" d="M162.6,702.5c-0.3,0-0.6,0-0.9,0c-14.9-0.4-27.9-10.4-32-24.7L72.2,478.3c-5.2-18.2,5.2-37.1,23.4-42.4
	c18.2-5.2,37.1,5.2,42.4,23.4l27.5,95.2l33.2-96.8c4.7-13.8,17.8-23.1,32.4-23.1c0,0,0,0,0,0c14.6,0,27.6,9.3,32.4,23.1l33.2,96.8
	l27.5-95.2c5.2-18.2,24.2-28.6,42.4-23.4c18.2,5.2,28.6,24.2,23.4,42.4l-57.5,199.5c-4.1,14.4-17.1,24.4-32,24.7
	c-15,0.3-28.4-9-33.2-23.1L231,574.3L195,679.3C190.2,693.2,177.2,702.5,162.6,702.5z"/>
<path class="st1" d="M463.9,702.5c-18.9,0-34.2-15.3-34.2-34.2V468.8c0-18.9,15.3-34.2,34.2-34.2c18.9,0,34.2,15.3,34.2,34.2v199.5
	C498.1,687.1,482.8,702.5,463.9,702.5z"/>
<path class="st1" d="M740.1,702.5c-18.9,0-34.2-15.3-34.2-34.2V549.8c0-25.8-21-46.8-46.8-46.8s-46.8,21-46.8,46.8v118.4
	c0,18.9-15.3,34.2-34.2,34.2s-34.2-15.3-34.2-34.2V549.8c0-63.6,51.7-115.3,115.3-115.3s115.3,51.7,115.3,115.3v118.4
	C774.3,687.1,759,702.5,740.1,702.5z"/>
<path class="st2" d="M923.6,702.5c-10.1,0-20.2-4.5-26.9-13.1l-78.3-99.7c-9.7-12.4-9.7-29.9,0-42.3l78.3-99.7
	c11.7-14.9,33.2-17.5,48.1-5.8c14.9,11.7,17.5,33.2,5.8,48.1l-61.7,78.6l61.7,78.6c11.7,14.9,9.1,36.4-5.8,48.1
	C938.4,700.1,930.9,702.5,923.6,702.5z"/>
<path class="st2" d="M759.6,384.8c-2.6,0-5.2-0.8-7.5-2.4l-59-42.3c-3.4-2.4-5.4-6.3-5.4-10.5c0-4.2,2-8.1,5.4-10.5l59-42.3
	c5.8-4.2,13.9-2.8,18,3c4.2,5.8,2.8,13.9-3,18l-44.3,31.8l44.3,31.8c5.8,4.2,7.1,12.2,3,18C767.5,383,763.6,384.8,759.6,384.8z"/>
<circle class="st2" cx="463.9" cy="329.6" r="46.4"/>
<path class="st2" d="M601.5,853.4c-69.5,0-137.1-21.3-190.3-60c-8.7-6.3-10.6-18.4-4.3-27.1c6.3-8.7,18.4-10.6,27.1-4.3
	c46.6,33.9,106.1,52.6,167.5,52.6c61.4,0,120.9-18.7,167.5-52.6c8.7-6.3,20.8-4.4,27.1,4.3c6.3,8.7,4.4,20.8-4.3,27.1
	C738.7,832.1,671.1,853.4,601.5,853.4z"/>
</svg>
