<?xml version="1.0" encoding="utf-8"?>
<!-- Generator: Adobe Illustrator 25.2.1, SVG Export Plug-In . SVG Version: 6.00 Build 0)  -->
<svg version="1.1" id="Layer_1" xmlns="http://www.w3.org/2000/svg" xmlns:xlink="http://www.w3.org/1999/xlink" x="0px" y="0px"
	 viewBox="0 0 2500 2500.1" style="enable-background:new 0 0 2500 2500.1;" xml:space="preserve">
<style type="text/css">
	.st0{opacity:0;fill:#FFFFFF;}
	.st1{fill:#F7A800;}
	.st2{fill:#67B2E8;}
	.st3{fill:#00C4B3;}
</style>
<circle class="st0" cx="1250" cy="1250" r="1250"/>
<g>
	<path d="M1250.5,2393.8l-11.3-5.6c-440.5-257.9-773.7-683.3-909.2-1191.6c-21.6-80-37.7-161.9-48.9-244.7
		C270.6,869,265,785.2,264,701.5c0-14.1-1.9-12.2,11.3-18.8C441,588.5,616.1,519.8,801.5,476.5c68.7-16,137.4-28.2,207.1-36.7
		c96-11.3,192-16,289-14.1c54.6,0.9,108.2,4.7,161.9,10.4c270.1,29.2,523.3,110.1,760.5,242.8c3.8,1.9,6.6,3.8,10.4,5.6
		c3.8,1.9,5.6,4.7,5.6,9.4v14.1c-0.9,48.9-2.8,96.9-6.6,145.9c-5.6,69.7-15.1,138.4-28.2,207.1c-28.2,147.8-72.5,289.9-133.7,426.4
		c-96.9,217.4-229.7,411.3-397.2,580.8c-120.5,122.4-255.1,227.8-403.8,315.3C1260.8,2387.3,1256.1,2390.1,1250.5,2393.8
		L1250.5,2393.8z M354.4,749.5v11.3c0,68.7,4.7,138.4,13.2,206.1c7.5,62.1,17.9,123.3,32,184.5c2.8,10.4,5.6,20.7,10.4,31.1
		c84.7,179.8,280.5,275.8,474.4,231.5c147.8-33.9,268.3-147.8,308.7-293.7c11.3-40.5,15.1-81.9,16.9-123.3
		c0.9-27.3,3.8-54.6,8.5-81.9c32-165.7,142.1-302.1,297.4-367.1c8.5-3.8,17.9-6.6,26.4-10.4c0.9-0.9,2.8-0.9,2.8-2.8
		c-24.5-8.5-170.4-23.5-257.9-25.4c-188.3-3.8-372.7,20.7-552.5,75.3C601,625.2,474.9,679.8,354.4,749.5L354.4,749.5z
		 M1742.7,1877.1c4.7-2.8,7.5-6.6,9.4-9.4c37.7-47.1,73.4-96,106.4-146.8c117.7-182.6,200.5-379.3,246.6-592
		c16-72.5,26.4-145,32.9-218.4c4.7-49.9,6.6-99.8,6.6-150.6c0-3.8,0-6.6-0.9-10.4l-14.1-8.5c-38.6-21.6-78.1-42.4-117.7-61.2
		c-58.4-27.3-116.7-51.8-177.9-71.5c-74.4-23.5-149.7-26.4-225-7.5c-215.5,51.8-353.9,263.6-312.5,481
		c22.6,120.5,87.5,214.6,191.1,280.5c6.6,4.7,14.1,8.5,20.7,13.2c76.2,46.1,135.5,109.2,177.9,187.3
		c45.2,81.9,64.9,170.4,59.3,263.6C1746.5,1842.3,1744.6,1859.2,1742.7,1877.1L1742.7,1877.1z M1250.5,2297.8
		c3.8-1.9,8.5-4.7,12.2-7.5c118.6-69.7,227.8-152.5,327.6-246.6c6.6-5.6,11.3-13.2,15.1-20.7c6.6-12.2,13.2-25.4,18.8-37.7
		c47.1-97.9,57.4-199.5,26.4-305c-61.2-203.3-257-320-453.7-295.6c-56.5,6.6-108.2,24.5-157.2,52.7c-93.2,52.7-193,74.4-300.3,64
		c-52.7-4.7-102.6-18.8-150.6-39.5c-37.7-16.9-73.4-37.7-105.4-63.1c-1.9-1.9-4.7-2.8-9.4-5.6c0.9,4.7,1.9,7.5,2.8,9.4
		c42.4,107.3,94.1,209,155.3,305.9c66.8,104.5,143.1,201.4,229.7,289.9c86.6,88.5,181.7,167.5,284.3,236.3
		C1193,2264.9,1237.3,2292.2,1250.5,2297.8L1250.5,2297.8z"/>
	<path class="st1" d="M354.4,749.5C474.9,679.8,601,625.2,733.7,585.7c180.7-53.7,364.3-79.1,552.5-75.3
		c87.5,1.9,233.4,16,257.9,25.4c0.9,1.9-0.9,2.8-2.8,2.8c-8.5,3.8-17.9,6.6-26.4,10.4c-155.3,64.9-265.4,201.4-297.4,367.1
		c-4.7,27.3-7.5,54.6-8.5,81.9c-0.9,41.4-4.7,82.8-16.9,123.3c-41.4,145.9-161,259.8-308.7,293.7
		c-193.9,44.2-389.7-51.8-474.4-231.5c-4.7-10.4-8.5-20.7-10.4-31.1c-14.1-61.2-24.5-122.4-32-184.5
		c-8.5-68.7-13.2-137.4-13.2-206.1C354.4,757,354.4,754.2,354.4,749.5L354.4,749.5z"/>
	<path class="st2" d="M1742.7,1877.1c1.9-17.9,3.8-33.9,4.7-50.8c4.7-93.2-15.1-181.7-59.3-263.6
		c-42.4-78.1-101.7-140.2-177.9-187.3c-6.6-4.7-14.1-8.5-20.7-13.2c-104.5-65.9-168.5-159.1-191.1-280.5
		c-40.5-218.4,96.9-429.2,312.5-481c76.2-17.9,150.6-16,225,7.5c61.2,18.8,119.5,44.2,177.9,71.5c40.5,18.8,79.1,39.5,117.7,61.2
		c4.7,2.8,8.5,4.7,14.1,8.5c0,3.8,0.9,6.6,0.9,10.4c0,49.9-2.8,100.7-6.6,150.6c-6.6,73.4-17.9,146.8-32.9,218.4
		c-46.1,212.7-128,409.4-246.6,592c-32.9,50.8-68.7,99.8-106.4,146.8C1750.3,1870.5,1748.4,1874.3,1742.7,1877.1z"/>
	<path class="st3" d="M1250.5,2297.8c-14.1-5.6-57.4-32-103.5-63.1c-102.6-68.7-197.7-147.8-284.3-236.3
		c-86.6-88.5-163.8-185.4-229.7-289.9c-62.1-96.9-113.9-198.6-155.3-305.9c-0.9-2.8-1.9-4.7-2.8-9.4c4.7,2.8,6.6,3.8,9.4,5.6
		c32.9,25.4,67.8,47.1,105.4,63.1c48,20.7,97.9,34.8,150.6,39.5c106.4,10.4,206.1-11.3,300.3-64c48.9-27.3,101.7-45.2,157.2-52.7
		c196.7-24.5,392.5,92.2,453.7,295.6c31.1,104.5,21.6,206.1-26.4,305c-6.6,13.2-12.2,25.4-18.8,37.7c-3.8,7.5-8.5,15.1-15.1,20.7
		c-99.8,94.1-209,177-327.6,246.6C1258.9,2293.1,1254.2,2296,1250.5,2297.8L1250.5,2297.8z"/>
</g>
</svg>
