<svg xmlns="http://www.w3.org/2000/svg" width="40" height="40" viewBox="0 0 40 40">
  <g id="Group_2486" transform="translate(-941 -1669)">
    <circle id="Ellipse_307" cx="20" cy="20" r="20" transform="translate(941 1669)" fill="#f6f7f8"/>
    <path id="Intersection_1" d="M19900.545,10128.379l2.238-1.16.127-.069a10.248,10.248,0,0,0,5.074,1.349,10.48,10.48,0,0,0,10.4-10.572,11.088,11.088,0,0,0-.084-1.392l-17.465,9.059-3.609,1.876-4.227,2.188v-2.633l4.254-2.211,2.068-1.072,23.68-12.274v2.628l-1.092.568a2.353,2.353,0,0,0-1.254,2.271c.027.332.037.662.037.992a13.063,13.063,0,0,1-2.42,7.587,12.523,12.523,0,0,1-17.725,2.866Zm-7.549-6.632,1.092-.564a2.354,2.354,0,0,0,1.254-2.271c-.021-.33-.037-.655-.037-.986a13.092,13.092,0,0,1,2.42-7.592,12.55,12.55,0,0,1,17.732-2.866l-.311.157-2.068,1.073a10.214,10.214,0,0,0-5.051-1.339,10.481,10.481,0,0,0-10.408,10.561,10.829,10.829,0,0,0,.092,1.383l17.439-9.045,3.617-1.874,4.23-2.2v2.64l-4.27,2.215-2.066,1.073-18.389,9.543-1.023.525-1.039.542-3.215,1.669Z" transform="translate(-18947 -8429)" stroke="rgba(0,0,0,0)" stroke-miterlimit="10" stroke-width="1"/>
  </g>
</svg>
