<svg id="Group_109" xmlns="http://www.w3.org/2000/svg" width="40" height="40" viewBox="0 0 40 40">
  <circle id="Ellipse_24"  cx="17.835" cy="17.835" r="17.835" transform="translate(2.165 2.165)" fill="#fff"/>
  <circle id="Ellipse_25"  cx="20" cy="20" r="20" fill="#f6f7f8"/>
  <g id="Group_108" transform="translate(7.703 9.817)">
    <g id="Layer_1-2" >
      <path id="Path_2628" d="M21.885,0H25.44l-7.4,7.324a6.913,6.913,0,0,1-9.7,0L.94,0H4.5l5.62,5.564a4.376,4.376,0,0,0,6.144,0Z" transform="translate(-0.895)" fill="#23292f"/>
      <path id="Path_2629" d="M3.557,238.545H0l7.445-7.369a6.913,6.913,0,0,1,9.7,0l7.445,7.369H21.039l-5.668-5.609a4.376,4.376,0,0,0-6.144,0Z" transform="translate(0 -218.179)" fill="#23292f"/>
    </g>
  </g>
</svg>
