<?xml version="1.0" encoding="utf-8"?>
<!-- Generator: Adobe Illustrator 25.2.1, SVG Export Plug-In . SVG Version: 6.00 Build 0)  -->
<svg version="1.1" id="Layer_1" xmlns="http://www.w3.org/2000/svg" xmlns:xlink="http://www.w3.org/1999/xlink" x="0px" y="0px"
	 viewBox="0 0 25 25" style="enable-background:new 0 0 25 25;" xml:space="preserve">
<style type="text/css">
	.st0{fill:#2C7DF7;}
	.st1{fill:#FFFFFF;}
</style>
<circle class="st0" cx="12.5" cy="12.5" r="12.5"/>
<g id="Layer_2_1_">
	<path class="st1" d="M14.6,22.1c-1.4,0-2.4-0.3-3-1c-0.6-0.6-0.9-1.3-0.9-2.1c0-0.2,0-0.5,0.2-0.7c0.1-0.2,0.3-0.3,0.5-0.5
		c0.4-0.2,1-0.2,1.4,0c0.2,0.1,0.3,0.3,0.4,0.5c0.1,0.2,0.2,0.5,0.2,0.7c0,0.3-0.1,0.6-0.2,0.8c-0.1,0.2-0.3,0.3-0.6,0.4
		c0.2,0.3,0.5,0.5,0.9,0.6c0.4,0.1,0.8,0.2,1.2,0.2c0.6,0,1.1-0.2,1.5-0.5c0.5-0.3,0.8-0.8,1-1.4c0.2-0.7,0.3-1.4,0.3-2
		c0-0.7-0.1-1.4-0.4-2.1c-0.2-0.5-0.6-1-1-1.3c-0.4-0.3-1-0.4-1.5-0.4c-0.5,0-0.9,0.2-1.3,0.4l-1,0.5v-0.5l4.3-5.8h-6v6
		c0,0.4,0.1,0.9,0.3,1.2c0.2,0.3,0.6,0.5,1,0.5c0.4,0,0.7-0.1,1-0.4c0.3-0.2,0.6-0.5,0.8-0.9c0-0.1,0.1-0.1,0.1-0.1
		c0,0,0.1-0.1,0.1-0.1c0.1,0,0.2,0.1,0.3,0.1c0.1,0.1,0.2,0.3,0.2,0.4c0,0.1,0,0.2-0.1,0.3c-0.2,0.5-0.6,1-1,1.3
		c-0.4,0.3-0.9,0.4-1.4,0.4c-1.3,0-2.2-0.3-2.7-0.8c-0.5-0.6-0.8-1.3-0.7-2.1v-6H5.4V6.7h3.1V4.2L7.8,3.5V2.9h2l0.8,0.4v3.4l7.9,0
		l0.8,0.8l-4.9,4.9c0.3-0.1,0.6-0.2,0.9-0.2c0.6,0,1.2,0.2,1.8,0.5c0.6,0.3,1.2,0.8,1.5,1.4c0.3,0.5,0.6,1.1,0.7,1.6
		c0.1,0.5,0.2,0.9,0.2,1.4c0,0.9-0.2,1.8-0.6,2.6c-0.4,0.8-1,1.4-1.8,1.8C16.4,21.9,15.5,22.1,14.6,22.1z"/>
</g>
</svg>
