<?xml version="1.0" encoding="utf-8"?>
<!-- Generator: Adobe Illustrator 23.0.2, SVG Export Plug-In . SVG Version: 6.00 Build 0)  -->
<svg version="1.1" id="Layer_1" xmlns="http://www.w3.org/2000/svg" xmlns:xlink="http://www.w3.org/1999/xlink" x="0px" y="0px"
	 viewBox="0 0 1875 1875" style="enable-background:new 0 0 1875 1875;" xml:space="preserve">
<style type="text/css">
	.st0{fill:#FFFFFF;}
	.st1{fill:#49C1BF;}
	.st2{fill:#077A8F;}
	.st3{fill:#298E97;}
</style>
<circle class="st0" cx="937.5" cy="937.5" r="937.5"/>
<title>Dogecoin (DOGE)</title>
<g>
	<g transform="translate(190.693 -109)">
		<path id="path0_fill" class="st1" d="M1199,935.4l-184.4,82.2l-489.1,248.9l489.1,235.1v-388.7L1199,1030v574.2l-184.4,82.2
			l-720.1-344.6v-183.2L793,914L294.6,674.5V488.6l187.3-82.2L1199,751.7L1199,935.4L1199,935.4z"/>
	</g>
	<g transform="translate(190.693 -109)">
		<path id="path1_fill" class="st2" d="M294.6,488.6l720.1,345.2l184.4-82.2L481.9,406.4L294.6,488.6z"/>
	</g>
	<g transform="translate(208.695 -100.365)">
		<path id="path2_fill" class="st3" d="M996.7,824.5l184.4-82.2V926l-184.4,82.2L996.7,824.5L996.7,824.5z"/>
	</g>
	<g transform="translate(190.693 -106.944)">
		<path id="path3_fill" class="st1" d="M294.6,486.8v185.8L793,912.1l-498.5,244.5v183.2l720.1,344.6v-184.4l-489.1-235.4
			l489.1-248.9V832L294.6,486.8z"/>
	</g>
	<g transform="translate(208.695 -93.411)">
		<path id="path4_fill" class="st3" d="M996.7,1669.6l184.4-82.2v-574.2l-184.4,83.1L996.7,1669.6L996.7,1669.6z"/>
	</g>
</g>
</svg>
